<?xml version="1.0" encoding="UTF-8"?> <svg xmlns="http://www.w3.org/2000/svg" width="500" height="312" viewBox="0 0 500 312" fill="none"><g clip-path="url(#clip0_1385_1670)"><rect width="499" height="312" transform="translate(0.106934)"></rect><path fill-rule="evenodd" clip-rule="evenodd" d="M667.161 150.427L715.652 178.421L667.161 206.415L618.67 178.421L667.161 150.427ZM667.161 149.427L618.659 121.427L667.583 93.1826L666.717 92.6826L617.792 120.927L569.301 92.9327L618.226 64.6884L617.36 64.1884L568.435 92.4327L519.942 64.4381L568.867 36.1939L568.001 35.6939L519.076 63.9381L470.586 35.9444L519.511 7.69992L518.645 7.19996L469.72 35.4444L421.228 7.45021L470.153 -20.7942L469.287 -21.2941L420.362 6.95024L371.871 -21.0438L420.796 -49.2882L419.93 -49.7882L371.005 -21.5437L322.502 -49.5441L371.427 -77.7884L370.561 -78.2884L321.636 -50.0441L273.146 -78.0378L322.071 -106.282L321.205 -106.782L272.28 -78.5377L223.354 -106.782L222.488 -106.282L271.414 -78.0378L222.923 -50.044L173.998 -78.2883L173.132 -77.7883L222.057 -49.544L173.554 -21.5436L124.629 -49.788L123.763 -49.288L172.688 -21.0437L124.197 6.95014L75.2729 -21.2939L74.4069 -20.7939L123.331 7.45011L74.8397 35.4443L25.9151 7.20016L25.0491 7.70013L73.9736 35.9443L25.4817 63.9387L-23.4434 35.6942L-24.3095 36.1942L24.6156 64.4387L-23.8751 92.4323L-72.7998 64.1881L-73.6658 64.6881L-24.7411 92.9323L-73.2328 120.927L-122.158 92.6823L-123.024 93.1822L-74.0989 121.427L-122.601 149.427L-171.526 121.183L-172.392 121.683L-123.467 149.927L-171.959 177.921L-220.883 149.677L-221.75 150.177L-172.825 178.421L-221.749 206.665L-220.883 207.165L-171.959 178.921L-123.468 206.915L-172.392 235.159L-171.526 235.659L-122.602 207.415L-74.0997 235.415L-123.024 263.659L-122.158 264.159L-73.2336 235.915L-24.7424 263.909L-73.6666 292.153L-72.8006 292.653L-23.8763 264.409L24.6153 292.403L-24.3088 320.647L-23.4428 321.147L25.4813 292.903L73.9721 320.897L25.0476 349.141L25.9137 349.641L74.8382 321.397L123.33 349.391L74.4061 377.635L75.2722 378.135L124.197 349.891L172.688 377.886L123.764 406.13L124.63 406.63L173.554 378.386L222.056 406.386L173.133 434.63L173.999 435.13L222.923 406.886L271.413 434.88L222.489 463.124L223.355 463.624L272.28 435.38L321.204 463.624L322.07 463.124L273.146 434.88L321.637 406.886L370.561 435.13L371.427 434.63L322.503 406.386L371.005 378.385L419.93 406.629L420.796 406.129L371.871 377.885L420.363 349.891L469.288 378.135L470.154 377.635L421.229 349.391L469.72 321.397L518.644 349.641L519.51 349.141L470.586 320.897L519.078 292.903L568.003 321.147L568.869 320.647L519.944 292.403L568.436 264.409L617.36 292.653L618.226 292.153L569.302 263.909L617.792 235.915L666.717 264.159L667.583 263.659L618.659 235.415L667.161 207.415L716.085 235.659L716.951 235.159L668.027 206.915L716.518 178.921L765.442 207.165L766.308 206.665L717.384 178.421L766.309 150.177L765.443 149.677L716.518 177.921L668.027 149.927L716.952 121.683L716.086 121.183L667.161 149.427ZM-171.093 178.421L-122.602 206.415L-74.1107 178.421L-122.601 150.427L-171.093 178.421ZM-121.735 149.927L-73.2447 177.921L-24.7421 149.92L-73.2328 121.927L-121.735 149.927ZM-72.3668 121.427L-23.8761 149.42L24.6156 121.426L-23.8751 93.4323L-72.3668 121.427ZM-23.009 92.9323L25.4817 120.926L73.9724 92.9323L25.4817 64.9386L-23.009 92.9323ZM26.3477 64.4386L74.8384 92.4323L123.33 64.4379L74.8397 36.4442L26.3477 64.4386ZM75.7057 35.9443L124.196 63.938L172.688 35.9438L124.197 7.95007L75.7057 35.9443ZM125.063 7.4501L173.554 35.4438L222.045 7.45L173.554 -20.5437L125.063 7.4501ZM174.42 -21.0437L222.911 6.95002L271.413 -21.0504L222.923 -49.0441L174.42 -21.0437ZM223.789 -49.5441L272.279 -21.5504L320.77 -49.5441L272.28 -77.5378L223.789 -49.5441ZM273.146 -21.0504L321.636 -49.0441L370.139 -21.0438L321.648 6.94997L273.146 -21.0504ZM223.777 7.45L272.279 -20.5504L320.782 7.44995L272.279 35.4504L223.777 7.45ZM174.42 35.9438L222.911 7.94997L271.413 35.9503L222.922 63.9441L174.42 35.9438ZM125.062 64.4379L173.554 36.4437L222.056 64.4441L173.565 92.4383L125.062 64.4379ZM75.7045 92.9323L124.196 64.9379L172.699 92.9383L124.207 120.933L75.7045 92.9323ZM26.3477 121.426L74.8384 93.4323L123.341 121.433L74.85 149.426L26.3477 121.426ZM-23.0101 149.92L25.4817 121.926L73.984 149.926L25.4922 177.921L-23.0101 149.92ZM-72.3786 178.421L-23.8761 150.42L24.6262 178.421L-23.8763 206.421L-72.3786 178.421ZM-121.736 206.915L-73.2447 178.921L-24.7424 206.921L-73.2336 234.915L-121.736 206.915ZM-72.3676 235.415L-23.8764 263.409L24.6149 235.415L-23.8763 207.421L-72.3676 235.415ZM-23.0103 206.921L25.481 234.915L73.9835 206.914L25.4922 178.92L-23.0103 206.921ZM26.3583 178.421L74.8495 206.415L123.341 178.42L74.85 150.426L26.3583 178.421ZM75.716 149.926L124.207 177.92L172.698 149.927L124.207 121.933L75.716 149.926ZM125.073 121.433L173.564 149.427L222.056 121.432L173.565 93.4382L125.073 121.433ZM174.431 92.9383L222.922 120.932L271.414 92.9381L222.922 64.9441L174.431 92.9383ZM223.788 64.4441L272.28 92.4381L320.771 64.4443L272.279 36.4503L223.788 64.4441ZM273.145 35.9503L321.637 63.9443L370.139 35.9439L321.648 7.94991L273.145 35.9503ZM322.514 7.44993L371.005 35.4439L419.496 7.4502L371.005 -20.5438L322.514 7.44993ZM371.871 35.9439L420.362 7.95016L468.854 35.9444L420.363 63.9381L371.871 35.9439ZM322.503 64.4443L371.005 36.4439L419.497 64.4381L370.994 92.4385L322.503 64.4443ZM273.146 92.9381L321.637 64.9443L370.128 92.9385L321.637 120.932L273.146 92.9381ZM223.788 121.432L272.28 93.438L320.771 121.432L272.28 149.426L223.788 121.432ZM174.43 149.927L222.922 121.932L271.414 149.926L222.922 177.921L174.43 149.927ZM125.073 178.42L173.564 150.427L222.056 178.421L173.565 206.414L125.073 178.42ZM75.7156 206.914L124.207 178.92L172.699 206.914L124.207 234.909L75.7156 206.914ZM26.347 235.415L74.8496 207.414L123.341 235.409L74.8386 263.409L26.347 235.415ZM-23.0103 263.909L25.481 235.915L73.9726 263.909L25.4813 291.903L-23.0103 263.909ZM26.3473 292.403L74.8381 320.397L123.329 292.403L74.8386 264.409L26.3473 292.403ZM75.7047 263.909L124.195 291.903L172.698 263.902L124.207 235.909L75.7047 263.909ZM125.073 235.409L173.564 263.402L222.056 235.408L173.565 207.414L125.073 235.409ZM174.431 206.914L222.922 234.908L271.413 206.914L222.922 178.921L174.431 206.914ZM223.788 178.421L272.279 206.415L320.771 178.42L272.28 150.426L223.788 178.421ZM273.146 149.926L321.637 177.92L370.128 149.926L321.637 121.932L273.146 149.926ZM322.503 121.432L370.994 149.426L419.485 121.432L370.994 93.4384L322.503 121.432ZM371.86 92.9385L420.351 120.932L468.854 92.9318L420.363 64.938L371.86 92.9385ZM421.229 64.4381L469.72 92.4318L518.21 64.4381L469.72 36.4443L421.229 64.4381ZM470.586 92.9318L519.076 64.938L567.569 92.9326L519.078 120.926L470.586 92.9318ZM421.217 121.432L469.72 93.4317L518.212 121.426L469.71 149.427L421.217 121.432ZM371.86 149.926L420.351 121.932L468.843 149.927L420.353 177.921L371.86 149.926ZM322.503 178.42L370.994 150.426L419.487 178.421L370.995 206.415L322.503 178.42ZM273.145 206.914L321.637 178.92L370.129 206.915L321.637 234.909L273.145 206.914ZM223.788 235.408L272.279 207.414L320.771 235.409L272.28 263.403L223.788 235.408ZM174.43 263.902L222.922 235.908L271.414 263.903L222.922 291.897L174.43 263.902ZM125.062 292.403L173.564 264.402L222.056 292.397L173.554 320.397L125.062 292.403ZM75.7042 320.897L124.195 292.903L172.688 320.897L124.196 348.891L75.7042 320.897ZM125.063 349.391L173.554 377.386L222.046 349.392L173.554 321.397L125.063 349.391ZM174.42 320.897L222.912 348.892L271.414 320.891L222.922 292.897L174.42 320.897ZM223.788 292.397L272.28 320.391L320.772 292.397L272.28 264.403L223.788 292.397ZM273.146 263.903L321.638 291.897L370.129 263.903L321.637 235.909L273.146 263.903ZM322.503 235.409L370.995 263.403L419.487 235.409L370.995 207.415L322.503 235.409ZM371.861 206.915L420.353 234.909L468.844 206.915L420.353 178.921L371.861 206.915ZM421.219 178.421L469.71 206.415L518.201 178.421L469.709 150.427L421.219 178.421ZM470.576 149.927L519.067 177.921L567.57 149.921L519.078 121.926L470.576 149.927ZM519.944 121.426L568.436 149.421L616.927 121.427L568.435 93.4326L519.944 121.426ZM569.302 149.921L617.793 121.927L666.295 149.927L617.804 177.921L569.302 149.921ZM519.933 178.421L568.436 150.421L616.938 178.421L568.436 206.421L519.933 178.421ZM470.576 206.915L519.067 178.921L567.569 206.921L519.079 234.915L470.576 206.915ZM421.219 235.409L469.71 207.415L518.213 235.415L469.721 263.409L421.219 235.409ZM371.861 263.903L420.353 235.909L468.855 263.909L420.363 291.904L371.861 263.903ZM322.504 292.397L370.995 264.403L419.497 292.404L371.006 320.397L322.504 292.397ZM273.146 320.891L321.638 292.897L370.14 320.897L321.648 348.892L273.146 320.891ZM223.778 349.392L272.28 321.391L320.782 349.391L272.28 377.392L223.778 349.392ZM174.42 377.886L222.912 349.892L271.414 377.892L222.923 405.886L174.42 377.886ZM223.789 406.386L272.28 434.38L320.771 406.386L272.28 378.392L223.789 406.386ZM273.146 377.892L321.637 405.886L370.139 377.885L321.648 349.891L273.146 377.892ZM322.514 349.391L371.005 377.385L419.497 349.391L371.006 321.397L322.514 349.391ZM371.872 320.897L420.363 348.891L468.854 320.897L420.363 292.904L371.872 320.897ZM421.229 292.404L469.72 320.397L518.212 292.403L469.721 264.409L421.229 292.404ZM470.587 263.909L519.078 291.903L567.57 263.909L519.079 235.915L470.587 263.909ZM519.945 235.415L568.436 263.409L616.926 235.415L568.435 207.421L519.945 235.415ZM569.302 206.921L617.793 234.915L666.295 206.915L617.804 178.921L569.302 206.921Z" fill="url(#paint0_radial_1385_1670)"></path><path d="M152.452 119.118L178.077 133.911C181.425 135.844 181.425 138.977 178.077 140.91L159.524 151.621C156.176 153.554 156.176 156.688 159.524 158.621L221.102 194.169M351.107 233.801L325.482 219.008C322.134 217.075 316.705 217.075 313.357 219.008L294.804 229.718C291.456 231.651 286.028 231.651 282.68 229.718L221.102 194.169M306.204 145.04L255.865 174.101L238.483 184.135L221.102 194.169M186.339 214.238L221.102 194.169" stroke="#151E29" stroke-linejoin="bevel"></path><path d="M344.082 237.737C340.621 235.824 340.608 232.721 344.041 230.807C347.474 228.894 353.059 228.894 356.52 230.807C359.98 232.721 359.993 235.824 356.56 237.737C353.127 239.663 347.542 239.663 344.082 237.737Z" fill="#F5F7FA" stroke="#151E29" stroke-linejoin="round"></path><path d="M300.11 149.127C296.649 147.214 296.636 144.111 300.069 142.197C303.502 140.284 309.087 140.284 312.548 142.197C316.008 144.111 316.022 147.214 312.588 149.127C309.155 151.054 303.57 151.054 300.11 149.127Z" fill="#FF668A" stroke="#151E29" stroke-linejoin="round"></path><path d="M148.255 124.651C144.795 122.737 144.781 119.634 148.214 117.721C151.647 115.807 157.233 115.807 160.693 117.721C164.153 119.634 164.167 122.737 160.734 124.651C157.301 126.577 151.715 126.577 148.255 124.651Z" fill="#FFDE63" stroke="#151E29" stroke-linejoin="round"></path><path d="M219.015 195.519C217.905 194.906 217.901 193.91 219.002 193.297C220.103 192.683 221.894 192.683 223.004 193.297C224.114 193.91 224.118 194.906 223.017 195.519C221.916 196.137 220.125 196.137 219.015 195.519Z" fill="#A3E2FF" stroke="#151E29" stroke-linejoin="round"></path><path d="M177.558 219.489C174.098 217.576 174.084 214.473 177.517 212.559C180.95 210.646 186.536 210.646 189.996 212.559C193.456 214.473 193.47 217.576 190.037 219.489C186.604 221.416 181.018 221.416 177.558 219.489Z" fill="#A3E2FF" stroke="#151E29" stroke-linejoin="round"></path><path opacity="0.2" fill-rule="evenodd" clip-rule="evenodd" d="M213.375 280.749C222.233 275.627 222.188 267.31 213.375 262.188L139.7 219.333C134.778 216.802 129.33 215.483 123.805 215.483C118.279 215.483 112.832 216.802 107.91 219.333L65.3502 244.262C56.4921 249.383 56.5596 257.7 65.3502 262.822L92.8944 278.849L89.4825 280.821L89.4693 280.828C88.6996 281.275 88.6799 282.678 89.4253 283.961C90.1708 285.244 91.3991 285.921 92.1688 285.474C92.1931 285.46 92.2165 285.445 92.2393 285.429L98.1697 282.002C98.1941 281.987 98.2186 281.974 98.2432 281.961L139.003 305.677C143.924 308.213 149.372 309.536 154.898 309.536C160.425 309.536 165.873 308.213 170.793 305.677L195.882 290.99C196.019 291.034 196.152 291.092 196.281 291.167L202.212 294.594C202.235 294.61 202.258 294.625 202.282 294.639C203.052 295.086 204.28 294.409 205.026 293.126C205.771 291.843 205.752 290.441 204.982 289.993L204.969 289.986L204.961 289.981L201.259 287.842L213.375 280.749ZM204.961 289.981C204.944 289.972 204.927 289.963 204.91 289.955C204.897 289.949 204.883 289.943 204.87 289.938C204.901 289.951 204.931 289.965 204.961 289.981ZM89.5809 280.772C89.55 280.785 89.5199 280.8 89.4907 280.816C89.5201 280.8 89.5502 280.785 89.5809 280.772Z" fill="#006FD6"></path><path d="M219.985 246.489V261.288C219.985 264.62 217.737 267.951 213.442 270.49V255.714C217.737 253.175 219.985 249.843 219.985 246.489Z" fill="#7AD1FF" stroke="#151E29"></path><path d="M213.465 255.713L213.443 270.489L170.861 295.441L170.906 280.642L213.465 255.713Z" fill="#7AD1FF" stroke="#151E29"></path><path d="M139.115 280.642L139.07 295.441L65.4177 252.563L65.4627 237.788L139.115 280.642Z" fill="#7AD1FF" stroke="#151E29"></path><path d="M213.375 237.153C222.188 242.275 222.233 250.592 213.375 255.714L170.793 280.642C165.873 283.178 160.425 284.501 154.898 284.501C149.372 284.501 143.924 283.178 139.003 280.642L65.3502 237.787C56.5596 232.666 56.4921 224.349 65.3502 219.227L107.91 194.298C112.832 191.767 118.279 190.448 123.805 190.448C129.33 190.448 134.778 191.767 139.7 194.298L213.375 237.153Z" fill="#F5F7FA" stroke="#151E29"></path><path d="M170.906 280.642V295.44C165.982 297.966 160.535 299.282 155.01 299.282C149.486 299.282 144.039 297.966 139.115 295.44V280.642C144.036 283.178 149.484 284.501 155.01 284.501C160.537 284.501 165.985 283.178 170.906 280.642V280.642Z" fill="#7AD1FF" stroke="#151E29"></path><path d="M197.775 272.328C197.774 269.699 195.928 268.619 193.659 269.922C191.39 271.224 189.543 274.421 189.543 277.05C189.544 279.68 191.391 280.76 193.66 279.458C195.929 278.155 197.775 274.959 197.775 272.328Z" fill="#0056B3" stroke="#0056B3"></path><path d="M202.277 282.764L193.163 277.497C192.82 277.299 192.608 276.875 192.605 276.274C192.601 275.065 193.451 273.593 194.504 272.986C195.033 272.681 195.514 272.653 195.861 272.855L204.975 278.122C204.628 277.921 204.148 277.948 203.618 278.254C202.565 278.86 201.715 280.332 201.72 281.542C201.722 282.142 201.934 282.565 202.277 282.764Z" fill="#F5F7FA" stroke="#151E29" stroke-linejoin="round"></path><path d="M202.282 282.771C203.052 283.219 204.28 282.541 205.026 281.258C205.771 279.975 205.752 278.573 204.982 278.126C204.212 277.678 202.984 278.356 202.238 279.639C201.493 280.921 201.513 282.324 202.282 282.771Z" fill="#F5F7FA" stroke="#151E29" stroke-linejoin="round"></path><path d="M96.6764 263.163C96.6767 260.534 98.5228 259.454 100.792 260.756C103.061 262.059 104.908 265.256 104.908 267.885C104.907 270.514 103.06 271.595 100.791 270.292C98.5221 268.99 96.6765 265.793 96.6764 263.163Z" fill="#0056B3" stroke="#0056B3"></path><path d="M92.1738 273.599L101.288 268.332C101.631 268.133 101.843 267.71 101.846 267.109C101.85 265.899 101 264.428 99.9474 263.821C99.4177 263.516 98.9374 263.488 98.5903 263.689L89.4759 268.957C89.8235 268.756 90.3031 268.783 90.833 269.088C91.8859 269.695 92.7357 271.167 92.7313 272.376C92.729 272.977 92.5171 273.4 92.1738 273.599Z" fill="#F5F7FA" stroke="#151E29" stroke-linejoin="round"></path><path d="M92.1689 273.606C91.3991 274.053 90.1708 273.376 89.4254 272.093C88.6799 270.81 88.6996 269.408 89.4693 268.96C90.2391 268.513 91.4673 269.191 92.2128 270.473C92.9583 271.756 92.9386 273.159 92.1689 273.606Z" fill="#F5F7FA" stroke="#151E29" stroke-linejoin="round"></path><path d="M96.6766 263.163C96.677 260.534 98.523 259.454 100.792 260.756C103.061 262.059 104.908 265.256 104.908 267.885C104.908 270.515 103.061 271.595 100.792 270.293C98.5223 268.99 96.6768 265.794 96.6766 263.163Z" fill="#0056B3" stroke="#0056B3"></path><path d="M92.1738 273.599L101.288 268.332C101.631 268.133 101.843 267.71 101.846 267.109C101.85 265.899 101 264.428 99.9474 263.821C99.4177 263.516 98.9374 263.488 98.5903 263.689L89.4759 268.957C89.8235 268.756 90.3031 268.783 90.833 269.088C91.8859 269.695 92.7357 271.167 92.7313 272.376C92.729 272.977 92.5171 273.4 92.1738 273.599Z" fill="#A3E2FF" stroke="#151E29" stroke-linejoin="round"></path><path d="M92.1689 273.606C91.3991 274.053 90.1708 273.376 89.4254 272.093C88.6799 270.81 88.6996 269.408 89.4693 268.96C90.2391 268.513 91.4673 269.191 92.2128 270.473C92.9583 271.756 92.9386 273.159 92.1689 273.606Z" fill="#7AD1FF" stroke="#151E29" stroke-linejoin="round"></path><path d="M125.985 208.04C124.986 208.541 123.879 208.809 122.756 208.809C121.632 208.809 120.525 208.541 119.525 208.04L110.683 202.413C110.318 202.246 110.003 201.986 109.769 201.659C109.537 201.332 109.394 200.949 109.356 200.549L108.523 208.006C108.561 208.405 108.704 208.788 108.936 209.115C109.169 209.442 109.508 209.703 109.873 209.869L119.524 215.485C120.525 215.998 121.632 216.265 122.756 216.265C123.879 216.265 124.986 215.998 125.986 215.485L135.638 209.869C136.003 209.703 136.341 209.442 136.575 209.115C136.807 208.788 136.95 208.405 136.988 208.006L136.155 200.549C136.117 200.949 135.974 201.332 135.741 201.659C135.508 201.986 135.193 202.246 134.828 202.413L125.985 208.04Z" fill="#7AD1FF"></path><path d="M125.986 215.485C124.986 215.998 123.879 216.265 122.756 216.265C121.632 216.265 120.525 215.998 119.524 215.485M125.986 215.485L125.963 215.496M125.986 215.485L135.638 209.869C136.003 209.703 136.341 209.442 136.575 209.115C136.807 208.788 136.95 208.405 136.988 208.006L136.155 200.549C136.117 200.949 135.974 201.332 135.741 201.659C135.508 201.986 135.193 202.246 134.828 202.413L125.985 208.04C124.986 208.541 123.879 208.809 122.756 208.809C121.632 208.809 120.525 208.541 119.525 208.04L110.683 202.413C110.318 202.246 110.003 201.986 109.769 201.659C109.537 201.332 109.394 200.949 109.356 200.549L108.523 208.006C108.561 208.405 108.704 208.788 108.936 209.115C109.169 209.442 109.508 209.703 109.873 209.869L119.524 215.485M119.524 215.485L119.548 215.496" stroke="#151E29"></path><path d="M134.923 199.14C136.611 200.118 136.622 201.688 134.923 202.667L125.825 207.947C124.885 208.429 123.844 208.681 122.787 208.681C121.731 208.681 120.69 208.429 119.749 207.947L110.587 202.667C108.91 201.688 108.899 200.118 110.587 199.14L119.696 193.848C120.637 193.371 121.678 193.123 122.734 193.123C123.789 193.123 124.83 193.371 125.772 193.848L134.923 199.14Z" fill="#F5F7FA" stroke="#151E29"></path><path d="M99.0222 218.92C100.022 219.421 101.129 219.689 102.252 219.689C103.375 219.689 104.483 219.421 105.482 218.92L114.325 213.293C114.69 213.126 115.005 212.866 115.238 212.539C115.471 212.212 115.614 211.829 115.651 211.429L116.485 218.886C116.447 219.285 116.304 219.668 116.072 219.995C115.838 220.322 115.5 220.583 115.135 220.75L105.483 226.365C104.483 226.878 103.375 227.145 102.252 227.145C101.129 227.145 100.022 226.878 99.0211 226.365L89.3699 220.75C89.0047 220.583 88.6663 220.322 88.4329 219.995C88.2006 219.668 88.0576 219.285 88.0197 218.886L88.853 211.429C88.891 211.829 89.034 212.212 89.2662 212.539C89.4997 212.866 89.8146 213.126 90.1798 213.293L99.0222 218.92Z" fill="#7AD1FF"></path><path d="M99.0211 226.365C100.022 226.878 101.129 227.145 102.252 227.145C103.375 227.145 104.483 226.878 105.483 226.365M99.0211 226.365L99.0446 226.376M99.0211 226.365L89.3699 220.75C89.0047 220.583 88.6663 220.322 88.4329 219.995C88.2006 219.668 88.0576 219.285 88.0197 218.886L88.853 211.429C88.891 211.829 89.034 212.212 89.2662 212.539C89.4997 212.866 89.8146 213.126 90.1798 213.293L99.0222 218.92C100.022 219.421 101.129 219.689 102.252 219.689C103.375 219.689 104.483 219.421 105.482 218.92L114.325 213.293C114.69 213.126 115.005 212.866 115.238 212.539C115.471 212.212 115.614 211.829 115.651 211.429L116.485 218.886C116.447 219.285 116.304 219.668 116.072 219.995C115.838 220.322 115.5 220.583 115.135 220.75L105.483 226.365M105.483 226.365L105.46 226.376" stroke="#151E29"></path><path d="M90.0845 210.02C88.3962 210.999 88.3854 212.568 90.0845 213.547L99.1822 218.827C100.122 219.309 101.164 219.561 102.22 219.561C103.277 219.561 104.318 219.309 105.258 218.827L114.42 213.547C116.098 212.568 116.109 210.999 114.42 210.02L105.312 204.729C104.37 204.251 103.33 204.003 102.274 204.003C101.218 204.003 100.178 204.251 99.236 204.729L90.0845 210.02Z" fill="#F5F7FA" stroke="#151E29"></path><path d="M79.9029 230.4C80.9024 230.902 82.0091 231.169 83.1326 231.169C84.2561 231.169 85.3634 230.902 86.3629 230.4L95.2054 224.774C95.5705 224.607 95.8855 224.346 96.1189 224.019C96.3512 223.692 96.4941 223.309 96.5321 222.91L97.3655 230.366C97.3275 230.766 97.1846 231.148 96.9523 231.475C96.7189 231.803 96.3805 232.063 96.0153 232.23L86.364 237.845C85.3634 238.358 84.2561 238.625 83.1326 238.625C82.0091 238.625 80.9024 238.358 79.9017 237.845L70.2505 232.23C69.8853 232.063 69.5469 231.803 69.3135 231.475C69.0812 231.148 68.9382 230.766 68.9003 230.366L69.7336 222.91C69.7716 223.309 69.9146 223.692 70.1469 224.019C70.3803 224.346 70.6952 224.607 71.0604 224.774L79.9029 230.4Z" fill="#7AD1FF"></path><path d="M79.9017 237.845C80.9024 238.358 82.0091 238.625 83.1326 238.625C84.2561 238.625 85.3634 238.358 86.364 237.845M79.9017 237.845L79.9252 237.856M79.9017 237.845L70.2505 232.23C69.8853 232.063 69.5469 231.803 69.3135 231.475C69.0812 231.148 68.9382 230.766 68.9003 230.366L69.7336 222.91C69.7716 223.309 69.9146 223.692 70.1469 224.019C70.3803 224.346 70.6952 224.607 71.0604 224.774L79.9029 230.4C80.9024 230.902 82.0091 231.169 83.1326 231.169C84.2561 231.169 85.3634 230.902 86.3629 230.4L95.2054 224.774C95.5705 224.607 95.8855 224.346 96.1189 224.019C96.3512 223.692 96.4941 223.309 96.5321 222.91L97.3655 230.366C97.3275 230.766 97.1846 231.148 96.9523 231.475C96.7189 231.803 96.3805 232.063 96.0153 232.23L86.364 237.845M86.364 237.845L86.3406 237.856" stroke="#151E29"></path><path d="M70.9651 221.5C69.2768 222.479 69.266 224.049 70.9651 225.027L80.0628 230.308C81.0029 230.79 82.0443 231.041 83.1008 231.041C84.1574 231.041 85.1987 230.79 86.1387 230.308L95.301 225.027C96.9786 224.049 96.9893 222.479 95.301 221.5L86.1926 216.209C85.251 215.732 84.2101 215.483 83.1545 215.483C82.0989 215.483 81.0582 215.732 80.1166 216.209L70.9651 221.5Z" fill="#F5F7FA" stroke="#151E29"></path><path d="M146.899 223.539L111.142 244.181M123.848 251.516L159.604 230.874" stroke="#151E29"></path><path d="M139.107 232.224L148.646 226.68C148.941 226.511 149.071 226.284 149.034 226.063L148.261 222.164C148.259 221.986 148.139 221.807 147.902 221.668L143.194 218.954C142.93 218.816 142.637 218.745 142.339 218.745C142.042 218.745 141.749 218.816 141.485 218.954L132.796 224.001C132.565 224.133 132.447 224.304 132.44 224.477L131.691 228.527C131.596 228.775 131.719 229.046 132.052 229.242L137.224 232.224C137.516 232.372 137.838 232.449 138.165 232.449C138.493 232.449 138.815 232.372 139.107 232.224Z" fill="#FFDE63"></path><path d="M132.052 228.151C131.863 228.258 131.743 228.389 131.691 228.527M131.691 228.527C131.596 228.775 131.719 229.046 132.052 229.242L137.224 232.224C137.516 232.372 137.838 232.449 138.165 232.449C138.493 232.449 138.815 232.372 139.107 232.224L148.646 226.68C148.941 226.511 149.071 226.284 149.034 226.063L148.261 222.164C148.259 221.986 148.139 221.807 147.902 221.668L143.194 218.954C142.93 218.816 142.637 218.745 142.339 218.745C142.042 218.745 141.749 218.816 141.485 218.954L132.796 224.001C132.565 224.133 132.447 224.304 132.44 224.477L131.691 228.527Z" stroke="#151E29" stroke-linejoin="round"></path><path d="M147.902 221.668C148.38 221.947 148.38 222.389 147.902 222.662L139.219 227.71C138.953 227.844 138.659 227.914 138.361 227.914C138.063 227.914 137.77 227.844 137.504 227.71L132.796 224.995C132.323 224.716 132.317 224.274 132.796 224.001L141.485 218.954C141.749 218.816 142.042 218.745 142.339 218.745C142.637 218.745 142.93 218.816 143.194 218.954L147.902 221.668Z" fill="#FFDE63" stroke="#151E29" stroke-linejoin="round"></path><path d="M126.21 254.138L135.749 248.593C136.044 248.425 136.174 248.197 136.137 247.976L135.364 244.078C135.362 243.899 135.242 243.72 135.005 243.582L130.297 240.867C130.033 240.73 129.74 240.658 129.442 240.658C129.145 240.658 128.852 240.73 128.588 240.867L119.899 245.915C119.668 246.046 119.55 246.217 119.543 246.391L118.794 250.441C118.699 250.689 118.822 250.959 119.155 251.156L124.327 254.138C124.619 254.286 124.941 254.363 125.268 254.363C125.596 254.363 125.918 254.286 126.21 254.138Z" fill="#7AD1FF"></path><path d="M119.155 250.064C118.967 250.171 118.847 250.303 118.794 250.441M118.794 250.441C118.699 250.689 118.822 250.959 119.155 251.156L124.327 254.138C124.619 254.286 124.941 254.363 125.268 254.363C125.596 254.363 125.918 254.286 126.21 254.138L135.749 248.593C136.044 248.425 136.174 248.197 136.137 247.976L135.364 244.078C135.362 243.899 135.242 243.72 135.005 243.582L130.297 240.867C130.033 240.73 129.74 240.658 129.442 240.658C129.145 240.658 128.852 240.73 128.588 240.867L119.899 245.915C119.668 246.046 119.55 246.217 119.543 246.391L118.794 250.441Z" stroke="#151E29"></path><path d="M135.005 243.582C135.483 243.861 135.483 244.303 135.005 244.576L126.322 249.623C126.056 249.758 125.762 249.828 125.464 249.828C125.166 249.828 124.873 249.758 124.607 249.623L119.899 246.909C119.426 246.63 119.42 246.187 119.899 245.915L128.588 240.867C128.852 240.73 129.145 240.658 129.442 240.658C129.74 240.658 130.033 240.73 130.297 240.867L135.005 243.582Z" fill="#F5F7FA" stroke="#151E29"></path><path d="M58.7319 243.318V228.542C58.7319 231.919 60.9802 235.341 65.4767 237.879V252.655C60.9352 250.072 58.7319 246.695 58.7319 243.318Z" fill="#7AD1FF" stroke="#151E29" stroke-linejoin="round"></path><path d="M140.656 259.784C140.128 259.478 140.128 258.984 140.656 258.679V258.679C141.185 258.374 142.042 258.374 142.57 258.679L145.294 260.251C148.38 262.033 153.657 260.771 153.657 258.251L153.657 256.028C153.657 255.596 154.263 255.246 155.01 255.246V255.246C155.758 255.246 156.364 255.596 156.364 256.028L156.364 258.251C156.364 260.771 161.641 262.033 164.727 260.251L167.451 258.679C167.979 258.374 168.836 258.374 169.365 258.679V258.679C169.893 258.984 169.893 259.478 169.365 259.784L166.64 261.356C163.554 263.138 165.74 266.184 170.105 266.184L173.957 266.184C174.705 266.184 175.31 266.534 175.31 266.966V266.966C175.31 267.397 174.705 267.747 173.957 267.747H170.105C165.741 267.747 163.555 270.793 166.641 272.575L169.365 274.147C169.893 274.452 169.893 274.947 169.365 275.252V275.252C168.836 275.557 167.979 275.557 167.451 275.252L164.727 273.68C161.641 271.898 156.364 273.16 156.364 275.679L156.364 277.903C156.364 278.334 155.758 278.684 155.01 278.684V278.684C154.263 278.684 153.657 278.334 153.657 277.903L153.657 275.679C153.657 273.16 148.38 271.898 145.294 273.68L142.57 275.252C142.042 275.557 141.185 275.557 140.656 275.252V275.252C140.128 274.947 140.128 274.452 140.656 274.147L143.38 272.575C146.466 270.793 144.281 267.747 139.916 267.747H136.064C135.317 267.747 134.711 267.397 134.711 266.965V266.965C134.711 266.534 135.317 266.184 136.064 266.184H139.916C144.281 266.184 146.466 263.138 143.38 261.356L140.656 259.784Z" fill="#7AD1FF"></path><path d="M167.138 259.812C160.564 256.017 149.906 256.017 143.332 259.812L142.883 260.071C136.309 263.866 136.309 270.019 142.883 273.814C149.456 277.609 160.115 277.609 166.688 273.814L167.138 273.555C173.712 269.76 173.712 263.607 167.138 259.812Z" fill="#A3E2FF" stroke="#7AD1FF"></path><path d="M145.914 250.526C151.026 247.575 159.315 247.575 164.427 250.526C166.824 251.91 168.097 253.697 168.246 255.509L168.245 265.899C168.096 267.711 166.823 269.498 164.426 270.882L164.076 271.084C158.964 274.035 150.676 274.035 145.564 271.084C143.013 269.611 141.735 267.682 141.73 265.752L141.731 256.053C141.739 254.125 143.017 252.199 145.565 250.728L145.914 250.526Z" fill="#FFDE63" stroke="#151E29"></path><path d="M164.424 250.423C159.312 247.472 151.024 247.472 145.911 250.423L145.562 250.625C140.45 253.576 140.45 258.361 145.562 261.312C150.674 264.264 158.962 264.264 164.074 261.312L164.424 261.11C169.536 258.159 169.536 253.375 164.424 250.423Z" fill="#FFF4B5" stroke="#151E29"></path><path d="M154.988 256.104L167.189 257.847" stroke="#151E29" stroke-linecap="round"></path><rect width="27.8069" height="6.16413" rx="3.08207" transform="matrix(0.866044 0.499968 -0.866044 0.499967 184.155 234.324)" fill="#0056B3" stroke="#0056B3"></rect><path d="M186.659 233.283C185.185 232.432 182.795 232.432 181.32 233.283C180.631 233.681 180.264 234.194 180.219 234.715L180.219 237.139C180.17 237.731 180.537 238.333 181.32 238.786L190.852 244.289C192.327 245.14 194.717 245.14 196.191 244.289C196.923 243.866 197.291 243.313 197.296 242.759L197.296 240.315C197.291 239.761 196.923 239.208 196.191 238.786L186.659 233.283Z" fill="#7AD1FF" stroke="#151E29"></path><path d="M181.486 232.885C182.96 232.034 185.35 232.034 186.824 232.885L196.178 238.285C197.652 239.136 197.652 240.516 196.178 241.367C194.704 242.218 192.314 242.218 190.84 241.367L181.486 235.967C180.011 235.116 180.011 233.736 181.486 232.885Z" fill="#F5F7FA" stroke="#151E29"></path><rect width="27.8069" height="6.16413" rx="3.08207" transform="matrix(0.866044 0.499968 -0.866044 0.499967 174.523 240.863)" fill="#151E29" stroke="#151E29"></rect><path d="M186.54 245.322C185.066 244.471 182.675 244.471 181.201 245.322C180.512 245.72 180.145 246.233 180.1 246.754L180.1 249.177C180.051 249.77 180.417 250.372 181.201 250.824L190.733 256.327C192.207 257.178 194.598 257.178 196.072 256.327C196.804 255.905 197.172 255.352 197.177 254.798L197.177 252.354C197.172 251.8 196.804 251.247 196.072 250.824L186.54 245.322Z" fill="#F63C6E" stroke="#151E29"></path><path d="M181.366 244.924C182.841 244.073 185.231 244.073 186.705 244.924L196.059 250.324C197.533 251.175 197.533 252.555 196.059 253.406C194.585 254.257 192.195 254.257 190.72 253.406L181.366 248.006C179.892 247.155 179.892 245.775 181.366 244.924Z" fill="#FF668A" stroke="#151E29"></path><rect opacity="0.2" width="66.7233" height="66.7233" rx="11" transform="matrix(0.866044 0.499967 -0.866044 0.499967 102.557 79.262)" fill="#006FD6"></rect><rect width="74.8607" height="74.8607" rx="11" transform="matrix(0.866044 0.499967 -0.866044 0.499967 102.557 54.2458)" fill="#F5F7FA" stroke="#151E29" stroke-linejoin="round"></rect><path opacity="0.3" d="M80.9986 70.8806L86.8026 74.2386L90.9275 71.9019C91.7295 71.392 92.6601 71.1212 93.6105 71.1212C94.5608 71.1212 95.4914 71.392 96.2934 71.9019L108.157 78.8015C109.986 79.8305 112.016 80.453 114.107 80.6267C116.085 80.8741 118.094 80.674 119.984 80.0421C119.487 80.4358 119.123 80.9716 118.941 81.5785C118.758 82.1855 118.766 82.8351 118.962 83.4376C119.226 84.1868 119.636 84.8751 120.169 85.4642C120.701 86.0533 121.346 86.5312 122.065 86.8687L133.929 93.7684C135.717 94.827 135.754 95.8486 133.929 96.9072L129.731 99.3152L135.535 102.711L142.835 98.5862C145.245 97.1991 146.486 95.7382 146.486 94.2051C146.486 92.6719 145.281 91.2859 142.835 89.8988L130.862 82.926C129.147 81.9404 128.271 81.0636 128.198 80.297C128.125 79.5304 128.635 78.7285 129.95 77.8159L131.994 76.3917L126.409 73.1424L123.963 74.3117C122.634 75.038 121.133 75.3904 119.619 75.333C118.012 75.1801 116.462 74.6555 115.093 73.8001L103.156 66.8274C100.949 65.5023 98.4298 64.7851 95.8554 64.7473C93.1963 64.7556 90.5879 65.4733 88.2993 66.8274L80.9986 70.8806Z" fill="#006FD6" stroke="#006FD6" stroke-linejoin="round"></path><path d="M80.9985 54.2427L81.035 66.1428L86.8391 69.5377L86.8026 57.6375L80.9985 54.2427Z" fill="#0056B3" stroke="#0056B3" stroke-linejoin="round"></path><path fill-rule="evenodd" clip-rule="evenodd" d="M129.95 61.1056L129.95 61.1053L131.994 59.6816L132.031 71.6183L129.986 73.0054L129.986 72.9008L129.949 73.0052C128.781 73.8082 128.161 74.5752 128.161 75.2688V63.3695C128.161 62.5664 128.781 61.9089 129.949 61.1058L129.95 61.1056Z" fill="#0056B3"></path><path d="M129.95 61.1053L129.45 61.1067C129.449 60.9426 129.529 60.7887 129.664 60.695L129.95 61.1053ZM129.95 61.1056L130.45 61.1042C130.45 61.2767 130.362 61.4372 130.216 61.529L129.95 61.1056ZM131.994 59.6816L131.708 59.2713C131.861 59.1651 132.06 59.1523 132.225 59.2381C132.39 59.3239 132.493 59.4942 132.494 59.6801L131.994 59.6816ZM132.031 71.6183L132.531 71.6168C132.531 71.783 132.449 71.9387 132.311 72.032L132.031 71.6183ZM129.986 73.0054L130.267 73.4192C130.114 73.523 129.916 73.5339 129.753 73.4476C129.589 73.3613 129.487 73.1918 129.486 73.007L129.986 73.0054ZM129.986 72.9008L129.514 72.7356C129.594 72.5058 129.829 72.3673 130.069 72.4077C130.309 72.4481 130.485 72.6557 130.486 72.8992L129.986 72.9008ZM129.949 73.0052L130.421 73.1703C130.386 73.2705 130.32 73.357 130.233 73.4172L129.949 73.0052ZM128.661 75.2688C128.661 75.5449 128.437 75.7688 128.161 75.7688C127.885 75.7688 127.661 75.5449 127.661 75.2688H128.661ZM129.949 61.1058L129.666 60.6938C129.672 60.6899 129.678 60.6861 129.683 60.6825L129.949 61.1058ZM130.45 61.1039L130.45 61.1042L129.45 61.107L129.45 61.1067L130.45 61.1039ZM132.28 60.0919L130.236 61.5156L129.664 60.695L131.708 59.2713L132.28 60.0919ZM131.531 71.6198L131.494 59.6832L132.494 59.6801L132.531 71.6168L131.531 71.6198ZM129.706 72.5917L131.75 71.2046L132.311 72.032L130.267 73.4192L129.706 72.5917ZM130.486 72.8992L130.486 73.0039L129.486 73.007L129.486 72.9023L130.486 72.8992ZM129.478 72.84L129.514 72.7356L130.458 73.0659L130.421 73.1703L129.478 72.84ZM127.661 75.2688C127.661 74.7693 127.884 74.2971 128.226 73.8669C128.569 73.4354 129.059 73.0105 129.666 72.5931L130.233 73.4172C129.672 73.8029 129.268 74.1631 129.009 74.4892C128.748 74.8167 128.661 75.0748 128.661 75.2688H127.661ZM128.661 63.3695V75.2688H127.661V63.3695H128.661ZM130.233 61.5179C129.049 62.3318 128.661 62.8546 128.661 63.3695H127.661C127.661 62.2782 128.514 61.4861 129.666 60.6938L130.233 61.5179ZM130.216 61.529L130.215 61.5292L129.683 60.6825L129.684 60.6823L130.216 61.529Z" fill="#0056B3"></path><path d="M91.0733 67.073C91.8386 66.6135 92.7155 66.371 93.6104 66.371C94.5627 66.371 95.4945 66.6457 96.2933 67.1641V67.1078L108.303 74.0276L108.303 74.0114C110.119 75.0377 112.137 75.6537 114.217 75.8159C116.192 76.0571 118.197 75.8707 120.094 75.2687V63.332C118.203 63.9639 116.195 64.164 114.217 63.9166C112.125 63.7429 110.096 63.1204 108.267 62.0914V62.1274L95.8967 54.8767V55.0374C95.1914 54.6748 94.4078 54.4841 93.6104 54.4841C92.703 54.4841 91.8135 54.7311 91.0369 55.1972L91.0369 55.1917L86.8024 57.6375L86.8389 69.5377L91.0734 67.0919L91.0733 67.073Z" fill="#0056B3" stroke="#0056B3" stroke-linejoin="round"></path><path fill-rule="evenodd" clip-rule="evenodd" d="M119.072 66.7275V78.6268C119.332 79.378 119.741 80.0692 120.274 80.6588C120.807 81.2483 121.454 81.7239 122.175 82.058L122.211 82.0782L122.211 82.0949L134.075 88.9941L134.075 88.9575C134.951 89.505 135.425 90.0167 135.425 90.5277V78.6266C135.425 78.1156 134.951 77.6057 134.075 77.0581L134.038 77.0802L134.038 77.0574L122.193 70.2056L122.175 70.1587C121.456 69.8211 120.811 69.3432 120.278 68.7541C119.746 68.165 119.335 67.4767 119.072 66.7275Z" fill="#0056B3"></path><path d="M119.072 78.6269L118.599 78.7904C118.581 78.7378 118.572 78.6825 118.572 78.6269H119.072ZM119.072 66.7275H118.572C118.572 66.4839 118.747 66.2757 118.987 66.2347C119.227 66.1936 119.462 66.3317 119.543 66.5615L119.072 66.7275ZM120.274 80.6588L119.903 80.9941H119.903L120.274 80.6588ZM122.175 82.058L122.385 81.6043C122.396 81.6096 122.408 81.6153 122.419 81.6215L122.175 82.058ZM122.211 82.0782L122.455 81.6417C122.612 81.7298 122.71 81.8961 122.711 82.0767L122.211 82.0782ZM122.211 82.0949L121.96 82.5272C121.806 82.4379 121.712 82.274 121.711 82.0965L122.211 82.0949ZM134.075 88.9941L134.575 88.9926C134.575 89.1718 134.48 89.3375 134.325 89.4271C134.169 89.5167 133.978 89.5164 133.823 89.4263L134.075 88.9941ZM134.075 88.9575L133.575 88.959C133.574 88.777 133.672 88.609 133.832 88.5206C133.991 88.4321 134.185 88.437 134.34 88.5335L134.075 88.9575ZM135.925 90.5277C135.925 90.8039 135.701 91.0277 135.425 91.0277C135.149 91.0277 134.925 90.8039 134.925 90.5277H135.925ZM134.074 77.0581L133.814 76.6314C133.975 76.5327 134.179 76.5338 134.339 76.6341L134.074 77.0581ZM134.038 77.0802L134.299 77.5069C134.145 77.601 133.952 77.6048 133.794 77.5167C133.637 77.4285 133.539 77.2623 133.538 77.0817L134.038 77.0802ZM134.038 77.0574L134.289 76.6246C134.443 76.7137 134.538 76.878 134.538 77.0559L134.038 77.0574ZM122.193 70.2056L121.943 70.6384C121.845 70.5819 121.77 70.494 121.728 70.3891L122.193 70.2056ZM122.175 70.1587L122.387 69.7061C122.503 69.7603 122.593 69.8565 122.64 69.9751L122.175 70.1587ZM120.278 68.7541L119.907 69.0895V69.0895L120.278 68.7541ZM118.572 78.6269V66.7275H119.572V78.6269H118.572ZM119.903 80.9941C119.325 80.3548 118.881 79.6051 118.599 78.7904L119.544 78.4633C119.782 79.1508 120.157 79.7837 120.645 80.3234L119.903 80.9941ZM121.965 82.5117C121.182 82.1494 120.481 81.6337 119.903 80.9941L120.645 80.3234C121.133 80.863 121.724 81.2984 122.385 81.6043L121.965 82.5117ZM121.967 82.5147L121.931 82.4945L122.419 81.6215L122.455 81.6417L121.967 82.5147ZM121.711 82.0965L121.711 82.0798L122.711 82.0767L122.711 82.0934L121.711 82.0965ZM133.823 89.4263L121.96 82.5272L122.462 81.6627L134.326 88.5619L133.823 89.4263ZM134.575 88.956L134.575 88.9926L133.575 88.9956L133.575 88.959L134.575 88.956ZM134.34 88.5335C134.797 88.8194 135.18 89.1144 135.454 89.4267C135.729 89.74 135.925 90.1084 135.925 90.5277H134.925C134.925 90.4361 134.884 90.2931 134.702 90.0859C134.52 89.8778 134.228 89.6431 133.81 89.3815L134.34 88.5335ZM134.925 90.5277V78.6266H135.925V90.5277H134.925ZM134.925 78.6266C134.925 78.5352 134.884 78.3927 134.703 78.186C134.52 77.9782 134.228 77.7439 133.809 77.4821L134.339 76.6341C134.797 76.9199 135.18 77.2143 135.454 77.5261C135.729 77.839 135.925 78.207 135.925 78.6266H134.925ZM134.335 77.4848L134.299 77.5069L133.778 76.6535L133.814 76.6314L134.335 77.4848ZM134.538 77.0559L134.538 77.0787L133.538 77.0817L133.538 77.059L134.538 77.0559ZM122.444 69.7728L134.289 76.6246L133.788 77.4903L121.943 70.6384L122.444 69.7728ZM122.64 69.9751L122.658 70.0221L121.728 70.3891L121.71 70.3422L122.64 69.9751ZM120.649 68.4188C121.137 68.9588 121.728 69.3968 122.387 69.7061L121.962 70.6113C121.183 70.2455 120.484 69.7277 119.907 69.0895L120.649 68.4188ZM119.543 66.5615C119.785 67.2479 120.161 67.8787 120.649 68.4188L119.907 69.0895C119.33 68.4514 118.886 67.7055 118.6 66.8936L119.543 66.5615Z" fill="#0056B3"></path><path d="M129.84 82.6426L129.877 94.5428L135.681 97.9011L135.644 86.0009L129.84 82.6426Z" fill="#0056B3" stroke="#0056B3" stroke-linejoin="round"></path><path fill-rule="evenodd" clip-rule="evenodd" d="M142.799 81.8765V81.876C145.208 80.4889 146.376 79.028 146.449 77.4949V89.396C146.449 90.9213 145.221 92.3733 142.836 93.7541L142.836 93.7765L135.681 97.9014L135.644 86.0012L142.799 81.8765Z" fill="#0056B3"></path><path d="M142.799 81.876H142.299C142.299 81.6972 142.394 81.5319 142.549 81.4427L142.799 81.876ZM142.799 81.8765H143.299C143.299 82.0553 143.203 82.2204 143.049 82.3097L142.799 81.8765ZM146.449 77.4949L145.95 77.4711C145.963 77.1999 146.19 76.9886 146.461 76.995C146.733 77.0015 146.949 77.2234 146.949 77.4949H146.449ZM142.836 93.7541L142.336 93.7556C142.335 93.5767 142.43 93.4111 142.585 93.3214L142.836 93.7541ZM142.836 93.7765L143.336 93.775C143.336 93.9543 143.241 94.1201 143.085 94.2097L142.836 93.7765ZM135.681 97.9014L135.931 98.3346C135.776 98.4236 135.586 98.4237 135.432 98.3347C135.277 98.2458 135.182 98.0812 135.181 97.9029L135.681 97.9014ZM135.644 86.0012L135.144 86.0028C135.144 85.8235 135.239 85.6576 135.395 85.5681L135.644 86.0012ZM143.299 81.876V81.8765H142.299V81.876H143.299ZM146.949 77.5187C146.863 79.3153 145.5 80.8977 143.048 82.3093L142.549 81.4427C144.916 80.0801 145.889 78.7408 145.95 77.4711L146.949 77.5187ZM145.949 89.396V77.4949H146.949V89.396H145.949ZM142.585 93.3214C144.947 91.9543 145.949 90.631 145.949 89.396H146.949C146.949 91.2116 145.495 92.7924 143.086 94.1868L142.585 93.3214ZM142.336 93.778L142.336 93.7556L143.336 93.7526L143.336 93.775L142.336 93.778ZM135.431 97.4682L142.586 93.3433L143.085 94.2097L135.931 98.3346L135.431 97.4682ZM136.144 85.9997L136.181 97.8999L135.181 97.9029L135.144 86.0028L136.144 85.9997ZM143.049 82.3097L135.894 86.4344L135.395 85.5681L142.549 81.4433L143.049 82.3097Z" fill="#0056B3"></path><path d="M80.9986 54.2436L86.8026 57.6016L90.9275 55.2649C91.7295 54.7551 92.6601 54.4842 93.6105 54.4842C94.5608 54.4842 95.4914 54.7551 96.2934 55.2649L108.157 62.1646C109.986 63.1935 112.016 63.8161 114.107 63.9898C116.085 64.2372 118.094 64.037 119.984 63.4051C119.487 63.7989 119.123 64.3346 118.941 64.9416C118.758 65.5485 118.766 66.1981 118.962 66.8006C119.226 67.5498 119.636 68.2381 120.169 68.8272C120.701 69.4163 121.346 69.8942 122.065 70.2317L133.929 77.1314C135.717 78.19 135.754 79.2116 133.929 80.2702L129.731 82.6782L135.535 86.0737L142.835 81.9492C145.245 80.5621 146.486 79.1013 146.486 77.5681C146.486 76.035 145.281 74.649 142.835 73.2618L130.862 66.2891C129.147 65.3035 128.271 64.4266 128.198 63.66C128.125 62.8934 128.635 62.0915 129.95 61.1789L131.994 59.7548L126.409 56.5055L123.963 57.6747C122.634 58.401 121.133 58.7534 119.619 58.696C118.012 58.5432 116.462 58.0185 115.093 57.1632L103.156 50.1904C100.949 48.8653 98.4298 48.1481 95.8554 48.1104C93.1963 48.1186 90.5879 48.8363 88.2993 50.1904L80.9986 54.2436Z" fill="#F5F7FA" stroke="#0056B3" stroke-linejoin="round"></path><path opacity="0.3" d="M62.0758 86.0987C59.8351 87.4086 58.6285 88.7537 58.6285 90.167C58.6285 91.5804 59.6627 92.9944 62.0758 94.3044L73.3824 100.887C74.9337 101.784 75.7955 102.577 75.9678 103.301C76.1402 104.025 75.4852 104.853 74.2442 105.715L72.314 107.025L77.6224 110.091L79.8977 108.989C81.1713 108.318 82.5959 107.987 84.0347 108.024C85.5328 108.185 86.9727 108.691 88.2402 109.506L99.5473 116.09C101.694 117.354 104.14 118.021 106.631 118.021C109.122 118.021 111.569 117.354 113.715 116.09L120.61 112.195L115.128 108.989L111.095 111.334C110.345 111.816 109.471 112.072 108.579 112.072C107.687 112.072 106.813 111.816 106.062 111.334L94.8586 104.818C93.1285 103.858 91.2125 103.283 89.24 103.13C87.3695 102.9 85.4709 103.1 83.6896 103.715C84.1467 103.326 84.4811 102.813 84.6524 102.237C84.8237 101.662 84.8247 101.051 84.6549 100.475C84.1578 99.0452 83.1176 97.868 81.7594 97.1995L70.5558 90.6838C68.8322 89.7185 68.8322 88.7539 70.5558 87.7886L74.6234 85.4439L69.1079 82.2727L62.0758 86.0987Z" fill="#006FD6" stroke="#006FD6" stroke-linejoin="round"></path><path fill-rule="evenodd" clip-rule="evenodd" d="M70.2801 71.16L70.3144 82.3206L74.3821 80.011L74.625 79.8799L74.625 68.8703L74.3476 68.7729L70.2801 71.0825V71.0138C69.4873 71.5653 69.0733 72.0141 69.0733 72.4967V83.7339C69.0733 83.2513 69.4873 82.8026 70.2801 82.32V71.16Z" fill="#0056B3"></path><path d="M70.2801 71.16H69.7801C69.7801 70.8841 70.0035 70.6604 70.2794 70.66C70.5552 70.6596 70.7793 70.8826 70.7801 71.1585L70.2801 71.16ZM70.3144 82.3206L70.5612 82.7554C70.4067 82.8432 70.2172 82.8423 70.0635 82.7531C69.9097 82.6639 69.8149 82.4999 69.8144 82.3221L70.3144 82.3206ZM74.3821 80.011L74.1352 79.5761L74.1447 79.5709L74.3821 80.011ZM74.625 79.8799L75.125 79.8799C75.125 80.0637 75.0242 80.2327 74.8624 80.32L74.625 79.8799ZM74.625 68.8703L74.7906 68.3985C74.9909 68.4689 75.125 68.658 75.125 68.8703L74.625 68.8703ZM74.3476 68.7729L74.1008 68.3381C74.2264 68.2668 74.3769 68.2533 74.5133 68.3012L74.3476 68.7729ZM70.2801 71.0825L70.527 71.5173C70.3722 71.6051 70.1824 71.6041 70.0286 71.5146C69.8747 71.425 69.7801 71.2605 69.7801 71.0825H70.2801ZM70.2801 71.0138L69.9946 70.6033C70.1474 70.497 70.3467 70.4844 70.5117 70.5706C70.6767 70.6568 70.7801 70.8276 70.7801 71.0138H70.2801ZM69.5733 83.7339C69.5733 84.01 69.3494 84.2339 69.0733 84.2339C68.7971 84.2339 68.5733 84.01 68.5733 83.7339H69.5733ZM70.2801 82.32H70.7801C70.7801 82.4945 70.6892 82.6563 70.5401 82.7471L70.2801 82.32ZM70.7801 71.1585L70.8144 82.3191L69.8144 82.3221L69.7801 71.1615L70.7801 71.1585ZM70.0675 81.8858L74.1352 79.5762L74.629 80.4458L70.5612 82.7554L70.0675 81.8858ZM74.1447 79.5709L74.3876 79.4399L74.8624 80.32L74.6195 80.451L74.1447 79.5709ZM74.125 79.8799L74.125 68.8703L75.125 68.8703L75.125 79.8799L74.125 79.8799ZM74.4594 69.3421L74.182 69.2447L74.5133 68.3012L74.7906 68.3985L74.4594 69.3421ZM74.5945 69.2077L70.527 71.5173L70.0332 70.6477L74.1008 68.3381L74.5945 69.2077ZM69.7801 71.0825V71.0138H70.7801V71.0825H69.7801ZM70.5657 71.4242C70.1815 71.6914 69.9225 71.9117 69.7624 72.1025C69.6065 72.2883 69.5733 72.4111 69.5733 72.4967H68.5733C68.5733 72.0996 68.747 71.7568 68.9963 71.4597C69.2415 71.1676 69.5858 70.8877 69.9946 70.6033L70.5657 71.4242ZM69.5733 72.4967V83.7339H68.5733V72.4967H69.5733ZM68.5733 83.7339C68.5733 83.3369 68.7469 82.9921 69.0022 82.6987C69.2531 82.4104 69.6039 82.1462 70.0201 81.8929L70.5401 82.7471C70.1635 82.9763 69.9108 83.1778 69.7565 83.3552C69.6066 83.5274 69.5733 83.6482 69.5733 83.7339H68.5733ZM69.7801 82.32V71.16H70.7801V82.32H69.7801Z" fill="#0056B3"></path><path d="M58.7316 73.6682V84.8027C58.7316 86.1611 59.8022 87.4866 62.0752 88.7452L73.3479 95.4692V95.4895C74.8992 96.3858 75.761 97.1777 75.9333 97.9016V86.6644C75.761 85.9405 74.8992 85.1469 73.3479 84.2506L62.1789 77.5632C59.8348 76.3911 58.7316 75.0471 58.7316 73.6682Z" fill="#0056B3" stroke="#0056B3" stroke-linejoin="round"></path><path d="M84.7238 95.9036V84.8027C84.7286 85.2479 84.6354 85.6886 84.4507 86.0938C84.266 86.4989 83.9942 86.8591 83.655 87.1475V98.3847C84.0049 98.0752 84.2824 97.6927 84.4671 97.2636C84.6518 96.8346 84.7395 96.3705 84.7238 95.9036V95.9036Z" fill="#0056B3" stroke="#0056B3" stroke-linejoin="round"></path><path d="M72.2793 90.4216L72.3138 101.66L77.6226 104.728L77.5881 93.4897L72.2793 90.4216Z" fill="#0056B3" stroke="#0056B3" stroke-linejoin="round"></path><path d="M79.8633 92.3519C81.1369 91.6815 82.5615 91.3494 84.0003 91.3869C85.3031 91.5263 86.5619 91.9275 87.7016 92.5654V92.5177L99.5127 99.4533C101.661 100.728 104.116 101.396 106.614 101.384C109.1 101.39 111.542 100.722 113.681 99.4534L120.437 95.558L120.472 106.796L113.715 110.691L113.715 110.67L113.681 110.691C111.542 111.959 109.101 112.627 106.614 112.621C104.116 112.633 101.661 111.966 99.5128 110.691V110.671L88.2402 104.142L87.7016 103.824V103.804C86.5619 103.166 85.3031 102.764 84.0003 102.624C82.5744 102.587 81.1626 102.914 79.8978 103.572L79.8978 103.59L77.6226 104.727L77.5882 93.4895L79.8633 92.3519Z" fill="#0056B3" stroke="#0056B3" stroke-linejoin="round"></path><path d="M62.0758 69.4617C59.8351 70.7717 58.6285 72.1167 58.6285 73.5301C58.6285 74.9434 59.6627 76.3575 62.0758 77.6674L73.3824 84.2505C74.9337 85.1468 75.7955 85.9403 75.9678 86.6643C76.1402 87.3882 75.4852 88.2162 74.2442 89.078L72.314 90.3875L77.6224 93.4544L79.8977 92.3519C81.1713 91.6815 82.5959 91.3499 84.0347 91.3874C85.5328 91.5477 86.9727 92.0542 88.2402 92.8686L99.5473 99.4534C101.694 100.718 104.14 101.384 106.631 101.384C109.122 101.384 111.569 100.718 113.715 99.4534L120.61 95.5584L115.128 92.3519L111.095 94.6966C110.345 95.1791 109.471 95.4355 108.579 95.4355C107.687 95.4355 106.813 95.1791 106.062 94.6966L94.8586 88.1808C93.1285 87.2212 91.2125 86.646 89.24 86.4926C87.3695 86.2628 85.4709 86.4629 83.6896 87.0783C84.1467 86.6894 84.4811 86.1756 84.6524 85.6005C84.8237 85.0253 84.8247 84.4137 84.6549 83.8381C84.1578 82.4082 83.1176 81.231 81.7594 80.5626L70.5558 74.0468C68.8322 73.0816 68.8322 72.1169 70.5558 71.1517L74.6234 68.8069L69.1078 65.6357L62.0758 69.4617Z" fill="#F5F7FA" stroke="#0056B3" stroke-linejoin="round"></path><rect opacity="0.18" width="98.7818" height="98.7818" rx="11" transform="matrix(0.866044 0.499967 -0.866044 0.499967 363.873 92.2002)" fill="#006FD6"></rect><rect width="98.7818" height="98.7818" rx="11" transform="matrix(0.866044 0.499967 -0.866044 0.499967 363.873 65.7134)" fill="#7AD1FF" stroke="#F5F7FA" stroke-linejoin="round"></rect><path opacity="0.3" fill-rule="evenodd" clip-rule="evenodd" d="M354.947 106.016C354.804 105.933 354.627 105.933 354.484 106.016L319.691 126.231C319.549 126.314 319.461 126.467 319.461 126.632C319.461 126.797 319.55 126.95 319.693 127.032L338.001 137.599C338.145 137.682 338.322 137.681 338.465 137.598L373.257 117.383C373.4 117.3 373.488 117.147 373.487 116.982C373.487 116.817 373.399 116.665 373.256 116.582L354.947 106.016Z" fill="#006FD6"></path><path fill-rule="evenodd" clip-rule="evenodd" d="M412.861 62.2104L400.792 69.2187L400.578 145.55L400.606 145.539L400.588 145.549C400.64 146.108 400.545 146.671 400.313 147.182C400.08 147.692 399.717 148.133 399.261 148.46L411.319 141.451C411.777 141.124 412.141 140.681 412.374 140.169C412.607 139.656 412.701 139.091 412.646 138.531L412.647 138.531L412.861 62.2104Z" fill="#F5F7FA"></path><path d="M400.792 69.2187L400.541 68.7863C400.387 68.8755 400.292 69.0396 400.292 69.2173L400.792 69.2187ZM412.861 62.2104L413.361 62.2119C413.361 62.0327 413.266 61.8671 413.111 61.7775C412.956 61.6879 412.765 61.6881 412.61 61.7781L412.861 62.2104ZM400.578 145.55L400.078 145.548C400.077 145.714 400.158 145.868 400.295 145.962C400.431 146.055 400.605 146.076 400.759 146.016L400.578 145.55ZM400.606 145.539L400.857 145.971C401.083 145.84 401.17 145.557 401.056 145.322C400.943 145.087 400.668 144.978 400.425 145.073L400.606 145.539ZM400.588 145.549L400.336 145.117C400.168 145.215 400.072 145.402 400.09 145.596L400.588 145.549ZM400.313 147.182L400.768 147.389H400.768L400.313 147.182ZM399.261 148.46L398.97 148.053C398.753 148.209 398.696 148.507 398.841 148.731C398.986 148.955 399.281 149.026 399.512 148.892L399.261 148.46ZM411.319 141.451L411.571 141.884C411.584 141.876 411.598 141.867 411.61 141.858L411.319 141.451ZM412.374 140.169L411.919 139.962L412.374 140.169ZM412.646 138.531L412.342 138.135C412.205 138.24 412.132 138.408 412.149 138.58L412.646 138.531ZM412.647 138.531L412.951 138.927C413.074 138.833 413.146 138.687 413.147 138.532L412.647 138.531ZM401.043 69.6511L413.112 62.6428L412.61 61.7781L400.541 68.7863L401.043 69.6511ZM401.078 145.551L401.292 69.2201L400.292 69.2173L400.078 145.548L401.078 145.551ZM400.425 145.073L400.397 145.084L400.759 146.016L400.787 146.005L400.425 145.073ZM400.839 145.982L400.857 145.971L400.354 145.107L400.336 145.117L400.839 145.982ZM400.768 147.389C401.037 146.799 401.146 146.148 401.086 145.503L400.09 145.596C400.134 146.068 400.054 146.543 399.858 146.974L400.768 147.389ZM399.552 148.866C400.079 148.488 400.499 147.979 400.768 147.389L399.858 146.974C399.661 147.405 399.355 147.777 398.97 148.053L399.552 148.866ZM411.068 141.019L399.01 148.027L399.512 148.892L411.571 141.884L411.068 141.019ZM411.919 139.962C411.722 140.395 411.415 140.768 411.028 141.045L411.61 141.858C412.14 141.479 412.56 140.968 412.829 140.375L411.919 139.962ZM412.149 138.58C412.195 139.052 412.115 139.529 411.919 139.962L412.829 140.375C413.098 139.783 413.207 139.13 413.144 138.483L412.149 138.58ZM412.342 138.134L412.342 138.135L412.951 138.928L412.951 138.927L412.342 138.134ZM412.361 62.209L412.147 138.529L413.147 138.532L413.361 62.2119L412.361 62.209Z" fill="#151E29"></path><path fill-rule="evenodd" clip-rule="evenodd" d="M313.953 1.42606L301.895 8.43436C302.409 8.20183 302.976 8.10894 303.537 8.1653C304.099 8.22166 304.636 8.42531 305.094 8.7554L308.952 10.9637L396.255 61.3653L408.324 54.357L317.196 1.73633L317.17 1.75128L317.163 1.7471C316.704 1.41506 316.165 1.2105 315.601 1.15412C315.037 1.09775 314.469 1.1915 313.953 1.42606Z" fill="#F5F7FA"></path><path d="M301.895 8.43436L301.643 8.00207L302.1 8.88997L301.895 8.43436ZM313.953 1.42606L313.746 0.97091L313.723 0.981233L313.702 0.993764L313.953 1.42606ZM303.537 8.1653L303.587 7.6678L303.587 7.6678L303.537 8.1653ZM305.094 8.7554L304.801 9.16101L304.823 9.17633L304.845 9.18934L305.094 8.7554ZM308.952 10.9637L309.202 10.5307L309.2 10.5297L308.952 10.9637ZM396.255 61.3653L396.005 61.7983L396.256 61.9431L396.506 61.7977L396.255 61.3653ZM408.324 54.357L408.575 54.7894L409.322 54.3558L408.574 53.924L408.324 54.357ZM317.196 1.73633L317.446 1.30333L317.195 1.15844L316.944 1.3041L317.196 1.73633ZM317.17 1.75128L316.915 2.1813L317.167 2.33115L317.421 2.1835L317.17 1.75128ZM317.163 1.7471L316.87 2.15224L316.888 2.16554L316.908 2.17711L317.163 1.7471ZM315.601 1.15412L315.551 1.65164L315.601 1.15412ZM302.146 8.86665L314.204 1.85835L313.702 0.993764L301.643 8.00207L302.146 8.86665ZM303.587 7.6678C302.938 7.60266 302.283 7.71002 301.689 7.97875L302.1 8.88997C302.535 8.69363 303.013 8.61523 303.487 8.6628L303.587 7.6678ZM305.386 8.34979C304.857 7.96834 304.236 7.73294 303.587 7.6678L303.487 8.6628C303.961 8.71037 304.415 8.88228 304.801 9.16101L305.386 8.34979ZM309.2 10.5297L305.342 8.32146L304.845 9.18934L308.703 11.3976L309.2 10.5297ZM396.505 60.9323L309.202 10.5307L308.702 11.3967L396.005 61.7983L396.505 60.9323ZM408.073 53.9247L396.004 60.9329L396.506 61.7977L408.575 54.7894L408.073 53.9247ZM316.946 2.16933L408.074 54.79L408.574 53.924L317.446 1.30333L316.946 2.16933ZM317.421 2.1835L317.447 2.16855L316.944 1.3041L316.919 1.31906L317.421 2.1835ZM316.908 2.17711L316.915 2.1813L317.425 1.32126L317.418 1.31708L316.908 2.17711ZM315.551 1.65164C316.027 1.69924 316.482 1.87194 316.87 2.15224L317.456 1.34195C316.925 0.958174 316.302 0.721762 315.651 0.656605L315.551 1.65164ZM314.16 1.8812C314.595 1.68321 315.075 1.60404 315.551 1.65164L315.651 0.656605C314.999 0.591451 314.342 0.699799 313.746 0.97091L314.16 1.8812Z" fill="#151E29"></path><path d="M396.254 61.3654C397.58 62.2214 398.683 63.3796 399.473 64.7448C400.264 66.1101 400.719 67.6436 400.802 69.219L400.588 145.55C400.588 148.439 398.533 149.594 396.008 148.139L304.88 95.5292C303.557 94.6706 302.456 93.5119 301.665 92.1472C300.875 90.7825 300.418 89.2505 300.332 87.6759L300.557 11.3554C300.557 8.46651 302.611 7.30033 305.126 8.75547L396.254 61.3654Z" fill="#A3E2FF" stroke="#151E29"></path><mask id="mask0_1385_1670" style="mask-type:alpha" maskUnits="userSpaceOnUse" x="299" y="7" width="103" height="143"><path d="M396.254 61.3652C397.58 62.2212 398.683 63.3793 399.473 64.7446C400.264 66.1098 400.719 67.6433 400.802 69.2188L400.588 145.55C400.588 148.439 398.533 149.594 396.008 148.139L304.88 95.529C303.557 94.6704 302.456 93.5117 301.665 92.1469C300.875 90.7822 300.418 89.2502 300.332 87.6756L300.557 11.3552C300.557 8.46627 302.611 7.30008 305.126 8.75523L396.254 61.3652Z" fill="#F5F7FA" stroke="black"></path></mask><g mask="url(#mask0_1385_1670)"><path d="M384.819 52.3751L307.341 97.1028M404.85 63.9391L327.372 108.667M424.881 75.5031L347.404 120.231M444.912 87.0671L367.435 131.795M449.448 107.577L349.292 49.7566M433.952 116.522L333.796 58.7021M418.457 125.468L318.301 67.6477M402.961 134.413L302.805 76.5932M364.787 40.811L287.31 85.5388L387.466 143.359L464.943 98.6311L364.787 40.811Z" stroke="#E6F8FF"></path><path d="M396.254 61.3652C397.58 62.2212 398.683 63.3793 399.473 64.7446C400.264 66.1098 400.719 67.6433 400.802 69.2188L400.588 145.55C400.588 148.439 398.533 149.594 396.008 148.139L304.88 95.529C303.557 94.6704 302.456 93.5117 301.665 92.1469C300.875 90.7822 300.418 89.2502 300.332 87.6756L300.557 11.3552C300.557 8.46627 302.611 7.30008 305.126 8.75523L396.254 61.3652Z" stroke="#151E29"></path><path d="M396.254 61.3652C397.58 62.2212 398.683 63.3793 399.473 64.7446C400.264 66.1098 400.719 67.6433 400.802 69.2188L400.588 145.55C400.588 148.439 398.533 149.594 396.008 148.139L304.88 95.529C303.557 94.6704 302.456 93.5117 301.665 92.1469C300.875 90.7822 300.418 89.2502 300.332 87.6756L300.557 11.3552C300.557 8.46627 302.611 7.30008 305.126 8.75523L396.254 61.3652Z" stroke="#151E29" stroke-opacity="0.2"></path></g><path d="M400.829 80.2703L412.85 73.3315" stroke="#F5F7FA"></path><path d="M412.871 73.332L400.829 80.2708L400.802 69.2188C400.719 67.6434 400.264 66.1099 399.473 64.7447C398.683 63.3794 397.58 62.2213 396.255 61.3652L408.324 54.3569C409.648 55.2142 410.75 56.3727 411.54 57.7377C412.331 59.1026 412.787 60.6355 412.871 62.2105V73.332Z" fill="#F5F7FA"></path><path d="M400.829 80.2708L400.329 80.272L400.331 81.1348L401.078 80.704L400.829 80.2708ZM412.871 73.332L413.121 73.7653L413.371 73.621V73.332H412.871ZM396.255 61.3652L396.004 60.9328C395.853 61.0202 395.759 61.1795 395.755 61.3534C395.751 61.5273 395.837 61.6908 395.983 61.7852L396.255 61.3652ZM408.324 54.3569L408.596 53.9372C408.438 53.8349 408.236 53.83 408.073 53.9245L408.324 54.3569ZM411.54 57.7377L411.108 57.9882L411.108 57.9882L411.54 57.7377ZM412.871 62.2105H413.371C413.371 62.2016 413.371 62.1927 413.37 62.1838L412.871 62.2105ZM400.802 69.2188L401.302 69.2176C401.302 69.2093 401.302 69.201 401.301 69.1926L400.802 69.2188ZM401.078 80.704L413.121 73.7653L412.622 72.8988L400.579 79.8376L401.078 80.704ZM396.506 61.7976L408.575 54.7893L408.073 53.9245L396.004 60.9328L396.506 61.7976ZM408.052 54.7766C409.31 55.591 410.357 56.6915 411.108 57.9882L411.973 57.4871C411.143 56.0538 409.986 54.8374 408.596 53.9372L408.052 54.7766ZM411.108 57.9882C411.858 59.2849 412.292 60.7411 412.372 62.2373L413.37 62.1838C413.282 60.5299 412.803 58.9204 411.973 57.4871L411.108 57.9882ZM401.301 69.1926C401.214 67.5382 400.736 65.9278 399.906 64.4941L399.041 64.9952C399.792 66.292 400.224 67.7486 400.303 69.2451L401.301 69.1926ZM399.906 64.4941C399.076 63.0604 397.918 61.8442 396.526 60.9452L395.983 61.7852C397.242 62.5983 398.29 63.6984 399.041 64.9952L399.906 64.4941ZM400.302 69.2201L400.329 80.272L401.329 80.2696L401.302 69.2176L400.302 69.2201ZM412.371 62.2105V73.332H413.371V62.2105H412.371Z" fill="#151E29"></path><path d="M396.255 61.3652L408.324 54.3569C409.648 55.2142 410.75 56.3727 411.54 57.7377C412.331 59.1026 412.787 60.6355 412.871 62.2105L400.802 69.2188C400.719 67.6434 400.264 66.1099 399.473 64.7447C398.683 63.3794 397.58 62.2213 396.255 61.3652Z" fill="#F5F7FA" stroke="#151E29" stroke-linejoin="round"></path><path fill-rule="evenodd" clip-rule="evenodd" d="M354.969 71.4891C354.803 71.3933 354.599 71.3936 354.433 71.4899L319.641 91.7049C319.476 91.8008 319.374 91.9774 319.375 92.1683C319.375 92.3592 319.477 92.5354 319.642 92.6308L337.951 103.198C338.117 103.293 338.321 103.293 338.487 103.197L373.279 82.9817C373.444 82.8858 373.546 82.7093 373.546 82.5184C373.545 82.3275 373.443 82.1512 373.278 82.0558L354.969 71.4891Z" fill="#018BFF" fill-opacity="0.2"></path><path d="M371.097 62.304L336.305 82.519L317.996 71.9523L352.788 51.7373L371.097 62.304Z" fill="#7AD1FF" stroke="#0056B3" stroke-linejoin="round"></path><path d="M371.097 62.3042L371.062 75.5794L336.27 95.7944L336.305 82.5192L371.097 62.3042Z" fill="#7AD1FF" stroke="#7AD1FF" stroke-linejoin="round"></path><path d="M336.305 82.5188L336.27 95.794L317.961 85.2157L317.996 71.9521L336.305 82.5188Z" fill="#F5F7FA" stroke="#0056B3" stroke-linejoin="round"></path><path d="M344.615 68.6702V72.0372C344.615 73.0396 343.955 74.0394 342.639 74.8034C339.992 76.3419 335.688 76.3419 333.022 74.8034C331.681 74.0264 331.013 73.0137 331.015 71.9984V68.6313C331.015 69.6466 331.683 70.662 333.022 71.4364C335.69 72.9749 339.995 72.9749 342.642 71.4364C343.955 70.6723 344.613 69.6725 344.615 68.6702Z" fill="#0056B3" stroke="#0056B3" stroke-linejoin="round"></path><path d="M342.6 65.865C345.265 67.4035 345.278 69.8978 342.631 71.4363C339.984 72.9748 335.68 72.9748 333.012 71.4363C330.344 69.8978 330.334 67.4035 332.981 65.865C335.628 64.3266 339.943 64.3266 342.6 65.865Z" fill="#F5F7FA" stroke="#0056B3" stroke-linejoin="round"></path><path d="M359.368 60.221V63.588C359.368 64.5903 358.707 65.5901 357.392 66.3542C354.745 67.8927 350.44 67.8927 347.775 66.3542C346.433 65.5772 345.765 64.5645 345.768 63.5492V60.1821C345.768 61.1974 346.436 62.2127 347.775 62.9872C350.443 64.5256 354.747 64.5256 357.394 62.9872C358.707 62.2231 359.365 61.2233 359.368 60.221Z" fill="#F5F7FA" stroke="#7AD1FF" stroke-linejoin="round"></path><path d="M357.353 57.4158C360.018 58.9543 360.031 61.4486 357.384 62.9871C354.737 64.5255 350.432 64.5255 347.764 62.9871C345.096 61.4486 345.086 58.9543 347.733 57.4158C350.38 55.8773 354.695 55.8773 357.353 57.4158Z" fill="#F5F7FA" stroke="#7AD1FF" stroke-linejoin="round"></path><path d="M359.247 56.0051L354.648 58.6773L336.339 48.1106L340.889 45.4673L359.247 56.0051Z" fill="#7AD1FF" stroke="#0056B3" stroke-linejoin="round"></path><path d="M359.266 55.9941L370.579 62.6761L354.613 71.9523L354.648 58.6771L359.266 55.9941Z" fill="#0056B3" stroke="#0056B3" stroke-linejoin="round"></path><path d="M354.648 58.677L354.613 71.9522L336.305 61.3739L336.34 48.1104L354.648 58.677Z" fill="#F5F7FA" stroke="#0056B3" stroke-linejoin="round"></path><path d="M397.473 51.8659C399.01 52.7538 399.018 54.1979 397.491 55.0851C395.963 55.9722 393.47 55.9729 391.933 55.0851C390.395 54.1972 390.387 52.7524 391.915 51.8652C393.443 50.9781 395.935 50.9781 397.473 51.8659Z" fill="#0056B3" stroke="#151E29" stroke-linejoin="round"></path><path d="M392.891 27.4747L392.894 52.8178C392.894 53.0854 393.07 53.3524 393.421 53.5566C394.126 53.9675 395.274 53.9675 395.984 53.5566C396.341 53.3498 396.52 53.0785 396.519 52.8074L396.516 27.4644C396.516 27.7354 396.339 28.0068 395.981 28.2135C395.271 28.6244 394.123 28.6244 393.418 28.2135C393.067 28.0093 392.892 27.7428 392.891 27.4747Z" fill="#F5F7FA" stroke="#151E29" stroke-linejoin="round"></path><path d="M392.888 27.4696C392.887 26.8685 393.697 26.379 394.699 26.3762C395.701 26.3734 396.515 26.8584 396.516 27.4595C396.518 28.0606 395.707 28.5501 394.705 28.5529C393.704 28.5557 392.89 28.0707 392.888 27.4696Z" fill="#F5F7FA" stroke="#151E29" stroke-linejoin="round"></path><path fill-rule="evenodd" clip-rule="evenodd" d="M377.579 82.3158C377.413 82.22 377.209 82.2203 377.043 82.3166L342.251 102.532C342.086 102.627 341.984 102.804 341.985 102.995C341.985 103.186 342.087 103.362 342.252 103.458L360.561 114.024C360.727 114.12 360.931 114.12 361.097 114.023L395.889 93.8084C396.054 93.7125 396.156 93.5359 396.155 93.345C396.155 93.1542 396.053 92.9779 395.888 92.8825L377.579 82.3158Z" fill="#018BFF" fill-opacity="0.2"></path><path d="M371.112 96.7681L336.319 116.983L318.011 106.416L352.803 86.2014L371.112 96.7681Z" fill="#7AD1FF" stroke="#0056B3" stroke-linejoin="round"></path><path d="M371.111 96.7681L371.076 110.043L336.284 130.258L336.319 116.983L371.111 96.7681Z" fill="#0056B3" stroke="#0056B3" stroke-linejoin="round"></path><path d="M336.319 116.983L336.284 130.258L317.976 119.68L318.01 106.417L336.319 116.983Z" fill="#F5F7FA" stroke="#0056B3" stroke-linejoin="round"></path><path d="M344.63 103.134V106.501C344.63 107.503 343.969 108.503 342.653 109.267C340.006 110.806 335.702 110.806 333.037 109.267C331.695 108.49 331.027 107.478 331.029 106.462V103.095C331.029 104.111 331.698 105.126 333.037 105.9C335.704 107.439 340.009 107.439 342.656 105.9C343.969 105.136 344.627 104.136 344.63 103.134Z" fill="#0056B3" stroke="#0056B3" stroke-linejoin="round"></path><path d="M342.615 100.329C345.28 101.868 345.293 104.362 342.646 105.9C339.999 107.439 335.694 107.439 333.026 105.9C330.358 104.362 330.348 101.868 332.995 100.329C335.642 98.7907 339.957 98.7907 342.615 100.329Z" fill="#F5F7FA" stroke="#0056B3" stroke-linejoin="round"></path><path d="M359.382 94.6851V98.0521C359.382 99.0545 358.722 100.054 357.406 100.818C354.759 102.357 350.454 102.357 347.789 100.818C346.448 100.041 345.779 99.0286 345.782 98.0133V94.6462C345.782 95.6615 346.45 96.6768 347.789 97.4513C350.457 98.9898 354.762 98.9898 357.409 97.4513C358.722 96.6872 359.38 95.6874 359.382 94.6851Z" fill="#F5F7FA" stroke="#7AD1FF" stroke-linejoin="round"></path><path d="M357.367 91.8799C360.032 93.4184 360.045 95.9127 357.398 97.4512C354.751 98.9897 350.447 98.9897 347.779 97.4512C345.111 95.9127 345.101 93.4184 347.748 91.8799C350.395 90.3415 354.71 90.3415 357.367 91.8799Z" fill="#F5F7FA" stroke="#7AD1FF" stroke-linejoin="round"></path><path d="M389.455 72.9263L354.662 93.1413L336.354 82.5747L371.146 62.3596L389.455 72.9263Z" fill="#7AD1FF" stroke="#0056B3" stroke-linejoin="round"></path><path d="M389.455 72.9263L389.42 86.2015L354.628 106.417L354.663 93.1413L389.455 72.9263Z" fill="#0056B3" stroke="#0056B3" stroke-linejoin="round"></path><path d="M354.662 93.1414L354.627 106.417L336.319 95.8383L336.354 82.5747L354.662 93.1414Z" fill="#F5F7FA" stroke="#0056B3" stroke-linejoin="round"></path><path d="M362.973 79.2922V82.6593C362.973 83.6616 362.313 84.6614 360.997 85.4255C358.35 86.964 354.045 86.964 351.38 85.4255C350.038 84.6485 349.37 83.6358 349.373 82.6205V79.2534C349.373 80.2687 350.041 81.284 351.38 82.0584C354.048 83.5969 358.352 83.5969 360.999 82.0584C362.313 81.2944 362.971 80.2946 362.973 79.2922Z" fill="#0056B3" stroke="#0056B3" stroke-linejoin="round"></path><path d="M360.958 76.4874C363.623 78.0258 363.636 80.5201 360.989 82.0586C358.342 83.5971 354.037 83.5971 351.37 82.0586C348.702 80.5201 348.692 78.0258 351.339 76.4874C353.986 74.9489 358.301 74.9489 360.958 76.4874Z" fill="#F5F7FA" stroke="#0056B3" stroke-linejoin="round"></path><path d="M377.726 70.843V74.2101C377.726 75.2124 377.065 76.2122 375.749 76.9763C373.102 78.5148 368.798 78.5148 366.133 76.9763C364.791 76.1993 364.123 75.1865 364.125 74.1712V70.8042C364.125 71.8195 364.793 72.8348 366.133 73.6092C368.8 75.1477 373.105 75.1477 375.752 73.6092C377.065 72.8452 377.723 71.8454 377.726 70.843Z" fill="#0056B3" stroke="#0056B3" stroke-linejoin="round"></path><path d="M375.71 68.0381C378.376 69.5766 378.389 72.0709 375.742 73.6094C373.095 75.1479 368.79 75.1479 366.122 73.6094C363.454 72.0709 363.444 69.5766 366.091 68.0381C368.738 66.4997 373.053 66.4997 375.71 68.0381Z" fill="#F5F7FA" stroke="#0056B3" stroke-linejoin="round"></path><path d="M400.801 69.2188L400.587 145.55" stroke="#151E29"></path><path d="M400.801 69.2188L400.587 145.55" stroke="#151E29" stroke-opacity="0.2"></path><path d="M399.473 64.7453C398.683 63.3801 397.58 62.2219 396.254 61.3659L305.126 8.75596C302.611 7.30081 300.557 8.467 300.557 11.3559L300.529 22.2249L400.775 80.0898L400.802 69.2195C400.719 67.6441 400.264 66.1106 399.473 64.7453Z" stroke="#151E29"></path><path d="M399.473 64.7453C398.683 63.3801 397.58 62.2219 396.254 61.3659L305.126 8.75596C302.611 7.30081 300.557 8.467 300.557 11.3559L300.529 22.2249L400.775 80.0898L400.802 69.2195C400.719 67.6441 400.264 66.1106 399.473 64.7453Z" fill="#F5F7FA" stroke="#151E29"></path><circle cx="307.627" cy="18.0995" r="3.20989" fill="#FF668A" stroke="#151E29"></circle><circle cx="316.841" cy="23.4421" r="3.20989" fill="#FFDE63" stroke="#151E29"></circle><circle cx="326.054" cy="28.7846" r="3.20989" fill="#A3E2FF" stroke="#151E29"></circle><rect opacity="0.35" width="71.1051" height="71.1051" rx="11" transform="matrix(0.866044 0.499967 -0.866044 0.499967 398.374 236.887)" fill="#006FD6"></rect><path d="M388.847 231.846C394.108 228.808 402.639 228.808 407.9 231.846L450.427 256.397C455.689 259.434 455.688 264.359 450.427 267.396L407.9 291.947C402.639 294.984 394.108 294.984 388.847 291.947L346.32 267.396C341.058 264.359 341.058 259.434 346.32 256.397L388.847 231.846Z" fill="#F5F7FA" stroke="#151E29" stroke-linejoin="round"></path><path d="M148.255 124.651C144.794 122.737 144.781 119.634 148.214 117.721C151.647 115.807 157.232 115.807 160.693 117.721C164.153 119.634 164.167 122.737 160.734 124.651C157.3 126.577 151.715 126.577 148.255 124.651Z" stroke="#151E29" stroke-linejoin="round"></path><path d="M300.11 149.127C296.649 147.214 296.636 144.111 300.069 142.197C303.502 140.284 309.087 140.284 312.548 142.197C316.008 144.111 316.022 147.214 312.588 149.127C309.155 151.054 303.57 151.054 300.11 149.127Z" stroke="#151E29" stroke-linejoin="round"></path><path fill-rule="evenodd" clip-rule="evenodd" d="M419.872 267.25L409.999 273C404.726 276.058 397.433 275.637 389.384 270.981L389.383 270.981C373.396 261.753 360.465 239.37 360.521 220.998C360.549 211.855 363.775 205.432 368.992 202.43L378.739 196.754C378.781 196.729 378.823 196.705 378.865 196.68L378.739 196.754C373.596 199.786 370.422 206.179 370.395 215.249C370.366 233.62 383.269 256.003 399.256 265.231L399.256 265.231C407.306 269.887 414.599 270.308 419.872 267.25Z" fill="#7AD1FF"></path><path d="M409.999 273L410.251 273.432L410.25 273.433L409.999 273ZM419.872 267.25L419.621 266.818L420.124 267.682L419.872 267.25ZM389.384 270.981L389.132 270.549L389.382 270.403L389.634 270.548L389.384 270.981ZM389.383 270.981L389.635 271.413L389.385 271.559L389.133 271.414L389.383 270.981ZM360.521 220.998L360.021 220.997V220.997L360.521 220.998ZM368.992 202.43L369.244 202.862L369.241 202.864L368.992 202.43ZM378.865 196.68L378.616 196.247L379.117 197.112L378.865 196.68ZM370.395 215.249L369.895 215.248L369.895 215.247L370.395 215.249ZM399.256 265.231L399.509 265.662L399.258 265.809L399.006 265.664L399.256 265.231ZM399.257 265.231L399.003 264.8L399.255 264.652L399.507 264.798L399.257 265.231ZM409.747 272.568L419.621 266.818L420.124 267.682L410.251 273.432L409.747 272.568ZM389.634 270.548C397.592 275.151 404.684 275.504 409.748 272.568L410.25 273.433C404.768 276.611 397.275 276.123 389.133 271.414L389.634 270.548ZM389.131 270.549L389.132 270.549L389.636 271.413L389.635 271.413L389.131 270.549ZM361.021 221C360.994 230.077 364.177 240.179 369.369 249.169C374.561 258.158 381.733 265.988 389.633 270.548L389.133 271.414C381.046 266.746 373.759 258.771 368.503 249.669C363.247 240.567 359.993 230.292 360.021 220.997L361.021 221ZM369.241 202.864C364.233 205.745 361.049 211.962 361.021 221L360.021 220.997C360.05 211.748 363.317 205.118 368.743 201.997L369.241 202.864ZM378.99 197.186L369.244 202.862L368.74 201.998L378.487 196.322L378.99 197.186ZM378.485 196.323C378.528 196.298 378.572 196.272 378.616 196.247L379.115 197.114C379.074 197.137 379.033 197.161 378.993 197.185L378.485 196.323ZM379.117 197.112L378.99 197.186L378.487 196.322L378.614 196.248L379.117 197.112ZM369.895 215.247C369.923 206.073 373.137 199.476 378.485 196.323L378.993 197.185C374.055 200.096 370.922 206.285 370.895 215.25L369.895 215.247ZM399.006 265.664C390.919 260.996 383.639 253.02 378.386 243.919C373.134 234.817 369.88 224.542 369.895 215.248L370.895 215.249C370.881 224.326 374.064 234.429 379.253 243.419C384.441 252.408 391.606 260.238 399.506 264.798L399.006 265.664ZM399.51 265.662L399.509 265.662L399.003 264.8L399.003 264.8L399.51 265.662ZM420.123 267.683C414.641 270.861 407.148 270.373 399.006 265.664L399.507 264.798C407.465 269.401 414.557 269.754 419.621 266.818L420.123 267.683Z" fill="#0056B3"></path><path fill-rule="evenodd" clip-rule="evenodd" d="M368.954 202.454L378.827 196.704C384.1 193.647 391.393 194.067 399.443 198.723L399.443 198.723C415.43 207.951 428.361 230.334 428.305 248.706C428.277 257.85 425.051 264.273 419.834 267.274L410.087 272.95C410.045 272.975 410.003 273 409.961 273.024L410.087 272.95C415.23 269.919 418.404 263.526 418.432 254.456C418.46 236.084 405.557 213.701 389.57 204.473L389.57 204.474C381.52 199.817 374.227 199.397 368.954 202.454Z" fill="#7AD1FF"></path><path d="M378.827 196.704L378.575 196.272L378.576 196.271L378.827 196.704ZM368.954 202.454L369.205 202.887L368.702 202.022L368.954 202.454ZM399.443 198.723L399.694 199.156L399.443 199.301L399.192 199.156L399.443 198.723ZM399.443 198.723L399.192 198.291L399.442 198.146L399.693 198.29L399.443 198.723ZM428.305 248.706L428.805 248.707V248.707L428.305 248.706ZM419.834 267.274L419.582 266.842L419.585 266.841L419.834 267.274ZM409.961 273.024L410.21 273.457L409.709 272.592L409.961 273.024ZM418.432 254.456L418.932 254.457L418.932 254.457L418.432 254.456ZM389.57 204.473L389.317 204.042L389.568 203.895L389.82 204.04L389.57 204.473ZM389.57 204.474L389.823 204.905L389.571 205.052L389.319 204.906L389.57 204.474ZM379.079 197.136L369.206 202.886L368.702 202.022L378.575 196.272L379.079 197.136ZM399.192 199.156C391.235 194.554 384.142 194.2 379.078 197.137L378.576 196.271C384.058 193.093 391.551 193.581 399.693 198.291L399.192 199.156ZM399.694 199.156L399.694 199.156L399.191 198.291L399.192 198.291L399.694 199.156ZM427.805 248.704C427.832 239.628 424.649 229.525 419.457 220.536C414.266 211.546 407.093 203.716 399.193 199.156L399.693 198.29C407.78 202.958 415.067 210.934 420.323 220.036C425.58 229.137 428.833 239.412 428.805 248.707L427.805 248.704ZM419.585 266.841C424.593 263.96 427.777 257.743 427.805 248.704L428.805 248.707C428.776 257.957 425.509 264.586 420.083 267.707L419.585 266.841ZM409.836 272.518L419.582 266.842L420.086 267.706L410.339 273.382L409.836 272.518ZM410.341 273.381C410.298 273.407 410.254 273.432 410.21 273.457L409.712 272.591C409.752 272.567 409.793 272.543 409.833 272.52L410.341 273.381ZM409.709 272.592L409.836 272.518L410.339 273.382L410.213 273.456L409.709 272.592ZM418.932 254.457C418.904 263.632 415.689 270.228 410.341 273.381L409.833 272.52C414.771 269.609 417.904 263.419 417.932 254.454L418.932 254.457ZM389.82 204.04C397.907 208.709 405.187 216.684 410.44 225.786C415.692 234.887 418.946 245.162 418.932 254.457L417.932 254.455C417.946 245.378 414.762 235.275 409.574 226.286C404.385 217.296 397.22 209.466 389.32 204.906L389.82 204.04ZM389.317 204.042L389.317 204.042L389.823 204.905L389.823 204.905L389.317 204.042ZM368.703 202.021C374.185 198.843 381.678 199.331 389.82 204.041L389.319 204.906C381.362 200.304 374.269 199.95 369.205 202.887L368.703 202.021Z" fill="#151E29"></path><path d="M378.827 196.704L378.575 196.272L378.576 196.271L378.827 196.704ZM368.954 202.454L369.205 202.887L368.702 202.022L368.954 202.454ZM399.443 198.723L399.694 199.156L399.443 199.301L399.192 199.156L399.443 198.723ZM399.443 198.723L399.192 198.291L399.442 198.146L399.693 198.29L399.443 198.723ZM428.305 248.706L428.805 248.707V248.707L428.305 248.706ZM419.834 267.274L419.582 266.842L419.585 266.841L419.834 267.274ZM409.961 273.024L410.21 273.457L409.709 272.592L409.961 273.024ZM418.432 254.456L418.932 254.457L418.932 254.457L418.432 254.456ZM389.57 204.473L389.317 204.042L389.568 203.895L389.82 204.04L389.57 204.473ZM389.57 204.474L389.823 204.905L389.571 205.052L389.319 204.906L389.57 204.474ZM379.079 197.136L369.206 202.886L368.702 202.022L378.575 196.272L379.079 197.136ZM399.192 199.156C391.235 194.554 384.142 194.2 379.078 197.137L378.576 196.271C384.058 193.093 391.551 193.581 399.693 198.291L399.192 199.156ZM399.694 199.156L399.694 199.156L399.191 198.291L399.192 198.291L399.694 199.156ZM427.805 248.704C427.832 239.628 424.649 229.525 419.457 220.536C414.266 211.546 407.093 203.716 399.193 199.156L399.693 198.29C407.78 202.958 415.067 210.934 420.323 220.036C425.58 229.137 428.833 239.412 428.805 248.707L427.805 248.704ZM419.585 266.841C424.593 263.96 427.777 257.743 427.805 248.704L428.805 248.707C428.776 257.957 425.509 264.586 420.083 267.707L419.585 266.841ZM409.836 272.518L419.582 266.842L420.086 267.706L410.339 273.382L409.836 272.518ZM410.341 273.381C410.298 273.407 410.254 273.432 410.21 273.457L409.712 272.591C409.752 272.567 409.793 272.543 409.833 272.52L410.341 273.381ZM409.709 272.592L409.836 272.518L410.339 273.382L410.213 273.456L409.709 272.592ZM418.932 254.457C418.904 263.632 415.689 270.228 410.341 273.381L409.833 272.52C414.771 269.609 417.904 263.419 417.932 254.454L418.932 254.457ZM389.82 204.04C397.907 208.709 405.187 216.684 410.44 225.786C415.692 234.887 418.946 245.162 418.932 254.457L417.932 254.455C417.946 245.378 414.762 235.275 409.574 226.286C404.385 217.296 397.22 209.466 389.32 204.906L389.82 204.04ZM389.317 204.042L389.317 204.042L389.823 204.905L389.823 204.905L389.317 204.042ZM368.703 202.021C374.185 198.843 381.678 199.331 389.82 204.041L389.319 204.906C381.362 200.304 374.269 199.95 369.205 202.887L368.703 202.021Z" fill="#151E29"></path><path d="M419.834 267.274C425.051 264.273 428.277 257.85 428.305 248.706L418.432 254.456C418.404 263.526 415.23 269.919 410.087 272.951L409.961 273.024C410.003 273 410.045 272.975 410.087 272.951L419.834 267.274Z" fill="#7AD1FF"></path><path d="M410.087 272.951L419.834 267.274C425.051 264.273 428.277 257.85 428.305 248.706L418.432 254.456C418.404 263.526 415.23 269.919 410.087 272.951ZM410.087 272.951C410.045 272.975 410.003 273 409.961 273.024L410.087 272.951Z" stroke="#151E29"></path><path d="M369.011 249.622C357.678 230.122 357.643 208.993 368.933 202.431C380.224 195.869 398.565 206.358 409.898 225.859C421.232 245.36 421.267 266.488 409.976 273.05C398.686 279.612 380.345 269.123 369.011 249.622Z" fill="#F5F7FA" fill-opacity="0.8" stroke="#151E29"></path><path d="M369.011 249.622C357.678 230.122 357.643 208.993 368.933 202.431C380.224 195.869 398.565 206.358 409.898 225.859C421.232 245.36 421.267 266.488 409.976 273.05C398.686 279.612 380.345 269.123 369.011 249.622Z" stroke="#151E29"></path><path opacity="0.2" fill-rule="evenodd" clip-rule="evenodd" d="M408.054 273.978C417.582 266.329 416.972 246.422 406.25 227.973C395.538 209.543 378.569 199.162 367.207 203.617C367.749 203.181 368.325 202.785 368.933 202.431C380.224 195.869 398.565 206.358 409.898 225.859C421.232 245.36 421.267 266.488 409.976 273.05C409.356 273.41 408.715 273.719 408.054 273.978Z" fill="#006FD6"></path><path fill-rule="evenodd" clip-rule="evenodd" d="M404.25 184.55C404.134 188.754 401.595 192.239 398.207 193.34C397.709 193.502 397.418 194.089 397.558 194.651C397.698 195.213 398.215 195.538 398.713 195.376C402.866 194.026 405.98 189.757 406.123 184.602C406.306 178.249 401.911 172.954 396.306 172.785C390.701 172.616 386.008 177.641 385.824 183.994C385.714 187.813 387.256 191.25 389.718 193.421C390.125 193.78 390.714 193.695 391.034 193.233C391.354 192.771 391.283 192.105 390.877 191.747C388.864 189.972 387.607 187.166 387.697 184.049C387.847 178.859 391.679 174.765 396.244 174.903C400.809 175.04 404.4 179.358 404.25 184.548L404.25 184.55Z" fill="#7AD1FF"></path><path d="M398.207 193.34L398.361 193.815L398.207 193.34ZM404.25 184.55L403.75 184.536L403.75 184.535L404.25 184.55ZM397.558 194.651L398.043 194.53L397.558 194.651ZM398.713 195.376L398.558 194.9L398.558 194.9L398.713 195.376ZM406.123 184.602L405.623 184.588L405.623 184.587L406.123 184.602ZM396.306 172.785L396.291 173.284L396.306 172.785ZM385.824 183.994L386.324 184.008L386.324 184.008L385.824 183.994ZM389.718 193.421L389.387 193.796L389.718 193.421ZM391.034 193.233L390.623 192.949L390.623 192.949L391.034 193.233ZM390.877 191.747L390.546 192.122L390.877 191.747ZM387.697 184.049L387.197 184.034L387.697 184.049ZM396.244 174.903L396.229 175.402L396.244 174.903ZM404.25 184.548L403.75 184.534L403.75 184.534L404.25 184.548ZM398.052 192.864C401.215 191.837 403.639 188.556 403.75 184.536L404.75 184.563C404.629 188.953 401.974 192.641 398.361 193.815L398.052 192.864ZM397.073 194.772C396.88 193.997 397.265 193.12 398.052 192.864L398.361 193.815C398.152 193.883 397.956 194.18 398.043 194.53L397.073 194.772ZM398.867 195.851C398.044 196.119 397.269 195.563 397.073 194.772L398.043 194.53C398.126 194.864 398.385 194.957 398.558 194.9L398.867 195.851ZM406.622 184.616C406.475 189.956 403.246 194.429 398.867 195.851L398.558 194.9C402.486 193.624 405.486 189.558 405.623 184.588L406.622 184.616ZM396.321 172.285C402.259 172.464 406.812 178.049 406.622 184.616L405.623 184.587C405.8 178.45 401.563 173.443 396.291 173.284L396.321 172.285ZM385.324 183.98C385.514 177.412 390.382 172.106 396.321 172.285L396.291 173.284C391.02 173.125 386.501 177.87 386.324 184.008L385.324 183.98ZM389.387 193.796C386.809 191.522 385.21 187.94 385.324 183.98L386.324 184.008C386.218 187.686 387.704 190.978 390.049 193.046L389.387 193.796ZM391.445 193.518C390.966 194.209 390.034 194.366 389.387 193.796L390.049 193.046C390.216 193.193 390.461 193.182 390.623 192.949L391.445 193.518ZM391.207 191.372C391.815 191.907 391.901 192.859 391.445 193.518L390.623 192.949C390.807 192.683 390.752 192.303 390.546 192.122L391.207 191.372ZM388.197 184.063C388.111 187.04 389.312 189.7 391.207 191.372L390.546 192.122C388.417 190.244 387.103 187.293 387.197 184.034L388.197 184.063ZM396.229 175.402C391.998 175.275 388.34 179.088 388.197 184.063L387.197 184.034C387.353 178.63 391.36 174.255 396.259 174.403L396.229 175.402ZM403.75 184.534C403.894 179.558 400.461 175.53 396.229 175.402L396.259 174.403C401.157 174.55 404.906 179.158 404.75 184.562L403.75 184.534ZM403.75 184.535L403.75 184.534L404.75 184.562L404.75 184.564L403.75 184.535Z" fill="#151E29"></path><path d="M391.325 191.78L391.327 200.73C391.328 201.097 391.57 201.463 392.051 201.744C393.02 202.307 394.598 202.307 395.574 201.744C396.065 201.46 396.31 201.088 396.31 200.717L396.308 191.766C396.31 192.138 396.064 192.511 395.572 192.794C394.596 193.357 393.018 193.357 392.049 192.794C391.566 192.513 391.325 192.146 391.325 191.78Z" fill="#7AD1FF" stroke="#151E29"></path><path d="M392.059 190.753C391.083 191.316 391.078 192.23 392.047 192.794C393.016 193.357 394.594 193.357 395.57 192.794C396.546 192.23 396.553 191.316 395.584 190.753C394.615 190.19 393.035 190.188 392.059 190.753Z" fill="#7AD1FF" stroke="#151E29"></path><path d="M391.325 191.78L391.327 200.731C391.328 201.097 391.57 201.463 392.051 201.744C393.02 202.307 394.598 202.307 395.574 201.744C396.065 201.46 396.31 201.088 396.31 200.717L396.308 191.767C396.31 192.138 396.064 192.511 395.572 192.794C394.596 193.357 393.018 193.357 392.049 192.794C391.566 192.513 391.325 192.147 391.325 191.78Z" fill="#B0E6FF" stroke="#151E29"></path><path opacity="0.2" d="M391.325 189.221L391.327 198.172C391.328 198.538 391.57 198.904 392.051 199.185C393.02 199.748 394.598 199.748 395.574 199.185C396.065 198.901 396.31 198.53 396.31 198.158L396.308 189.208C396.31 189.579 396.064 189.952 395.572 190.235C394.596 190.798 393.018 190.798 392.049 190.235C391.566 189.954 391.325 189.588 391.325 189.221Z" fill="#006FD6"></path><path d="M391.325 191.78L391.327 200.73C391.328 201.097 391.57 201.463 392.051 201.744C393.02 202.307 394.598 202.307 395.574 201.744C396.065 201.46 396.31 201.088 396.31 200.717L396.308 191.766C396.31 192.138 396.064 192.511 395.572 192.794C394.596 193.357 393.018 193.357 392.049 192.794C391.566 192.513 391.325 192.146 391.325 191.78Z" stroke="#151E29"></path><path d="M387.028 189.395L387.033 193.785C387.038 194.783 387.695 195.781 389.006 196.545C391.645 198.08 395.945 198.08 398.603 196.545C399.942 195.771 400.608 194.759 400.608 193.747L400.604 189.358C400.608 190.37 399.937 191.386 398.598 192.156C395.94 193.69 391.64 193.69 389.001 192.156C387.686 191.391 387.028 190.393 387.028 189.395Z" fill="#B0E6FF" stroke="#151E29" stroke-linejoin="round"></path><path d="M389.031 186.579C386.373 188.114 386.359 190.604 388.998 192.138C391.638 193.672 395.938 193.672 398.596 192.138C401.254 190.604 401.273 188.114 398.633 186.579C395.994 185.045 391.689 185.04 389.031 186.579Z" fill="#F5F7FA" stroke="#151E29"></path><mask id="mask1_1385_1670" style="mask-type:alpha" maskUnits="userSpaceOnUse" x="392" y="184" width="10" height="15"><path d="M400.608 193.882C400.608 194.894 399.942 195.906 398.603 196.68C397.192 197.495 395.32 197.877 393.478 197.827V194.163C395.318 194.212 397.189 192.969 398.598 192.156C399.93 191.391 400.601 190.381 400.604 189.374L400.608 193.882Z" fill="#D9D9D9"></path><path d="M398.603 196.68L398.853 197.113L398.853 197.113L398.603 196.68ZM400.608 193.882L401.108 193.882V193.882H400.608ZM398.598 192.156L398.348 191.723L398.349 191.722L398.598 192.156ZM398.633 186.579L398.382 187.012H398.382L398.633 186.579ZM393.478 185.432H392.978V184.947L393.463 184.932L393.478 185.432ZM393.478 197.827L393.464 198.327L392.978 198.313V197.827H393.478ZM398.353 196.247C399.6 195.526 400.108 194.653 400.108 193.882H401.108C401.108 195.135 400.283 196.286 398.853 197.113L398.353 196.247ZM400.108 193.883L400.104 189.375L401.104 189.373L401.108 193.882L400.108 193.883ZM400.104 189.375L400.104 189.358L401.104 189.357L401.104 189.373L400.104 189.375ZM401.104 189.375C401.101 190.623 400.27 191.772 398.848 192.589L398.349 191.722C399.59 191.009 400.102 190.138 400.104 189.373L401.104 189.375ZM398.346 191.705C399.585 190.99 400.096 190.122 400.101 189.355C400.107 188.591 399.609 187.725 398.382 187.012L398.885 186.147C400.297 186.968 401.11 188.115 401.101 189.362C401.093 190.608 400.266 191.752 398.846 192.571L398.346 191.705ZM398.382 187.012C397.071 186.249 395.282 185.878 393.493 185.932L393.463 184.932C395.388 184.874 397.373 185.268 398.885 186.147L398.382 187.012ZM393.491 197.327C395.265 197.375 397.041 197.005 398.353 196.247L398.853 197.113C397.344 197.985 395.374 198.378 393.464 198.327L393.491 197.327ZM393.978 185.432V194.163H392.978V185.432H393.978ZM393.978 194.163V197.827H392.978V194.163H393.978ZM398.848 192.589C398.165 192.983 397.311 193.518 396.41 193.936C395.507 194.357 394.496 194.691 393.464 194.663L393.491 193.663C394.299 193.685 395.145 193.422 395.989 193.03C396.836 192.636 397.623 192.142 398.348 191.723L398.848 192.589Z" fill="#0056B3"></path></mask><g mask="url(#mask1_1385_1670)"><path fill-rule="evenodd" clip-rule="evenodd" d="M404.249 184.55C404.134 188.754 401.594 192.239 398.207 193.34C397.708 193.502 397.418 194.089 397.557 194.651C397.697 195.213 398.214 195.538 398.713 195.376C402.866 194.026 405.98 189.757 406.122 184.602C406.306 178.249 401.911 172.954 396.306 172.785C390.7 172.616 386.007 177.641 385.824 183.994C385.713 187.813 387.256 191.25 389.718 193.421C390.125 193.78 390.714 193.695 391.033 193.233C391.353 192.771 391.283 192.105 390.876 191.747C388.864 189.972 387.606 187.166 387.697 184.049C387.847 178.859 391.679 174.765 396.243 174.903C400.809 175.04 404.4 179.358 404.25 184.548L404.249 184.55Z" fill="#7AD1FF"></path><path d="M398.207 193.34L398.361 193.815L398.207 193.34ZM404.249 184.55L403.75 184.536L403.75 184.535L404.249 184.55ZM397.557 194.651L398.043 194.53L397.557 194.651ZM398.713 195.376L398.558 194.9L398.558 194.9L398.713 195.376ZM406.122 184.602L405.623 184.588L405.623 184.587L406.122 184.602ZM396.306 172.785L396.291 173.284L396.306 172.785ZM385.824 183.994L386.324 184.008L386.324 184.008L385.824 183.994ZM389.718 193.421L389.387 193.796L389.718 193.421ZM391.033 193.233L390.622 192.949L390.622 192.949L391.033 193.233ZM390.876 191.747L390.546 192.122L390.876 191.747ZM387.697 184.049L387.197 184.034L387.697 184.049ZM396.243 174.903L396.228 175.402L396.243 174.903ZM404.25 184.548L403.75 184.534L403.75 184.534L404.25 184.548ZM398.052 192.864C401.214 191.837 403.639 188.556 403.75 184.536L404.749 184.563C404.628 188.953 401.974 192.641 398.361 193.815L398.052 192.864ZM397.072 194.772C396.88 193.997 397.265 193.12 398.052 192.864L398.361 193.815C398.152 193.883 397.956 194.18 398.043 194.53L397.072 194.772ZM398.867 195.851C398.044 196.119 397.269 195.563 397.072 194.772L398.043 194.53C398.126 194.864 398.385 194.957 398.558 194.9L398.867 195.851ZM406.622 184.616C406.475 189.956 403.245 194.429 398.867 195.851L398.558 194.9C402.486 193.624 405.485 189.558 405.623 184.588L406.622 184.616ZM396.321 172.285C402.259 172.464 406.812 178.049 406.622 184.616L405.623 184.587C405.8 178.45 401.563 173.443 396.291 173.284L396.321 172.285ZM385.324 183.98C385.514 177.412 390.381 172.106 396.321 172.285L396.291 173.284C391.019 173.125 386.501 177.87 386.324 184.008L385.324 183.98ZM389.387 193.796C386.809 191.522 385.21 187.94 385.324 183.98L386.324 184.008C386.217 187.686 387.704 190.978 390.049 193.046L389.387 193.796ZM391.445 193.518C390.966 194.209 390.034 194.366 389.387 193.796L390.049 193.046C390.216 193.193 390.461 193.182 390.622 192.949L391.445 193.518ZM391.207 191.372C391.815 191.907 391.901 192.859 391.445 193.518L390.622 192.949C390.806 192.683 390.752 192.303 390.546 192.122L391.207 191.372ZM388.196 184.063C388.11 187.04 389.312 189.7 391.207 191.372L390.546 192.122C388.417 190.244 387.103 187.293 387.197 184.034L388.196 184.063ZM396.228 175.402C391.998 175.275 388.34 179.088 388.196 184.063L387.197 184.034C387.353 178.63 391.36 174.255 396.258 174.403L396.228 175.402ZM403.75 184.534C403.894 179.558 400.461 175.53 396.228 175.402L396.258 174.403C401.157 174.55 404.906 179.158 404.749 184.562L403.75 184.534ZM403.75 184.535L403.75 184.534L404.749 184.562L404.749 184.564L403.75 184.535Z" fill="#151E29"></path></g><path d="M414.972 210.814L410.095 215.693C409.896 215.893 409.828 216.225 409.937 216.64C410.158 217.475 411.019 218.335 411.857 218.56C412.28 218.673 412.616 218.604 412.818 218.401L417.695 213.523C417.494 213.726 417.156 213.795 416.734 213.681C415.896 213.456 415.035 212.596 414.814 211.761C414.704 211.345 414.772 211.014 414.972 210.814Z" fill="#ED1252" stroke="#151E29"></path><path d="M414.972 210.814L410.095 215.693C409.897 215.893 409.828 216.225 409.938 216.64C410.159 217.475 411.019 218.335 411.858 218.56C412.28 218.673 412.616 218.604 412.819 218.401L417.696 213.523C417.494 213.726 417.156 213.795 416.735 213.681C415.896 213.456 415.036 212.596 414.815 211.761C414.704 211.345 414.773 211.014 414.972 210.814Z" stroke="#151E29"></path><path d="M413.93 207.173L411.54 209.568C410.999 210.114 410.814 211.016 411.111 212.147C411.713 214.422 414.057 216.766 416.341 217.378C417.493 217.686 418.408 217.498 418.959 216.946L421.349 214.551C420.8 215.105 419.88 215.293 418.731 214.983C416.446 214.371 414.103 212.027 413.501 209.753C413.201 208.619 413.386 207.717 413.93 207.173Z" fill="#ED1252" stroke="#151E29" stroke-linejoin="round"></path><path d="M416.556 206.73C414.272 206.118 412.907 207.467 413.509 209.742C414.111 212.017 416.455 214.36 418.74 214.972C421.025 215.585 422.392 214.238 421.79 211.963C421.187 209.689 418.844 207.34 416.556 206.73Z" fill="#FF668A" stroke="#151E29"></path><path opacity="0.2" d="M374.34 219.276C373.968 219.063 373.596 219.037 373.33 219.223C372.905 219.541 372.878 220.365 373.304 221.189L384.2 243.114C384.439 243.619 384.758 244.098 385.103 244.576C385.874 245.613 386.751 246.436 387.628 246.941C388.718 247.579 389.834 247.739 390.658 247.34C392.678 246.357 392.598 242.716 390.605 239.58C390.419 239.287 390.233 239.022 390.02 238.756L375.031 219.887C374.818 219.621 374.579 219.409 374.34 219.276Z" fill="#006FD6"></path><path d="M374.123 216.579L375.972 215.497C376.237 215.364 376.583 215.39 376.928 215.603L376.915 215.611C377.15 215.744 377.384 215.954 377.593 216.214L392.582 235.083L390.721 236.173L375.732 217.304C375.52 217.038 375.281 216.826 375.041 216.693L375.055 216.685C374.719 216.482 374.384 216.43 374.123 216.579Z" fill="#B0E6FF"></path><path d="M391.519 244.651L391.559 244.627C391.546 244.635 391.532 244.643 391.519 244.651Z" fill="#B0E6FF"></path><path d="M393.379 243.561L391.559 244.627C393.377 243.536 393.232 240.031 391.306 236.997C391.12 236.705 390.934 236.439 390.721 236.173L392.582 235.083C392.794 235.349 392.98 235.615 393.14 235.907C395.106 238.964 395.239 242.498 393.379 243.561Z" fill="#B0E6FF"></path><path d="M392.582 235.083L377.593 216.214C377.384 215.954 377.15 215.744 376.915 215.611L376.928 215.603C376.583 215.39 376.237 215.364 375.972 215.497L374.123 216.579C374.384 216.43 374.719 216.482 375.055 216.685L375.041 216.693C375.281 216.826 375.52 217.038 375.732 217.304L390.721 236.173M392.582 235.083L390.721 236.173M392.582 235.083C392.794 235.349 392.98 235.615 393.14 235.907C395.106 238.964 395.239 242.498 393.379 243.561L391.559 244.627M390.721 236.173C390.934 236.439 391.12 236.705 391.306 236.997C393.232 240.031 393.377 243.536 391.559 244.627M391.559 244.627L391.519 244.651C391.532 244.643 391.546 244.635 391.559 244.627Z" stroke="#151E29" stroke-linejoin="round"></path><path d="M375.041 216.692C374.669 216.48 374.297 216.453 374.031 216.639C373.606 216.958 373.58 217.782 374.005 218.606L384.901 240.531C385.14 241.036 385.459 241.514 385.805 241.993C386.575 243.029 387.452 243.853 388.329 244.358C389.419 244.996 390.535 245.155 391.359 244.757C393.379 243.773 393.299 240.133 391.306 236.997C391.12 236.704 390.934 236.438 390.721 236.173L375.732 217.304C375.52 217.038 375.28 216.825 375.041 216.692Z" fill="#F5F7FA" stroke="#151E29" stroke-linejoin="round"></path><path d="M387.862 240.427C387.315 239.487 387.314 238.469 387.858 238.153C388.402 237.837 389.285 238.342 389.832 239.282C390.378 240.221 390.379 241.239 389.835 241.555C389.291 241.872 388.408 241.366 387.862 240.427Z" fill="#7AD1FF" stroke="#151E29"></path><path d="M369.011 249.622C357.678 230.122 357.643 208.994 368.933 202.432C380.224 195.87 398.565 206.359 409.898 225.859C421.232 245.36 421.267 266.488 409.976 273.05C398.686 279.612 380.345 269.123 369.011 249.622Z" stroke="#151E29"></path><g opacity="0.2"><ellipse rx="1.77046" ry="1.77046" transform="matrix(-7.53992e-05 -1 -0.866025 -0.5 412.837 251.862)" fill="#006FD6"></ellipse><ellipse rx="1.77046" ry="1.77046" transform="matrix(-7.53992e-05 -1 -0.866025 -0.5 366.072 224.863)" fill="#006FD6"></ellipse><ellipse rx="1.77046" ry="1.77046" transform="matrix(-0.866025 -0.5 7.53992e-05 1 389.452 211.363)" fill="#006FD6"></ellipse><ellipse rx="1.77046" ry="1.77046" transform="matrix(-0.866025 -0.5 7.53992e-05 1 389.457 265.362)" fill="#006FD6"></ellipse></g><path d="M299.564 148.873L284.003 157.856" stroke="#151E29" stroke-linejoin="bevel"></path></g><defs><radialGradient id="paint0_radial_1385_1670" cx="0" cy="0" r="1" gradientUnits="userSpaceOnUse" gradientTransform="translate(263.328 151.254) rotate(-113.238) scale(135.854 235.327)"><stop stop-color="#7AD1FF"></stop><stop offset="1" stop-color="#7AD1FF" stop-opacity="0"></stop></radialGradient><clipPath id="clip0_1385_1670"><rect width="499" height="312" fill="white" transform="translate(0.106934)"></rect></clipPath></defs></svg> 