<?xml version="1.0" encoding="UTF-8"?> <svg xmlns="http://www.w3.org/2000/svg" width="552" height="403" viewBox="0 0 552 403" fill="none"><g clip-path="url(#clip0_1391_1235)"><path fill-rule="evenodd" clip-rule="evenodd" d="M-347.839 196.526L-405.999 230.102L-405.133 230.602L-346.973 197.026L-289.246 230.352L-347.407 263.928L-346.54 264.428L-288.38 230.852L-230.639 264.186L-288.8 297.761L-287.934 298.261L-229.773 264.686L-172.046 298.012L-230.206 331.588L-229.34 332.088L-171.18 298.512L-113.452 331.838L-171.612 365.414L-170.746 365.914L-112.586 332.338L-54.8592 365.664L-113.02 399.24L-112.154 399.74L-53.9931 366.164L3.73578 399.49L-54.4249 433.067L-53.5588 433.566L4.60181 399.99L62.3298 433.317L4.16934 466.893L5.0354 467.393L63.1958 433.817L120.936 467.15L62.7762 500.726L63.6422 501.226L121.802 467.65L179.529 500.976L121.369 534.552L122.235 535.052L180.395 501.476L238.556 535.052L239.422 534.552L181.261 500.976L238.989 467.65L297.149 501.226L298.015 500.726L239.855 467.15L297.596 433.816L355.756 467.392L356.622 466.892L298.462 433.316L356.19 399.99L414.35 433.566L415.217 433.066L357.056 399.49L414.783 366.164L472.943 399.74L473.809 399.24L415.649 365.664L473.377 332.338L531.538 365.914L532.404 365.414L474.243 331.838L531.971 298.511L590.132 332.088L590.998 331.588L532.837 298.011L590.564 264.686L648.724 298.262L649.59 297.762L591.43 264.186L649.171 230.852L707.331 264.428L708.197 263.928L650.037 230.352L707.764 197.026L765.924 230.602L766.79 230.102L708.63 196.526L766.791 162.95L765.925 162.45L707.764 196.026L650.037 162.701L708.198 129.124L707.332 128.624L649.171 162.201L591.43 128.867L649.591 95.2905L648.725 94.7906L590.564 128.367L532.836 95.0406L590.997 61.4643L590.131 60.9644L531.97 94.5407L474.241 61.2138L532.402 27.6375L531.536 27.1375L473.375 60.7139L415.648 27.3881L473.81 -6.18846L472.944 -6.68842L414.782 26.8881L357.054 -6.43811L415.216 -40.0146L414.35 -40.5146L356.188 -6.93808L298.461 -40.2642L356.622 -73.8408L355.756 -74.3407L297.595 -40.7641L239.854 -74.0977L298.016 -107.674L297.149 -108.174L238.988 -74.5977L181.261 -107.923L239.423 -141.5L238.557 -142L180.395 -108.423L122.234 -142L121.368 -141.5L179.529 -107.923L121.802 -74.5976L63.6414 -108.174L62.7754 -107.674L120.936 -74.0977L63.1958 -40.764L5.03455 -74.3405L4.16849 -73.8405L62.3297 -40.264L4.60272 -6.9382L-53.5579 -40.5143L-54.4239 -40.0143L3.73666 -6.43823L-53.9913 26.8881L-112.152 -6.68811L-113.018 -6.18814L-54.8573 27.3881L-112.586 60.7146L-170.747 27.138L-171.613 27.6379L-113.452 61.2146L-171.178 94.5402L-229.339 60.9639L-230.205 61.4639L-172.044 95.0402L-229.772 128.367L-287.934 94.7901L-288.8 95.2901L-230.638 128.867L-288.379 162.2L-346.541 128.624L-347.407 129.124L-289.245 162.7L-346.973 196.026L-405.134 162.45L-406 162.95L-347.839 196.526ZM-346.107 196.526L-288.38 229.852L-230.653 196.526L-288.379 163.2L-346.107 196.526ZM-287.513 162.7L-229.787 196.026L-172.046 162.692L-229.772 129.366L-287.513 162.7ZM-228.906 128.867L-171.18 162.192L-113.452 128.866L-171.178 95.5402L-228.906 128.867ZM-170.312 95.0402L-112.586 128.366L-54.8587 95.0402L-112.586 61.7145L-170.312 95.0402ZM-111.72 61.2146L-53.9927 94.5403L3.73553 61.2137L-53.9913 27.888L-111.72 61.2146ZM-53.1252 27.3881L4.60159 60.7138L62.3295 27.3874L4.60269 -5.93826L-53.1252 27.3881ZM5.46875 -6.43825L63.1956 26.8875L120.923 -6.43834L63.1958 -39.7641L5.46875 -6.43825ZM64.0618 -40.264L121.789 -6.93831L179.529 -40.272L121.802 -73.5977L64.0618 -40.264ZM122.668 -74.0977L180.395 -40.772L238.122 -74.0977L180.395 -107.423L122.668 -74.0977ZM649.171 163.201L706.898 196.526L649.171 229.852L591.444 196.526L649.171 163.201ZM181.261 -40.272L238.988 -73.5977L296.729 -40.2641L239.002 -6.93837L181.261 -40.272ZM122.655 -6.43834L180.395 -39.772L238.136 -6.43842L180.395 26.8953L122.655 -6.43834ZM64.0616 27.3874L121.789 -5.93839L179.529 27.3952L121.802 60.721L64.0616 27.3874ZM5.46765 61.2137L63.1956 27.8874L120.936 61.221L63.2082 94.5473L5.46765 61.2137ZM-53.1266 95.0402L4.60159 61.7137L62.3421 95.0473L4.61389 128.374L-53.1266 95.0402ZM-111.72 128.866L-53.9927 95.5402L3.74786 128.874L-53.9789 162.199L-111.72 128.866ZM-170.314 162.692L-112.586 129.366L-54.845 162.699L-112.573 196.026L-170.314 162.692ZM-228.92 196.526L-171.18 163.192L-113.439 196.526L-171.18 229.86L-228.92 196.526ZM-287.514 230.352L-229.787 197.026L-172.046 230.36L-229.773 263.686L-287.514 230.352ZM-228.907 264.186L-171.18 297.512L-113.452 264.186L-171.18 230.86L-228.907 264.186ZM-170.314 230.36L-112.586 263.686L-54.8455 230.352L-112.573 197.026L-170.314 230.36ZM-111.707 196.526L-53.9795 229.852L3.74847 196.525L-53.979 163.199L-111.707 196.526ZM-53.1129 162.699L4.61453 196.025L62.3414 162.7L4.61389 129.374L-53.1129 162.699ZM5.47995 128.874L63.2074 162.2L120.936 128.873L63.2082 95.5473L5.47995 128.874ZM64.0742 95.0473L121.802 128.373L179.53 95.0471L121.802 61.721L64.0742 95.0473ZM122.668 61.221L180.396 94.5471L238.123 61.2213L180.395 27.8952L122.668 61.221ZM181.261 27.3952L238.989 60.7213L296.729 27.3876L239.002 -5.93845L181.261 27.3952ZM239.868 -6.4384L297.595 26.8877L355.322 -6.4381L297.595 -39.7642L239.868 -6.4384ZM298.461 27.3876L356.188 -5.93813L413.916 27.3881L356.189 60.7139L298.461 27.3876ZM239.855 61.2213L297.595 27.8876L355.323 61.2138L297.583 94.5475L239.855 61.2213ZM181.262 95.047L238.989 61.7212L296.716 95.0475L238.99 128.373L181.262 95.047ZM122.668 128.873L180.396 95.547L238.123 128.873L180.396 162.2L122.668 128.873ZM64.0735 162.7L121.802 129.373L179.529 162.7L121.801 196.026L64.0735 162.7ZM5.48059 196.525L63.2074 163.2L120.935 196.526L63.2084 229.852L5.48059 196.525ZM-53.1134 230.352L4.6145 197.025L62.3423 230.352L4.61438 263.678L-53.1134 230.352ZM-111.72 264.186L-53.9795 230.852L3.74829 264.178L-53.9926 297.512L-111.72 264.186ZM-170.314 298.012L-112.586 264.686L-54.8586 298.012L-112.586 331.338L-170.314 298.012ZM-111.72 331.838L-53.9931 365.164L3.73428 331.837L-53.9926 298.512L-111.72 331.838ZM-53.1266 298.012L4.60037 331.338L62.3412 298.004L4.61432 264.678L-53.1266 298.012ZM5.48041 264.178L63.2073 297.504L120.935 264.177L63.2083 230.852L5.48041 264.178ZM64.0744 230.352L121.801 263.677L179.528 230.352L121.801 197.026L64.0744 230.352ZM122.667 196.526L180.394 229.852L238.122 196.525L180.396 163.199L122.667 196.526ZM181.262 162.7L238.988 196.025L296.716 162.699L238.989 129.373L181.262 162.7ZM239.856 128.873L297.582 162.199L355.309 128.873L297.583 95.5475L239.856 128.873ZM298.449 95.0475L356.175 128.373L413.916 95.0396L356.189 61.7138L298.449 95.0475ZM357.055 61.2138L414.782 94.5396L472.509 61.2138L414.782 27.8881L357.055 61.2138ZM415.648 95.0396L473.375 61.7138L531.104 95.0407L473.377 128.366L415.648 95.0396ZM357.042 128.873L414.782 95.5395L472.511 128.866L414.77 162.2L357.042 128.873ZM298.448 162.699L356.175 129.373L413.904 162.7L356.177 196.026L298.448 162.699ZM239.854 196.525L297.582 163.199L355.311 196.526L297.583 229.852L239.854 196.525ZM181.26 230.352L238.988 197.025L296.717 230.352L238.989 263.679L181.26 230.352ZM122.667 264.177L180.394 230.852L238.123 264.179L180.396 297.504L122.667 264.177ZM64.0734 298.004L121.801 264.677L179.53 298.004L121.802 331.331L64.0734 298.004ZM5.46643 331.837L63.2073 298.504L120.936 331.831L63.1953 365.164L5.46643 331.837ZM-53.1271 365.664L4.60034 332.337L62.3292 365.664L4.60178 398.99L-53.1271 365.664ZM5.4678 399.49L63.1958 432.817L120.923 399.491L63.1953 366.164L5.4678 399.49ZM64.0613 365.664L121.789 398.991L179.53 365.657L121.802 332.331L64.0613 365.664ZM122.668 331.831L180.396 365.157L238.124 331.831L180.396 298.504L122.668 331.831ZM181.262 298.004L238.99 331.331L296.717 298.005L238.989 264.679L181.262 298.004ZM239.855 264.179L297.583 297.505L355.311 264.178L297.583 230.852L239.855 264.179ZM298.449 230.352L356.177 263.678L413.905 230.352L356.177 197.026L298.449 230.352ZM357.043 196.526L414.771 229.852L472.498 196.526L414.77 163.2L357.043 196.526ZM415.636 162.7L473.364 196.026L531.105 162.693L473.377 129.366L415.636 162.7ZM474.243 128.866L531.971 162.193L589.698 128.867L531.97 95.5406L474.243 128.866ZM532.837 162.693L590.564 129.367L648.305 162.701L590.578 196.026L532.837 162.693ZM474.23 196.526L531.971 163.193L589.712 196.526L531.971 229.86L474.23 196.526ZM415.637 230.352L473.364 197.026L531.105 230.36L473.378 263.686L415.637 230.352ZM357.043 264.178L414.771 230.852L472.512 264.186L414.784 297.512L357.043 264.178ZM298.449 298.005L356.177 264.678L413.918 298.012L356.19 331.338L298.449 298.005ZM239.856 331.831L297.583 298.505L355.324 331.838L297.597 365.164L239.856 331.831ZM181.262 365.657L238.99 332.331L296.731 365.664L239.003 398.99L181.262 365.657ZM122.655 399.491L180.396 366.157L238.137 399.49L180.396 432.824L122.655 399.491ZM64.0618 433.317L121.789 399.991L179.53 433.324L121.802 466.65L64.0618 433.317ZM122.668 467.15L180.395 500.476L238.123 467.15L180.396 433.824L122.668 467.15ZM181.262 433.324L238.989 466.65L296.73 433.316L239.003 399.99L181.262 433.324ZM239.869 399.49L297.596 432.816L355.324 399.49L297.597 366.164L239.869 399.49ZM298.463 365.664L356.19 398.99L413.917 365.664L356.19 332.338L298.463 365.664ZM357.056 331.838L414.783 365.164L472.511 331.838L414.784 298.512L357.056 331.838ZM415.65 298.012L473.377 331.338L531.105 298.011L473.378 264.686L415.65 298.012ZM474.244 264.186L531.971 297.511L589.698 264.186L531.971 230.86L474.244 264.186ZM532.837 230.36L590.564 263.686L648.305 230.352L590.578 197.026L532.837 230.36Z" fill="url(#paint0_radial_1391_1235)"></path><path d="M224.192 187.904L237.798 180.049C239.798 178.894 242.298 180.338 242.298 182.647L242.298 184.444C242.298 186.753 244.798 188.197 246.798 187.042L278.511 168.735L292.116 160.88C294.116 159.725 294.116 156.839 292.116 155.684L260.405 137.377L242.298 126.924" stroke="#151E29" stroke-linejoin="bevel"></path><path d="M265.433 216.144L277.438 209.213C279.125 208.239 279.125 206.661 277.438 205.687L268.223 200.367C266.536 199.393 266.536 197.814 268.223 196.84L296.119 180.736C297.806 179.762 300.541 179.762 302.227 180.736L316.551 189.005C318.238 189.979 320.972 189.979 322.659 189.005L338.735 179.724C340.421 178.751 340.421 177.172 338.735 176.198L326.537 169.156" stroke="#151E29" stroke-linejoin="bevel"></path><path d="M253.101 133.403C256.151 131.716 256.163 128.981 253.137 127.294C250.11 125.607 245.186 125.607 242.135 127.294C239.084 128.981 239.072 131.716 242.099 133.403C245.126 135.102 250.05 135.102 253.101 133.403Z" fill="#7AD1FF" stroke="#151E29" stroke-linejoin="round"></path><path d="M380.02 214.546C383.071 212.859 383.083 210.123 380.056 208.436C377.03 206.749 372.105 206.749 369.055 208.436C366.004 210.123 365.992 212.859 369.019 214.546C372.045 216.244 376.97 216.244 380.02 214.546Z" fill="#FF668A" stroke="#151E29" stroke-linejoin="round"></path><path d="M332.27 172.207C335.32 170.52 335.332 167.784 332.306 166.097C329.279 164.41 324.355 164.41 321.304 166.097C318.253 167.784 318.241 170.52 321.268 172.207C324.295 173.905 329.219 173.905 332.27 172.207Z" fill="#FFDE63" stroke="#151E29" stroke-linejoin="round"></path><path d="M369.891 208.371L364.097 205.027C362.832 204.296 360.781 204.296 359.516 205.027L342.393 214.912C341.128 215.642 341.128 216.826 342.393 217.556L346.869 220.141C348.134 220.871 348.134 222.055 346.869 222.785L322.512 236.847C321.247 237.577 319.196 237.577 317.931 236.847L315.486 235.436C314.221 234.705 312.17 234.705 310.905 235.436L308.015 237.104" stroke="#151E29" stroke-linejoin="bevel"></path><path d="M188.638 276.674C191.775 274.919 191.787 272.072 188.675 270.317C185.563 268.561 180.499 268.561 177.362 270.317C174.225 272.072 174.213 274.919 177.325 276.674C180.437 278.442 185.501 278.442 188.638 276.674Z" fill="#7AD1FF" stroke="#151E29" stroke-linejoin="round"></path><path fill-rule="evenodd" clip-rule="evenodd" d="M229.833 177.598L209.299 189.316C209.82 189.084 210.394 188.992 210.963 189.049C211.532 189.105 212.076 189.31 212.539 189.64L212.539 189.64C213.859 190.487 214.957 191.629 215.741 192.975C216.526 194.32 216.976 195.83 217.053 197.379C217.114 197.923 217.024 198.473 216.793 198.971C216.562 199.47 216.2 199.898 215.743 200.21L236.277 188.492C236.731 188.169 237.092 187.733 237.322 187.23C237.552 186.727 237.643 186.175 237.588 185.626C237.504 184.078 237.053 182.57 236.268 181.225C235.484 179.88 234.39 178.736 233.073 177.885L233.073 177.885C232.612 177.55 232.066 177.346 231.494 177.295C230.923 177.245 230.348 177.349 229.833 177.598Z" fill="#7AD1FF"></path><path d="M209.299 189.316L209.051 188.882L209.503 189.773L209.299 189.316ZM229.833 177.598L229.615 177.148L229.6 177.155L229.585 177.164L229.833 177.598ZM212.539 189.64L212.248 190.047L212.509 190.233L212.787 190.074L212.539 189.64ZM212.539 189.64L212.809 189.219L212.554 189.055L212.291 189.206L212.539 189.64ZM215.741 192.975L215.31 193.227L215.741 192.975ZM217.053 197.379L216.554 197.404L216.555 197.419L216.556 197.434L217.053 197.379ZM215.743 200.21L215.461 199.798L215.991 200.644L215.743 200.21ZM236.277 188.492L236.525 188.926L236.547 188.914L236.567 188.899L236.277 188.492ZM237.322 187.23L236.867 187.022H236.867L237.322 187.23ZM237.588 185.626L237.089 185.653L237.089 185.664L237.09 185.676L237.588 185.626ZM236.268 181.225L236.7 180.973V180.973L236.268 181.225ZM233.073 177.885L233.345 177.465L233.089 177.3L232.825 177.451L233.073 177.885ZM233.073 177.885L232.779 178.289L233.041 178.479L233.321 178.319L233.073 177.885ZM231.494 177.295L231.45 177.793L231.494 177.295ZM209.547 189.751L230.081 178.032L229.585 177.164L209.051 188.882L209.547 189.751ZM211.012 188.551C210.357 188.486 209.696 188.591 209.095 188.86L209.503 189.773C209.943 189.576 210.43 189.498 210.913 189.546L211.012 188.551ZM212.829 189.233C212.295 188.852 211.668 188.616 211.012 188.551L210.913 189.546C211.396 189.594 211.856 189.767 212.248 190.047L212.829 189.233ZM212.291 189.206L212.29 189.206L212.787 190.074L212.787 190.074L212.291 189.206ZM216.173 192.723C215.348 191.309 214.195 190.109 212.809 189.219L212.269 190.061C213.523 190.866 214.565 191.95 215.31 193.227L216.173 192.723ZM217.553 197.354C217.471 195.724 216.998 194.137 216.173 192.723L215.31 193.227C216.054 194.503 216.48 195.935 216.554 197.404L217.553 197.354ZM217.247 199.181C217.516 198.601 217.621 197.959 217.55 197.324L216.556 197.434C216.607 197.887 216.532 198.346 216.339 198.761L217.247 199.181ZM216.025 200.623C216.556 200.26 216.978 199.762 217.247 199.181L216.339 198.761C216.147 199.177 215.843 199.536 215.461 199.798L216.025 200.623ZM236.029 188.058L215.495 199.776L215.991 200.644L236.525 188.926L236.029 188.058ZM236.867 187.022C236.674 187.445 236.371 187.812 235.987 188.085L236.567 188.899C237.092 188.526 237.51 188.022 237.776 187.438L236.867 187.022ZM237.09 185.676C237.137 186.136 237.06 186.6 236.867 187.022L237.776 187.438C238.043 186.855 238.15 186.213 238.085 185.576L237.09 185.676ZM235.836 181.477C236.581 182.753 237.009 184.184 237.089 185.653L238.087 185.599C237.999 183.971 237.524 182.386 236.7 180.973L235.836 181.477ZM232.802 178.305C234.053 179.114 235.092 180.201 235.836 181.477L236.7 180.973C235.876 179.56 234.726 178.359 233.345 177.465L232.802 178.305ZM233.321 178.319L233.322 178.319L232.825 177.451L232.825 177.451L233.321 178.319ZM231.45 177.793C231.932 177.836 232.391 178.008 232.779 178.289L233.367 177.48C232.832 177.091 232.199 176.856 231.538 176.797L231.45 177.793ZM230.05 178.048C230.483 177.839 230.968 177.751 231.45 177.793L231.538 176.797C230.877 176.739 230.212 176.859 229.615 177.148L230.05 178.048Z" fill="#151E29"></path><path d="M212.539 189.64C213.859 190.488 214.957 191.63 215.741 192.975C216.526 194.321 216.976 195.83 217.053 197.38C217.053 200.211 215.014 201.357 212.502 199.924C211.178 199.081 210.077 197.939 209.292 196.592C208.507 195.246 208.06 193.735 207.988 192.184C208.17 189.353 210.027 188.207 212.539 189.64Z" fill="#7AD1FF" stroke="#151E29"></path><path d="M199.791 200.681C200.181 200.94 200.504 201.288 200.735 201.696C200.966 202.103 201.098 202.56 201.12 203.028C201.12 203.443 200.974 203.74 200.735 203.88C200.491 204.024 200.15 204.004 199.769 203.78C199.379 203.524 199.054 203.18 198.82 202.777C198.585 202.373 198.448 201.92 198.418 201.455C198.418 201.024 198.572 200.726 198.82 200.587C199.069 200.448 199.413 200.47 199.791 200.681Z" fill="#7AD1FF" stroke="#151E29"></path><path d="M200.735 201.696C200.504 201.288 200.181 200.94 199.791 200.681C199.413 200.47 199.069 200.448 198.82 200.587L211.183 193.432C211.435 193.198 211.835 193.182 212.282 193.432C212.672 193.692 212.995 194.039 213.226 194.447C213.457 194.855 213.588 195.311 213.61 195.779C213.61 196.279 213.399 196.607 213.07 196.698L200.735 203.88C200.974 203.74 201.12 203.443 201.12 203.028C201.098 202.56 200.966 202.103 200.735 201.696Z" fill="white" stroke="#151E29"></path><path d="M241.659 221.999L262.193 210.28C262.708 210.031 263.283 209.927 263.854 209.978C264.426 210.028 264.972 210.232 265.433 210.567L244.899 222.322C244.436 221.992 243.892 221.788 243.323 221.731C242.754 221.674 242.18 221.766 241.659 221.999Z" fill="#FFDE63" stroke="#151E29"></path><path d="M268.637 221.174L248.103 232.893C248.56 232.58 248.922 232.152 249.153 231.654C249.384 231.155 249.474 230.606 249.413 230.061C249.336 228.512 248.886 227.003 248.102 225.657C247.317 224.312 246.219 223.169 244.899 222.322L265.433 210.567C266.75 211.419 267.844 212.563 268.628 213.907C269.413 215.252 269.865 216.76 269.948 218.308C270.003 218.857 269.912 219.41 269.682 219.913C269.452 220.416 269.091 220.851 268.637 221.174Z" fill="#FFDE63" stroke="#151E29"></path><path d="M244.899 222.323C246.219 223.17 247.317 224.312 248.102 225.658C248.886 227.003 249.336 228.512 249.414 230.062C249.414 232.893 247.375 234.039 244.862 232.606C243.538 231.763 242.438 230.621 241.652 229.274C240.867 227.928 240.42 226.418 240.348 224.867C240.53 222.036 242.387 220.889 244.899 222.323Z" fill="#D9B54A" stroke="#151E29"></path><path d="M232.151 233.363C232.541 233.623 232.864 233.97 233.095 234.378C233.326 234.786 233.458 235.242 233.48 235.71C233.48 236.126 233.334 236.422 233.095 236.563C232.851 236.706 232.51 236.686 232.129 236.462C231.739 236.206 231.414 235.863 231.18 235.459C230.946 235.056 230.808 234.603 230.778 234.137C230.778 233.707 230.932 233.409 231.18 233.27C231.429 233.13 231.773 233.152 232.151 233.363Z" fill="#FFDE63" stroke="#151E29"></path><path d="M233.095 234.378C232.864 233.97 232.541 233.623 232.151 233.363C231.774 233.152 231.429 233.13 231.18 233.27L243.544 226.114C243.795 225.88 244.195 225.865 244.642 226.114C245.032 226.374 245.355 226.722 245.586 227.13C245.817 227.537 245.949 227.993 245.971 228.461C245.971 228.961 245.759 229.289 245.43 229.38L233.095 236.563C233.334 236.422 233.48 236.126 233.48 235.71C233.458 235.242 233.326 234.786 233.095 234.378Z" fill="white" stroke="#151E29"></path><path d="M301.378 233.123L280.844 244.841C281.365 244.608 281.939 244.517 282.508 244.573C283.077 244.63 283.621 244.834 284.084 245.165C285.404 246.012 286.502 247.154 287.287 248.5C288.072 249.845 288.521 251.354 288.599 252.904C288.659 253.448 288.569 253.998 288.338 254.496C288.108 254.994 287.745 255.423 287.288 255.735L307.823 244.017C308.277 243.693 308.637 243.258 308.867 242.755C309.097 242.252 309.189 241.699 309.133 241.15C309.05 239.602 308.598 238.094 307.814 236.75C307.03 235.405 305.935 234.261 304.619 233.409C304.157 233.074 303.611 232.871 303.04 232.82C302.468 232.769 301.893 232.874 301.378 233.123Z" fill="#FF668A" stroke="#151E29"></path><path d="M284.084 245.165C285.405 246.012 286.502 247.155 287.287 248.5C288.072 249.846 288.521 251.355 288.599 252.904C288.599 255.735 286.56 256.882 284.048 255.448C282.723 254.605 281.623 253.463 280.838 252.117C280.052 250.77 279.605 249.26 279.533 247.709C279.715 244.878 281.572 243.732 284.084 245.165Z" fill="#ED1252" stroke="#151E29"></path><path d="M271.336 256.205C271.726 256.465 272.05 256.813 272.281 257.221C272.511 257.628 272.643 258.084 272.665 258.552C272.665 258.968 272.519 259.265 272.281 259.405C272.036 259.549 271.695 259.529 271.314 259.305C270.924 259.048 270.6 258.705 270.365 258.302C270.131 257.898 269.993 257.445 269.964 256.979C269.964 256.549 270.118 256.251 270.365 256.112C270.615 255.973 270.959 255.994 271.336 256.205Z" fill="#FF668A" stroke="#151E29"></path><path d="M272.281 257.221C272.05 256.813 271.726 256.465 271.336 256.205C270.959 255.994 270.615 255.973 270.365 256.112L282.729 248.957C282.98 248.722 283.38 248.707 283.827 248.957C284.217 249.217 284.541 249.564 284.771 249.972C285.002 250.38 285.134 250.836 285.156 251.304C285.156 251.804 284.945 252.132 284.616 252.222L272.281 259.405C272.519 259.265 272.665 258.968 272.665 258.552C272.643 258.084 272.511 257.628 272.281 257.221Z" fill="white" stroke="#151E29"></path><rect opacity="0.4" width="150.621" height="43.2984" transform="matrix(0.866044 0.499967 -0.866044 0.499967 181.932 229.984)" fill="#006FD6"></rect><path d="M293.581 316.137C288.684 318.968 283.988 319.442 280.518 317.459C277.048 315.475 275.086 311.214 275.072 305.586L293.528 294.924L311.984 284.262C311.999 289.889 310.072 296.404 306.618 302.385C303.165 308.367 298.478 313.307 293.581 316.137Z" fill="#FFDE63" stroke="#151E29" stroke-linejoin="round"></path><path d="M280.522 317.461L242.214 295.199L203.907 272.937C200.437 270.953 198.475 266.692 198.461 261.065L236.769 283.327L275.076 305.589C275.076 311.208 277.044 315.491 280.522 317.461Z" fill="#FFDE63"></path><path d="M203.907 272.937L149.826 241.545C146.356 239.561 144.395 235.3 144.38 229.673L198.461 261.065C198.461 266.684 200.429 270.968 203.907 272.937Z" fill="#FFDE63"></path><path d="M203.907 272.937C200.437 270.953 198.475 266.692 198.461 261.065M203.907 272.937L242.214 295.199L280.522 317.461C277.044 315.491 275.076 311.208 275.076 305.589L236.769 283.327L198.461 261.065M203.907 272.937C200.429 270.968 198.461 266.684 198.461 261.065M203.907 272.937L149.826 241.545C146.356 239.561 144.395 235.3 144.38 229.673L198.461 261.065" stroke="#151E29" stroke-linejoin="round"></path><path fill-rule="evenodd" clip-rule="evenodd" d="M293.529 294.924L293.526 294.922L275.056 305.576L221.01 274.168L220.987 274.181L144.385 229.666L162.841 219.003L162.844 219.005L181.299 208.343L235.346 239.751L235.369 239.738L311.985 284.262L293.529 294.924Z" fill="#D9B54A"></path><path d="M293.526 294.922L293.778 294.49C293.623 294.4 293.432 294.4 293.277 294.489L293.526 294.922ZM293.529 294.924L293.278 295.356C293.432 295.446 293.624 295.446 293.779 295.357L293.529 294.924ZM275.056 305.576L274.805 306.008C274.96 306.098 275.151 306.099 275.306 306.009L275.056 305.576ZM221.01 274.168L221.261 273.735C221.106 273.645 220.915 273.645 220.76 273.735L221.01 274.168ZM220.987 274.181L220.735 274.613C220.89 274.703 221.081 274.704 221.236 274.614L220.987 274.181ZM144.385 229.666L144.135 229.233C143.981 229.322 143.886 229.487 143.885 229.665C143.885 229.843 143.98 230.008 144.134 230.098L144.385 229.666ZM162.841 219.003L163.093 218.571C162.938 218.481 162.746 218.481 162.591 218.571L162.841 219.003ZM162.844 219.005L162.592 219.437C162.747 219.527 162.939 219.527 163.094 219.438L162.844 219.005ZM181.299 208.343L181.55 207.911C181.395 207.821 181.204 207.82 181.049 207.91L181.299 208.343ZM235.346 239.751L235.095 240.183C235.25 240.274 235.441 240.274 235.596 240.184L235.346 239.751ZM235.369 239.738L235.62 239.306C235.465 239.216 235.274 239.215 235.119 239.305L235.369 239.738ZM311.985 284.262L312.235 284.695C312.389 284.605 312.485 284.441 312.485 284.262C312.485 284.084 312.39 283.919 312.236 283.829L311.985 284.262ZM293.275 295.355L293.278 295.356L293.78 294.492L293.778 294.49L293.275 295.355ZM275.306 306.009L293.776 295.356L293.277 294.489L274.807 305.143L275.306 306.009ZM220.758 274.6L274.805 306.008L275.308 305.144L221.261 273.735L220.758 274.6ZM221.236 274.614L221.26 274.601L220.76 273.735L220.737 273.748L221.236 274.614ZM144.134 230.098L220.735 274.613L221.238 273.749L144.637 229.233L144.134 230.098ZM162.591 218.571L144.135 229.233L144.635 230.099L163.091 219.436L162.591 218.571ZM163.095 218.573L163.093 218.571L162.59 219.436L162.592 219.437L163.095 218.573ZM181.049 207.91L162.594 218.572L163.094 219.438L181.549 208.776L181.049 207.91ZM235.597 239.319L181.55 207.911L181.048 208.775L235.095 240.183L235.597 239.319ZM235.119 239.305L235.096 239.318L235.596 240.184L235.619 240.171L235.119 239.305ZM312.236 283.829L235.62 239.306L235.118 240.17L311.734 284.694L312.236 283.829ZM293.779 295.357L312.235 284.695L311.735 283.829L293.279 294.491L293.779 295.357Z" fill="#151E29"></path><path d="M176.974 193.019L306.702 268.714C303.343 266.751 298.696 267.028 293.566 270.008L163.861 194.313C168.991 191.333 173.638 191.056 176.974 193.019Z" fill="white" stroke="#151E29" stroke-linejoin="round"></path><path d="M293.566 270.008C303.757 264.095 311.97 268.83 311.97 280.587L275.162 301.976C275.047 290.219 283.375 275.898 293.566 270.008Z" fill="white" stroke="#151E29" stroke-linejoin="round"></path><path d="M275.161 301.977L145.456 226.305C145.456 214.548 153.669 200.227 163.861 194.313L293.566 270.008C283.374 275.898 275.046 290.219 275.161 301.977Z" fill="white" stroke="#151E29" stroke-linejoin="round"></path><path d="M166.686 310.025L182.196 301.072C185.544 299.139 185.544 296.005 182.196 294.072L172.228 288.318C168.88 286.385 168.88 283.251 172.228 281.318L173.69 280.474L179.083 277.36" stroke="#151E29" stroke-linejoin="bevel"></path><path d="M175.673 311.199C178.724 309.512 178.736 306.777 175.709 305.09C172.683 303.403 167.758 303.403 164.708 305.09C161.657 306.777 161.645 309.512 164.672 311.199C167.698 312.898 172.623 312.898 175.673 311.199Z" fill="#FFDE63" stroke="#151E29" stroke-linejoin="round"></path><path d="M188.669 276.617C191.72 274.93 191.732 272.195 188.705 270.508C185.678 268.821 180.754 268.821 177.703 270.508C174.653 272.195 174.641 274.93 177.667 276.617C180.694 278.316 185.618 278.316 188.669 276.617Z" stroke="#151E29" stroke-linejoin="round"></path><rect opacity="0.4" width="144.163" height="56.6277" rx="11" transform="matrix(0.866044 0.499967 -0.866044 0.499967 92.2018 283.588)" fill="#006FD6"></rect><path d="M83.803 277.756C88.4416 275.078 95.9622 275.078 100.601 277.756L208.655 340.136C213.293 342.813 213.293 347.155 208.655 349.833L176.41 368.448C171.772 371.125 164.251 371.125 159.612 368.448L51.5587 306.068C46.9201 303.39 46.9201 299.049 51.5586 296.371L83.803 277.756Z" fill="white" stroke="#151E29" stroke-linejoin="round"></path><path d="M100.147 315.892L100.147 321.838C100.147 325.912 102.815 330.018 108.088 333.114C118.731 339.404 136.061 339.404 146.8 333.114C152.234 329.986 154.903 325.814 154.903 321.675L155.153 315.885C155.153 320.024 152.202 324.007 146.8 327.168C136.061 333.457 118.731 333.457 108.088 327.168C102.815 324.039 100.147 319.966 100.147 315.892Z" fill="#0056B3" stroke="#0056B3" stroke-miterlimit="10" stroke-linejoin="round"></path><path d="M100.191 316.086C100.166 307.293 112.45 300.129 127.629 300.086C142.808 300.043 155.133 307.137 155.158 315.93C155.183 324.723 142.898 331.887 127.719 331.93C112.541 331.973 100.216 324.879 100.191 316.086Z" fill="#A3E2FF" stroke="#0056B3" stroke-miterlimit="10" stroke-linejoin="round"></path><path d="M107.947 308.674L107.947 312.403C107.947 315.322 109.86 318.265 113.638 320.484C121.265 324.991 133.684 324.991 141.38 320.483C145.274 318.242 147.186 315.252 147.186 312.286L147.365 308.669C147.365 311.635 145.251 314.489 141.38 316.754C133.684 321.262 121.265 321.262 113.638 316.754C109.86 314.513 107.947 311.593 107.947 308.674Z" fill="#0056B3" stroke="#0056B3" stroke-miterlimit="10" stroke-linejoin="round"></path><path d="M107.979 308.813C107.961 302.512 116.764 297.379 127.642 297.348C138.519 297.317 147.351 302.4 147.369 308.702C147.387 315.003 138.584 320.136 127.706 320.167C116.829 320.198 107.997 315.115 107.979 308.813Z" fill="#A3E2FF" stroke="#0056B3" stroke-miterlimit="10" stroke-linejoin="round"></path><path d="M123.205 308.77C123.201 307.34 125.199 306.176 127.667 306.169C130.135 306.162 132.139 307.315 132.143 308.745C132.147 310.175 130.15 311.34 127.681 311.347C125.213 311.354 123.209 310.2 123.205 308.77Z" fill="#0056B3" stroke="#0056B3" stroke-miterlimit="10" stroke-linejoin="round"></path><mask id="mask0_1391_1235" style="mask-type:alpha" maskUnits="userSpaceOnUse" x="122" y="270" width="11" height="42"><path d="M127.681 311.347C125.213 311.354 123.209 310.2 123.205 308.77C123.203 308.179 123.544 307.633 124.118 307.196L124.118 270.71L131.255 270.71L131.255 307.201C131.811 307.631 132.141 308.165 132.143 308.745C132.147 310.175 130.15 311.34 127.681 311.347Z" fill="#0056B3" stroke="#0056B3" stroke-miterlimit="10" stroke-linejoin="round"></path></mask><g mask="url(#mask0_1391_1235)"><path d="M130.13 271.037L130.013 310.815C130.013 311.168 129.777 311.521 129.307 311.786C128.365 312.315 126.865 312.315 125.924 311.786C125.453 311.521 125.218 311.168 125.218 310.815L125.336 271.037C125.336 271.39 125.571 271.743 126.042 272.008C126.983 272.538 128.483 272.538 129.424 272.008C129.895 271.743 130.13 271.39 130.13 271.037Z" fill="white" stroke="#151E29" stroke-miterlimit="10" stroke-linejoin="round"></path><path opacity="0.4" d="M130.13 238.494L130.013 278.272C130.013 278.625 129.777 278.978 129.307 279.243C128.365 279.772 126.865 279.772 125.924 279.243C125.453 278.978 125.218 278.625 125.218 278.272L125.336 238.494C125.336 238.847 125.571 239.2 126.042 239.465C126.983 239.994 128.483 239.994 129.424 239.465C129.895 239.2 130.13 238.847 130.13 238.494Z" fill="#006FD6"></path><path d="M130.13 271.037L130.013 310.815C130.013 311.168 129.777 311.521 129.307 311.786C128.365 312.315 126.865 312.315 125.924 311.786C125.453 311.521 125.218 311.168 125.218 310.815L125.336 271.037C125.336 271.39 125.571 271.743 126.042 272.008C126.983 272.538 128.483 272.538 129.424 272.008C129.895 271.743 130.13 271.39 130.13 271.037Z" stroke="#151E29" stroke-miterlimit="10" stroke-linejoin="round"></path></g><path d="M125.273 306.578C124.027 307.041 123.202 307.851 123.205 308.77C123.209 310.2 125.213 311.354 127.681 311.347C130.15 311.34 132.147 310.175 132.143 308.745C132.141 307.834 131.327 307.036 130.099 306.578" stroke="#151E29" stroke-miterlimit="10" stroke-linejoin="round"></path><circle cx="127.675" cy="260.457" r="13.6744" transform="rotate(90 127.675 260.457)" fill="#FF668A"></circle><path opacity="0.5" fill-rule="evenodd" clip-rule="evenodd" d="M117.653 257.013C117.653 264.566 123.775 270.688 131.327 270.688C134.051 270.688 136.589 269.891 138.721 268.518C136.233 271.921 132.212 274.131 127.675 274.131C120.123 274.131 114 268.008 114 260.456C114 255.628 116.503 251.384 120.281 248.951C118.628 251.212 117.653 253.999 117.653 257.013Z" fill="#CC254B"></path><circle cx="127.675" cy="260.457" r="13.1744" transform="rotate(90 127.675 260.457)" stroke="#151E29"></circle><path d="M158.154 339.132C157.686 338.862 157.686 338.424 158.154 338.154C158.621 337.884 159.379 337.884 159.847 338.154L162.121 339.467C164.901 341.072 169.654 339.935 169.654 337.666L169.654 335.809C169.654 335.427 170.19 335.118 170.851 335.118C171.513 335.118 172.048 335.427 172.048 335.809L172.048 337.666C172.048 339.935 176.802 341.072 179.582 339.467L181.856 338.154C182.323 337.884 183.081 337.884 183.549 338.154C184.016 338.424 184.016 338.862 183.549 339.132L181.275 340.444C178.495 342.049 180.464 344.794 184.395 344.794L187.612 344.794C188.273 344.794 188.809 345.103 188.809 345.485C188.809 345.866 188.273 346.176 187.612 346.176L184.395 346.176C180.464 346.176 178.495 348.92 181.275 350.525L183.549 351.837C184.016 352.107 184.016 352.545 183.549 352.815C183.081 353.085 182.323 353.085 181.856 352.815L179.582 351.502C176.802 349.897 172.048 351.034 172.048 353.303L172.048 355.16C172.048 355.542 171.513 355.851 170.851 355.851C170.19 355.851 169.654 355.542 169.654 355.16L169.654 353.303C169.654 351.034 164.901 349.897 162.121 351.502L159.847 352.815C159.379 353.085 158.621 353.085 158.154 352.815C157.686 352.545 157.686 352.107 158.154 351.837L160.428 350.525C163.208 348.92 161.239 346.176 157.308 346.176L154.092 346.176C153.431 346.176 152.895 345.866 152.895 345.484C152.895 345.103 153.431 344.793 154.092 344.793L157.308 344.793C161.239 344.793 163.208 342.049 160.428 340.444L158.154 339.132Z" fill="#7AD1FF"></path><path d="M181.124 339.439C175.556 336.225 166.528 336.225 160.959 339.439L160.579 339.659C155.01 342.874 155.01 348.085 160.579 351.3C166.147 354.514 175.175 354.514 180.743 351.3L181.124 351.08C186.692 347.866 186.692 342.654 181.124 339.439Z" fill="#A3E2FF" stroke="#7AD1FF"></path><path d="M163.997 333.097C167.849 330.873 174.095 330.873 177.947 333.097C179.753 334.139 180.713 335.486 180.825 336.852L180.825 344.681C180.712 346.047 179.753 347.393 177.947 348.436L177.683 348.588C173.831 350.812 167.585 350.812 163.733 348.588C161.811 347.478 160.848 346.024 160.844 344.57L160.844 337.261C160.85 335.809 161.813 334.357 163.733 333.249L163.997 333.097Z" fill="#FFDE63" stroke="#151E29"></path><path d="M177.945 333.019C174.093 330.795 167.847 330.795 163.995 333.019L163.731 333.171C159.879 335.395 159.879 339.001 163.731 341.225C167.584 343.448 173.829 343.448 177.682 341.225L177.945 341.072C181.797 338.848 181.797 335.243 177.945 333.019Z" fill="#FFF4B5" stroke="#151E29"></path><path d="M170.834 337.3L180.028 338.613" stroke="#151E29" stroke-linecap="round"></path><rect width="35.5217" height="5.43452" rx="2.71726" transform="matrix(-0.866044 0.499968 0.866044 0.499967 101.75 291.168)" fill="white" stroke="#151E29"></rect><path d="M81.6234 300.602C82.9231 299.852 85.0303 299.852 86.3299 300.602C86.9376 300.953 87.2611 301.406 87.3006 301.865L87.3006 304.002C87.3444 304.524 87.021 305.055 86.3299 305.454L77.9262 310.305C76.6265 311.055 74.5193 311.055 73.2196 310.305C72.5744 309.933 72.2495 309.445 72.2449 308.957L72.2449 306.802C72.2495 306.314 72.5744 305.826 73.2196 305.454L81.6234 300.602Z" fill="#ED1252" stroke="#151E29"></path><path d="M86.1844 300.251C84.8848 299.501 82.7776 299.501 81.4779 300.251L73.2311 305.012C71.9314 305.763 71.9314 306.979 73.2311 307.729C74.5307 308.48 76.6379 308.48 77.9376 307.729L86.1844 302.969C87.4841 302.218 87.4841 301.002 86.1844 300.251Z" fill="#FF668A" stroke="#151E29"></path><rect width="35.5217" height="5.43452" rx="2.71726" transform="matrix(-0.866044 0.499968 0.866044 0.499967 91.0447 284.977)" fill="white" stroke="#151E29"></rect><path d="M88.7992 284.034C90.0989 283.284 92.2061 283.284 93.5058 284.034C94.1134 284.385 94.4369 284.838 94.4764 285.297L94.4764 287.433C94.5203 287.956 94.1969 288.487 93.5058 288.886L85.102 293.737C83.8023 294.487 81.6952 294.487 80.3955 293.737C79.7502 293.365 79.4253 292.877 79.4208 292.389L79.4208 290.234C79.4253 289.746 79.7502 289.258 80.3955 288.886L88.7992 284.034Z" fill="#D9B54A" stroke="#151E29"></path><path d="M93.3604 283.683C92.0607 282.933 89.9535 282.933 88.6539 283.683L80.407 288.444C79.1073 289.195 79.1073 290.411 80.407 291.161C81.7067 291.912 83.8139 291.912 85.1136 291.161L93.3604 286.4C94.6601 285.65 94.6601 284.434 93.3604 283.683Z" fill="#FFDE63" stroke="#151E29"></path><rect opacity="0.4" width="77.788" height="77.788" rx="11" transform="matrix(0.866044 0.499967 -0.866044 0.499967 355.968 97.8975)" fill="#006FD6"></rect><rect width="77.788" height="77.788" rx="11" transform="matrix(0.866044 0.499967 -0.866044 0.499967 355.967 88.596)" fill="#7AD1FF" stroke="white" stroke-linejoin="round"></rect><path d="M368.21 132.838C370.35 134.074 370.362 136.085 368.235 137.32C366.108 138.555 362.638 138.556 360.498 137.32C358.357 136.084 358.346 134.073 360.473 132.837C362.599 131.602 366.069 131.602 368.21 132.838Z" fill="#FF668A" stroke="#151E29" stroke-linejoin="round"></path><path d="M361.831 98.8828L361.836 134.164C361.836 134.536 362.081 134.908 362.569 135.192C363.551 135.764 365.149 135.764 366.138 135.192C366.635 134.904 366.884 134.527 366.883 134.149L366.878 98.8684C366.878 99.2457 366.631 99.6235 366.133 99.9113C365.145 100.483 363.547 100.483 362.565 99.9113C362.077 99.627 361.832 99.256 361.831 98.8828Z" fill="#7AD1FF" stroke="#151E29" stroke-linejoin="round"></path><path d="M361.828 98.8757C361.825 98.0389 362.954 97.3574 364.349 97.3535C365.743 97.3496 366.876 98.0248 366.878 98.8616C366.881 99.6984 365.752 100.38 364.357 100.384C362.963 100.388 361.83 99.7125 361.828 98.8757Z" fill="white" stroke="#151E29" stroke-linejoin="round"></path><path d="M356.999 126.996C359.139 128.232 359.151 130.243 357.024 131.478C354.897 132.713 351.427 132.714 349.287 131.478C347.147 130.242 347.135 128.231 349.262 126.995C351.388 125.76 354.858 125.76 356.999 126.996Z" fill="#FFDE63" stroke="#151E29" stroke-linejoin="round"></path><path d="M350.621 93.0405L350.625 128.321C350.625 128.694 350.87 129.066 351.358 129.35C352.34 129.922 353.938 129.922 354.927 129.35C355.424 129.062 355.673 128.684 355.672 128.307L355.667 93.0261C355.667 93.4034 355.42 93.7812 354.922 94.069C353.934 94.641 352.336 94.641 351.354 94.069C350.866 93.7847 350.622 93.4137 350.621 93.0405Z" fill="#7AD1FF" stroke="#151E29" stroke-linejoin="round"></path><path d="M350.617 93.0335C350.615 92.1967 351.743 91.5152 353.138 91.5113C354.533 91.5074 355.665 92.1826 355.667 93.0194C355.67 93.8562 354.541 94.5377 353.146 94.5416C351.752 94.5455 350.619 93.8703 350.617 93.0335Z" fill="white" stroke="#151E29" stroke-linejoin="round"></path><path d="M345.788 120.68C347.929 121.916 347.94 123.927 345.813 125.162C343.687 126.397 340.216 126.398 338.076 125.162C335.936 123.926 335.924 121.914 338.051 120.679C340.178 119.444 343.647 119.444 345.788 120.68Z" fill="#018BFF" stroke="#151E29" stroke-linejoin="round"></path><path d="M339.41 86.7245L339.414 122.005C339.414 122.378 339.659 122.75 340.147 123.034C341.13 123.606 342.727 123.606 343.716 123.034C344.213 122.746 344.462 122.368 344.461 121.991L344.457 86.7101C344.457 87.0874 344.209 87.4652 343.712 87.753C342.723 88.325 341.125 88.325 340.143 87.753C339.655 87.4688 339.411 87.0978 339.41 86.7245Z" fill="#7AD1FF" stroke="#151E29" stroke-linejoin="round"></path><path d="M339.406 86.7173C339.404 85.8805 340.532 85.199 341.927 85.1951C343.322 85.1912 344.454 85.8664 344.457 86.7032C344.459 87.54 343.33 88.2215 341.936 88.2254C340.541 88.2293 339.408 87.5541 339.406 86.7173Z" fill="white" stroke="#151E29" stroke-linejoin="round"></path><path d="M316.747 49.2783L329.742 40.8258C332.931 38.7625 337.35 39.0445 342.227 42.2013L329.232 50.6538C324.355 47.497 319.937 47.215 316.747 49.2783Z" fill="#A3E2FF" stroke="#151E29" stroke-linejoin="round"></path><path d="M327.895 50.6357L341.486 42.6913L347.005 45.8975L333.413 53.8387L327.895 50.6357Z" fill="#7AD1FF" stroke="#151E29" stroke-linejoin="round"></path><path d="M340.634 42.6092L353.286 34.7586C357.38 32.2184 363.045 32.5763 369.299 36.4329L356.644 44.2835C350.392 40.4301 344.725 40.0723 340.634 42.6092Z" fill="#A3E2FF" stroke="#151E29" stroke-linejoin="round"></path><path d="M399.198 110.103L386.159 117.538C389.319 115.723 391.28 111.903 391.295 106.459C391.32 97.4996 386.079 86.9435 378.855 80.383L391.894 72.9484C399.115 79.5119 404.359 90.068 404.334 99.0271C404.319 104.465 402.358 108.304 399.198 110.103Z" fill="#A3E2FF" stroke="#151E29" stroke-linejoin="round"></path><path d="M356.56 44.0775L369.28 36.3213C380.643 43.2063 390.033 59.0123 391.594 73.1516L378.874 80.9109C377.304 66.7717 367.923 50.9625 356.56 44.0775Z" fill="#A3E2FF" stroke="#151E29" stroke-linejoin="round"></path><path d="M356.946 44.2716C368.375 50.9801 377.819 66.3843 379.389 80.1614C386.476 86.8331 391.619 97.568 391.595 106.679C391.564 117.826 383.802 122.323 374.261 116.722L329.189 90.2689C319.648 84.6676 311.946 71.0905 311.97 59.9434C311.995 48.7962 319.772 44.2931 329.31 49.9005L334.504 52.9518C336.461 41.6693 345.787 37.7137 356.946 44.2716Z" fill="white" stroke="#151E29" stroke-linejoin="round"></path><path d="M368.25 97.3973C369.299 98.0032 369.715 98.7302 369.718 99.3555C369.722 99.9792 369.316 100.704 368.275 101.308C367.237 101.911 365.838 102.228 364.409 102.228C362.981 102.228 361.577 101.912 360.531 101.307C359.482 100.701 359.066 99.9741 359.062 99.3485C359.059 98.7244 359.465 97.9999 360.505 97.3957C361.544 96.7925 362.943 96.4762 364.371 96.4763C365.8 96.4764 367.203 96.7929 368.25 97.3973Z" fill="#FFDE63" stroke="#151E29"></path><path d="M356.992 90.997C358.041 91.6029 358.457 92.3299 358.46 92.9551C358.464 93.5789 358.058 94.3033 357.017 94.9075C355.978 95.5107 354.579 95.8272 353.151 95.8274C351.722 95.8275 350.319 95.5112 349.273 94.9069C348.224 94.301 347.808 93.5738 347.804 92.9482C347.801 92.3241 348.207 91.5995 349.247 90.9954C350.286 90.3922 351.685 90.0759 353.113 90.076C354.541 90.0761 355.945 90.3926 356.992 90.997Z" fill="#018BFF" stroke="#151E29"></path><path d="M345.732 84.5966C346.781 85.2025 347.197 85.9295 347.201 86.5548C347.204 87.1785 346.798 87.9029 345.758 88.5071C344.719 89.1103 343.32 89.4269 341.892 89.427C340.463 89.4271 339.06 89.1108 338.013 88.5065C336.964 87.9006 336.548 87.1734 336.545 86.5478C336.541 85.9237 336.948 85.1991 337.988 84.595C339.027 83.9918 340.425 83.6755 341.854 83.6756C343.282 83.6757 344.685 83.9922 345.732 84.5966Z" fill="#FF668A" stroke="#151E29"></path><path fill-rule="evenodd" clip-rule="evenodd" d="M391.491 104.332L312.021 58.4542C312.043 58.1313 312.073 57.8148 312.109 57.5047L391.376 103.266C391.421 103.623 391.46 103.978 391.491 104.332Z" fill="#151E29"></path><path d="M341.191 69.1798L350.158 84.4782L359.633 84.6588L350.662 69.3616L341.191 69.1798Z" fill="#7AD1FF" stroke="#0056B3" stroke-linejoin="round"></path><path d="M359.633 84.6589L372.838 74.1391L363.873 58.8452L350.662 69.3617L359.633 84.6589Z" fill="#0056B3" stroke="#0056B3" stroke-linejoin="round"></path><path d="M350.662 69.3618L363.873 58.8453L354.398 58.6647L341.191 69.18L350.662 69.3618Z" fill="#E6F8FF" stroke="#0056B3" stroke-linejoin="round"></path><rect opacity="0.3" width="65.1385" height="65.1385" rx="11" transform="matrix(0.866044 0.499967 -0.866044 0.499967 217.054 80.6585)" fill="#006FD6"></rect><path d="M208.654 69.089C213.293 66.4111 220.813 66.4111 225.452 69.089L267.03 93.092C271.668 95.7698 271.668 100.111 267.03 102.789L225.452 126.792C220.813 129.47 213.293 129.47 208.654 126.792L167.076 102.789C162.437 100.111 162.437 95.7698 167.076 93.092L208.654 69.089Z" fill="white" stroke="#151E29" stroke-linejoin="round"></path><path d="M252.596 87.4766L252.596 94.3228C252.596 99.4712 249.184 104.674 242.304 108.672C228.654 116.669 206.143 116.669 192.328 108.672C185.393 104.674 181.925 99.4164 181.925 94.268L181.925 87.3671C181.925 92.6797 185.338 97.8281 192.328 101.771C206.143 109.768 228.544 109.768 242.304 101.772C249.184 97.8281 252.596 92.6797 252.596 87.4766Z" fill="#0056B3" stroke="#151E29" stroke-linejoin="round"></path><path d="M242.309 72.4155C256.204 80.5215 256.259 93.6662 242.473 101.772C228.687 109.878 206.258 109.878 192.362 101.772C178.467 93.6662 178.412 80.5215 192.198 72.4155C205.984 64.2548 228.413 64.2548 242.309 72.4155Z" fill="#7AD1FF" stroke="#151E29" stroke-linejoin="round"></path><path fill-rule="evenodd" clip-rule="evenodd" d="M209.29 91.1704C213.25 89.3705 218.005 86.0018 222.554 81.4535C227.102 76.9051 230.471 72.1495 232.271 68.1896C233.174 66.2034 233.641 64.506 233.72 63.1876C233.8 61.8663 233.486 61.141 233.097 60.7522C232.708 60.3634 231.983 60.0494 230.662 60.1288C229.343 60.2081 227.646 60.6755 225.659 61.5784C221.7 63.3783 216.944 66.747 212.396 71.2953C207.847 75.8437 204.479 80.5993 202.679 84.5592C201.776 86.5454 201.308 88.2428 201.229 89.5612C201.15 90.8824 201.464 91.6078 201.853 91.9966C202.241 92.3854 202.967 92.6994 204.288 92.62C205.606 92.5407 207.304 92.0733 209.29 91.1704ZM204.499 96.1402C202.6 96.2544 200.717 95.8483 199.359 94.4902C198.001 93.1322 197.595 91.2493 197.709 89.3496C197.823 87.4472 198.463 85.3111 199.468 83.0999C201.484 78.6648 205.134 73.5699 209.902 68.8017C214.67 64.0335 219.765 60.3838 224.2 58.3679C226.411 57.3628 228.548 56.723 230.45 56.6086C232.35 56.4944 234.233 56.9005 235.591 58.2586C236.949 59.6166 237.355 61.4995 237.24 63.3991C237.126 65.3016 236.486 67.4377 235.481 69.6489C233.465 74.084 229.816 79.1789 225.047 83.9471C220.279 88.7153 215.184 92.365 210.749 94.3809C208.538 95.386 206.402 96.0258 204.499 96.1402Z" fill="white" stroke="#151E29" stroke-linejoin="round"></path><path fill-rule="evenodd" clip-rule="evenodd" d="M202.679 68.1898C204.479 72.1497 207.847 76.9054 212.396 81.4537C216.944 86.002 221.7 89.3707 225.659 91.1707C227.646 92.0735 229.343 92.541 230.662 92.6202C231.983 92.6996 232.708 92.3856 233.097 91.9968C233.486 91.608 233.8 90.8827 233.72 89.5615C233.641 88.243 233.174 86.5456 232.271 84.5594C230.471 80.5995 227.102 75.8439 222.554 71.2956C218.005 66.7472 213.25 63.3785 209.29 61.5786C207.304 60.6757 205.606 60.2083 204.288 60.129C202.967 60.0496 202.241 60.3636 201.853 60.7524C201.464 61.1412 201.15 61.8666 201.229 63.1878C201.308 64.5062 201.776 66.2036 202.679 68.1898ZM197.709 63.3994C197.595 61.4997 198.001 59.6168 199.359 58.2588C200.717 56.9007 202.6 56.4947 204.499 56.6088C206.402 56.7232 208.538 57.363 210.749 58.3681C215.184 60.3841 220.279 64.0337 225.047 68.8019C229.816 73.5701 233.465 78.665 235.481 83.1001C236.486 85.3113 237.126 87.4475 237.241 89.3499C237.355 91.2495 236.949 93.1324 235.591 94.4905C234.233 95.8485 232.35 96.2546 230.45 96.1404C228.548 96.026 226.411 95.3862 224.2 94.3811C219.765 92.3652 214.67 88.7155 209.902 83.9473C205.134 79.1791 201.484 74.0842 199.468 69.6491C198.463 67.4379 197.823 65.3018 197.709 63.3994Z" fill="#FFDE63" stroke="#151E29" stroke-linejoin="round"></path><path d="M186.121 85.4244C186.121 90.1346 189.184 94.6805 195.311 98.2405C207.511 105.306 227.15 105.306 239.24 98.2405C245.532 94.5709 248.486 89.6416 248.267 84.8219C248.048 63.6808 234.153 46.6474 217.249 46.6474C200.071 46.7022 186.121 64.0094 186.121 85.4244Z" stroke="#151E29"></path><circle cx="217.336" cy="76.3744" r="5.71295" transform="rotate(60 217.336 76.3744)" fill="#FFDE63"></circle><path opacity="0.5" fill-rule="evenodd" clip-rule="evenodd" d="M214.215 76.8015C215.793 79.534 219.287 80.4702 222.019 78.8926C222.241 78.7642 222.452 78.6231 222.65 78.4708C222.193 79.6308 221.355 80.6501 220.192 81.3219C217.459 82.8995 213.965 81.9633 212.388 79.2308C210.939 76.7207 211.611 73.568 213.848 71.8486C213.232 73.4127 213.309 75.2326 214.215 76.8015Z" fill="#D9B54A"></path><circle cx="217.336" cy="76.3744" r="5.21295" transform="rotate(60 217.336 76.3744)" stroke="#151E29"></circle><path d="M233.097 60.7522C232.708 60.3634 231.983 60.0494 230.662 60.1288C229.343 60.2081 227.646 60.6755 225.659 61.5783C221.7 63.3783 216.944 66.747 212.396 71.2953C207.847 75.8436 204.479 80.5993 202.679 84.5592C201.776 86.5454 201.308 88.2428 201.229 89.5612C201.15 90.8824 201.464 91.6078 201.852 91.9966L199.359 94.4902C198.001 93.1322 197.595 91.2493 197.709 89.3496C197.823 87.4472 198.463 85.3111 199.468 83.0999C201.484 78.6648 205.134 73.5699 209.902 68.8017C214.67 64.0335 219.765 60.3838 224.2 58.3679C226.411 57.3628 228.548 56.723 230.45 56.6086C232.35 56.4944 234.232 56.9005 235.591 58.2586L233.097 60.7522Z" fill="white"></path><path d="M201.852 91.9966C201.464 91.6078 201.15 90.8824 201.229 89.5612C201.308 88.2428 201.776 86.5454 202.679 84.5592C204.479 80.5993 207.847 75.8436 212.396 71.2953C216.944 66.747 221.7 63.3783 225.659 61.5783C227.646 60.6755 229.343 60.2081 230.662 60.1288C231.983 60.0494 232.708 60.3634 233.097 60.7522L235.591 58.2586C234.232 56.9005 232.35 56.4944 230.45 56.6086C228.548 56.723 226.411 57.3628 224.2 58.3679C219.765 60.3838 214.67 64.0335 209.902 68.8017C205.134 73.5699 201.484 78.6648 199.468 83.0999C198.463 85.3111 197.823 87.4472 197.709 89.3496C197.595 91.2493 198.001 93.1322 199.359 94.4902M201.852 91.9966C202.241 92.3854 202.967 92.6994 204.288 92.62M201.852 91.9966L199.359 94.4902M199.359 94.4902C200.717 95.8483 202.6 96.2543 204.499 96.1402" stroke="#151E29" stroke-linejoin="round"></path><path d="M233.097 91.9967C233.486 91.6079 233.8 90.8826 233.72 89.5613C233.641 88.2429 233.174 86.5455 232.271 84.5593C230.471 80.5994 227.102 75.8438 222.554 71.2954C218.005 66.7471 213.25 63.3784 209.29 61.5785C207.304 60.6756 205.606 60.2082 204.288 60.1289C202.967 60.0495 202.241 60.3635 201.853 60.7523L199.359 58.2587C200.717 56.9006 202.6 56.4945 204.499 56.6087C206.402 56.7231 208.538 57.3629 210.749 58.368C215.184 60.3839 220.279 64.0336 225.047 68.8018C229.816 73.57 233.465 78.6649 235.481 83.1C236.486 85.3112 237.126 87.4473 237.24 89.3498C237.355 91.2494 236.949 93.1323 235.591 94.4903L233.097 91.9967Z" fill="#FFDE63" stroke="#151E29" stroke-linejoin="round"></path><rect opacity="0.3" width="67.5435" height="67.5435" rx="11" transform="matrix(0.866044 0.499967 -0.866044 0.499967 423.206 219.246)" fill="#006FD6"></rect><path d="M414.806 204.522C419.445 201.845 426.966 201.845 431.604 204.522L473.302 228.595C477.941 231.272 477.941 235.614 473.302 238.292L431.604 262.364C426.966 265.042 419.445 265.042 414.806 262.364L373.108 238.292C368.47 235.614 368.47 231.272 373.108 228.595L414.806 204.522Z" fill="white" stroke="#151E29" stroke-linejoin="round"></path><path fill-rule="evenodd" clip-rule="evenodd" d="M391.936 215.7V233.192C391.936 234.778 392.97 236.374 395.101 237.594L395.101 237.613L415.565 249.428L415.608 231.937L395.155 220.122L395.155 220.132V220.122C393.009 218.92 391.936 217.299 391.936 215.7Z" fill="#A3E2FF"></path><path d="M392.436 215.7C392.436 215.424 392.212 215.2 391.936 215.2C391.659 215.2 391.436 215.424 391.436 215.7H392.436ZM395.101 237.594L395.601 237.595C395.602 237.415 395.506 237.249 395.35 237.16L395.101 237.594ZM395.101 237.613L394.601 237.612C394.601 237.791 394.696 237.957 394.851 238.046L395.101 237.613ZM415.565 249.428L415.315 249.861C415.47 249.95 415.66 249.951 415.815 249.861C415.969 249.772 416.065 249.608 416.065 249.429L415.565 249.428ZM415.608 231.937L416.108 231.938C416.109 231.759 416.013 231.593 415.858 231.504L415.608 231.937ZM395.155 220.122L395.405 219.689C395.251 219.6 395.06 219.599 394.906 219.688C394.751 219.777 394.655 219.942 394.655 220.12L395.155 220.122ZM395.155 220.132H394.655C394.655 220.407 394.878 220.631 395.154 220.632C395.43 220.632 395.654 220.409 395.655 220.133L395.155 220.132ZM395.155 220.122H395.655C395.655 219.941 395.557 219.774 395.399 219.685L395.155 220.122ZM392.436 233.192V215.7H391.436V233.192H392.436ZM395.35 237.16C393.313 235.994 392.436 234.538 392.436 233.192H391.436C391.436 235.018 392.627 236.754 394.853 238.028L395.35 237.16ZM395.601 237.615L395.601 237.595L394.601 237.592L394.601 237.612L395.601 237.615ZM415.815 248.995L395.351 237.18L394.851 238.046L415.315 249.861L415.815 248.995ZM415.108 231.935L415.065 249.427L416.065 249.429L416.108 231.938L415.108 231.935ZM394.905 220.555L415.358 232.37L415.858 231.504L395.405 219.689L394.905 220.555ZM395.655 220.133L395.655 220.123L394.655 220.12L394.655 220.13L395.655 220.133ZM394.655 220.122V220.132H395.655V220.122H394.655ZM391.436 215.7C391.436 217.543 392.67 219.303 394.911 220.558L395.399 219.685C393.347 218.537 392.436 217.056 392.436 215.7H391.436Z" fill="#151E29"></path><path fill-rule="evenodd" clip-rule="evenodd" d="M454.216 215.83V233.321C454.216 234.907 453.182 236.503 451.05 237.723L451.05 237.742L430.586 249.557L430.543 232.066L450.997 220.251L450.997 220.254V220.251C453.143 219.049 454.216 217.428 454.216 215.83Z" fill="#A3E2FF"></path><path d="M453.716 215.83C453.716 215.553 453.94 215.33 454.216 215.33C454.492 215.33 454.716 215.553 454.716 215.83H453.716ZM451.05 237.723L450.55 237.724C450.55 237.544 450.646 237.378 450.802 237.289L451.05 237.723ZM451.05 237.742L451.55 237.741C451.551 237.92 451.455 238.086 451.3 238.175L451.05 237.742ZM430.586 249.557L430.836 249.99C430.682 250.08 430.491 250.08 430.337 249.991C430.182 249.902 430.087 249.737 430.086 249.559L430.586 249.557ZM430.543 232.066L430.043 232.067C430.043 231.888 430.138 231.722 430.293 231.633L430.543 232.066ZM450.997 220.251L450.746 219.818C450.901 219.729 451.091 219.729 451.246 219.817C451.4 219.906 451.496 220.071 451.497 220.249L450.997 220.251ZM450.997 220.254H451.497C451.497 220.53 451.273 220.753 450.997 220.754C450.721 220.754 450.497 220.531 450.497 220.255L450.997 220.254ZM450.997 220.251H450.497C450.497 220.07 450.594 219.903 450.752 219.815L450.997 220.251ZM453.716 233.321V215.83H454.716V233.321H453.716ZM450.802 237.289C452.839 236.123 453.716 234.667 453.716 233.321H454.716C454.716 235.147 453.524 236.883 451.298 238.157L450.802 237.289ZM450.55 237.744L450.55 237.724L451.55 237.721L451.55 237.741L450.55 237.744ZM430.336 249.124L450.8 237.309L451.3 238.175L430.836 249.99L430.336 249.124ZM431.043 232.065L431.086 249.556L430.086 249.559L430.043 232.067L431.043 232.065ZM451.247 220.684L430.793 232.499L430.293 231.633L450.746 219.818L451.247 220.684ZM450.497 220.255L450.497 220.252L451.497 220.249L451.497 220.252L450.497 220.255ZM451.497 220.251V220.254H450.497V220.251H451.497ZM454.716 215.83C454.716 217.672 453.482 219.432 451.241 220.687L450.752 219.815C452.804 218.666 453.716 217.185 453.716 215.83H454.716Z" fill="#151E29"></path><path d="M451.053 211.344C455.259 213.769 455.281 217.697 451.053 220.133L430.739 231.937C428.387 233.133 425.785 233.756 423.147 233.756C420.508 233.756 417.907 233.133 415.555 231.937L395.101 220.133C390.905 217.708 390.873 213.779 395.101 211.344L415.426 199.539C417.776 198.344 420.376 197.72 423.013 197.72C425.65 197.72 428.249 198.344 430.6 199.539L451.053 211.344Z" fill="#0056B3" stroke="#151E29" stroke-linejoin="round"></path><path d="M443.61 212.513C446.697 214.293 446.713 217.176 443.61 218.963L428.701 227.627C426.975 228.505 425.065 228.962 423.129 228.962C421.192 228.962 419.283 228.505 417.557 227.627L402.545 218.963C399.466 217.184 399.442 214.301 402.545 212.513L417.462 203.849C419.187 202.972 421.095 202.514 423.03 202.514C424.966 202.514 426.874 202.972 428.599 203.849L443.61 212.513Z" fill="white" stroke="#0056B3" stroke-linejoin="round"></path><path fill-rule="evenodd" clip-rule="evenodd" d="M444.958 217.931C446.613 216.196 446.155 213.98 443.61 212.513L428.599 203.849C426.874 202.972 424.966 202.514 423.03 202.514C421.095 202.514 419.187 202.972 417.462 203.849L402.545 212.513C399.991 213.985 399.555 216.198 401.199 217.928C401.551 217.558 402 217.21 402.545 216.896L417.462 208.233C419.187 207.355 421.095 206.898 423.03 206.898C424.966 206.898 426.874 207.355 428.599 208.233L443.61 216.896C444.155 217.211 444.605 217.559 444.958 217.931Z" fill="#0056B3"></path><path d="M443.61 212.513L443.36 212.946L443.36 212.946L443.61 212.513ZM444.958 217.931L444.596 218.275C444.69 218.374 444.821 218.43 444.958 218.431C445.095 218.431 445.226 218.375 445.32 218.276L444.958 217.931ZM428.599 203.849L428.849 203.416C428.841 203.412 428.833 203.408 428.825 203.404L428.599 203.849ZM417.462 203.849L417.235 203.404C417.227 203.408 417.219 203.412 417.211 203.417L417.462 203.849ZM402.545 212.513L402.795 212.946L402.796 212.945L402.545 212.513ZM401.199 217.928L400.836 218.273C400.931 218.372 401.061 218.428 401.198 218.428C401.335 218.428 401.466 218.372 401.561 218.273L401.199 217.928ZM402.545 216.896L402.795 217.33L402.796 217.329L402.545 216.896ZM417.462 208.233L417.235 207.787C417.227 207.791 417.219 207.796 417.211 207.8L417.462 208.233ZM428.599 208.233L428.849 207.8C428.841 207.795 428.833 207.791 428.825 207.787L428.599 208.233ZM443.61 216.896L443.36 217.329L443.36 217.33L443.61 216.896ZM443.36 212.946C444.557 213.636 445.188 214.458 445.372 215.236C445.552 215.997 445.329 216.817 444.596 217.585L445.32 218.276C446.242 217.309 446.617 216.154 446.345 215.006C446.078 213.876 445.208 212.857 443.86 212.08L443.36 212.946ZM428.349 204.282L443.36 212.946L443.86 212.08L428.849 203.416L428.349 204.282ZM423.03 203.014C424.887 203.014 426.717 203.453 428.372 204.295L428.825 203.404C427.03 202.49 425.045 202.014 423.03 202.014V203.014ZM417.689 204.295C419.344 203.453 421.174 203.014 423.03 203.014V202.014C421.016 202.014 419.03 202.49 417.235 203.404L417.689 204.295ZM402.796 212.945L417.713 204.282L417.211 203.417L402.294 212.08L402.796 212.945ZM401.561 217.584C400.832 216.817 400.607 215.997 400.784 215.237C400.966 214.461 401.594 213.638 402.795 212.946L402.295 212.08C400.942 212.859 400.075 213.879 399.811 215.01C399.543 216.157 399.921 217.31 400.836 218.273L401.561 217.584ZM401.561 218.273C401.875 217.943 402.285 217.624 402.795 217.33L402.295 216.463C401.715 216.797 401.227 217.174 400.837 217.583L401.561 218.273ZM402.796 217.329L417.713 208.665L417.211 207.8L402.294 216.464L402.796 217.329ZM417.689 208.678C419.343 207.837 421.174 207.398 423.03 207.398V206.398C421.016 206.398 419.03 206.874 417.235 207.787L417.689 208.678ZM423.03 207.398C424.887 207.398 426.717 207.837 428.372 208.678L428.825 207.787C427.03 206.874 425.044 206.398 423.03 206.398V207.398ZM428.349 208.666L443.36 217.329L443.86 216.463L428.849 207.8L428.349 208.666ZM443.36 217.33C443.871 217.624 444.281 217.944 444.596 218.275L445.32 217.586C444.929 217.175 444.44 216.798 443.86 216.463L443.36 217.33Z" fill="#0056B3"></path><path d="M430.793 231.937V249.428C428.444 250.629 425.844 251.255 423.206 251.255C420.568 251.255 417.968 250.629 415.619 249.428V231.937C417.97 233.131 420.569 233.753 423.206 233.753C425.842 233.753 428.442 233.131 430.793 231.937Z" fill="#A3E2FF" stroke="#151E29" stroke-linejoin="round"></path><path fill-rule="evenodd" clip-rule="evenodd" d="M391.936 193.407V210.899C391.936 212.485 392.97 214.081 395.101 215.301L395.101 215.32L415.565 227.135L415.608 209.644L395.155 197.829L395.155 197.839V197.829C393.009 196.627 391.936 195.006 391.936 193.407Z" fill="#A3E2FF"></path><path d="M392.436 193.407C392.436 193.131 392.212 192.907 391.936 192.907C391.659 192.907 391.436 193.131 391.436 193.407H392.436ZM395.101 215.301L395.601 215.302C395.602 215.122 395.506 214.956 395.35 214.867L395.101 215.301ZM395.101 215.32L394.601 215.319C394.601 215.498 394.696 215.664 394.851 215.753L395.101 215.32ZM415.565 227.135L415.315 227.568C415.47 227.657 415.66 227.657 415.815 227.568C415.969 227.479 416.065 227.315 416.065 227.136L415.565 227.135ZM415.608 209.644L416.108 209.645C416.109 209.466 416.013 209.3 415.858 209.211L415.608 209.644ZM395.155 197.829L395.405 197.396C395.251 197.306 395.06 197.306 394.906 197.395C394.751 197.484 394.655 197.649 394.655 197.827L395.155 197.829ZM395.155 197.839H394.655C394.655 198.114 394.878 198.338 395.154 198.339C395.43 198.339 395.654 198.116 395.655 197.84L395.155 197.839ZM395.155 197.829H395.655C395.655 197.648 395.557 197.481 395.399 197.392L395.155 197.829ZM392.436 210.899V193.407H391.436V210.899H392.436ZM395.35 214.867C393.313 213.701 392.436 212.245 392.436 210.899H391.436C391.436 212.725 392.627 214.461 394.853 215.735L395.35 214.867ZM395.601 215.322L395.601 215.302L394.601 215.299L394.601 215.319L395.601 215.322ZM415.815 226.702L395.351 214.887L394.851 215.753L415.315 227.568L415.815 226.702ZM415.108 209.642L415.065 227.134L416.065 227.136L416.108 209.645L415.108 209.642ZM394.905 198.262L415.358 210.076L415.858 209.211L395.405 197.396L394.905 198.262ZM395.655 197.84L395.655 197.83L394.655 197.827L394.655 197.837L395.655 197.84ZM394.655 197.829V197.839H395.655V197.829H394.655ZM391.436 193.407C391.436 195.25 392.67 197.01 394.911 198.265L395.399 197.392C393.347 196.243 392.436 194.763 392.436 193.407H391.436Z" fill="#151E29"></path><path fill-rule="evenodd" clip-rule="evenodd" d="M454.216 193.536V211.028C454.216 212.614 453.182 214.21 451.05 215.43L451.05 215.449L430.586 227.264L430.543 209.773L450.997 197.958L450.997 197.961V197.958C453.143 196.756 454.216 195.135 454.216 193.536Z" fill="#A3E2FF"></path><path d="M453.716 193.536C453.716 193.26 453.94 193.036 454.216 193.036C454.492 193.036 454.716 193.26 454.716 193.536H453.716ZM451.05 215.43L450.55 215.431C450.55 215.251 450.646 215.085 450.802 214.996L451.05 215.43ZM451.05 215.449L451.55 215.448C451.551 215.627 451.455 215.793 451.3 215.882L451.05 215.449ZM430.586 227.264L430.836 227.697C430.682 227.787 430.491 227.787 430.337 227.698C430.182 227.609 430.087 227.444 430.086 227.266L430.586 227.264ZM430.543 209.773L430.043 209.774C430.043 209.595 430.138 209.429 430.293 209.34L430.543 209.773ZM450.997 197.958L450.746 197.525C450.901 197.436 451.091 197.435 451.246 197.524C451.4 197.613 451.496 197.778 451.497 197.956L450.997 197.958ZM450.997 197.961H451.497C451.497 198.237 451.273 198.46 450.997 198.461C450.721 198.461 450.497 198.238 450.497 197.962L450.997 197.961ZM450.997 197.958H450.497C450.497 197.777 450.594 197.61 450.752 197.522L450.997 197.958ZM453.716 211.028V193.536H454.716V211.028H453.716ZM450.802 214.996C452.839 213.83 453.716 212.374 453.716 211.028H454.716C454.716 212.854 453.524 214.59 451.298 215.864L450.802 214.996ZM450.55 215.451L450.55 215.431L451.55 215.428L451.55 215.448L450.55 215.451ZM430.336 226.831L450.8 215.016L451.3 215.882L430.836 227.697L430.336 226.831ZM431.043 209.771L431.086 227.263L430.086 227.266L430.043 209.774L431.043 209.771ZM451.247 198.391L430.793 210.206L430.293 209.34L450.746 197.525L451.247 198.391ZM450.497 197.962L450.497 197.959L451.497 197.956L451.497 197.959L450.497 197.962ZM451.497 197.958V197.961H450.497V197.958H451.497ZM454.716 193.536C454.716 195.379 453.482 197.139 451.241 198.394L450.752 197.522C452.804 196.373 453.716 194.892 453.716 193.536H454.716Z" fill="#151E29"></path><path d="M451.053 189.05C455.259 191.476 455.281 195.404 451.053 197.84L430.739 209.644C428.387 210.84 425.785 211.463 423.147 211.463C420.508 211.463 417.907 210.84 415.555 209.644L395.101 197.84C390.905 195.414 390.873 191.486 395.101 189.05L415.426 177.246C417.776 176.05 420.376 175.427 423.013 175.427C425.65 175.427 428.249 176.05 430.6 177.246L451.053 189.05Z" fill="#0056B3" stroke="#151E29" stroke-linejoin="round"></path><path d="M443.61 190.22C446.697 192 446.713 194.883 443.61 196.67L428.701 205.334C426.975 206.212 425.065 206.669 423.129 206.669C421.192 206.669 419.283 206.212 417.557 205.334L402.545 196.67C399.466 194.89 399.442 192.008 402.545 190.22L417.462 181.556C419.187 180.678 421.095 180.221 423.03 180.221C424.966 180.221 426.874 180.678 428.599 181.556L443.61 190.22Z" fill="white" stroke="#0056B3" stroke-linejoin="round"></path><path fill-rule="evenodd" clip-rule="evenodd" d="M444.958 195.637C446.613 193.903 446.154 191.687 443.61 190.22L428.599 181.556C426.874 180.678 424.966 180.221 423.03 180.221C421.095 180.221 419.187 180.678 417.462 181.556L402.545 190.22C399.991 191.691 399.555 193.905 401.199 195.635C401.551 195.265 402 194.917 402.545 194.603L417.462 185.94C419.187 185.062 421.095 184.604 423.03 184.604C424.966 184.604 426.874 185.062 428.599 185.94L443.61 194.603C444.155 194.918 444.605 195.266 444.958 195.637Z" fill="#0056B3"></path><path d="M443.61 190.22L443.36 190.653L443.36 190.653L443.61 190.22ZM444.958 195.637L444.596 195.982C444.691 196.081 444.821 196.137 444.958 196.137C445.095 196.137 445.226 196.081 445.32 195.983L444.958 195.637ZM428.599 181.556L428.849 181.123C428.841 181.119 428.833 181.115 428.825 181.111L428.599 181.556ZM417.462 181.556L417.235 181.111C417.227 181.115 417.219 181.119 417.211 181.124L417.462 181.556ZM402.545 190.22L402.795 190.653L402.796 190.652L402.545 190.22ZM401.199 195.635L400.836 195.979C400.931 196.079 401.061 196.135 401.198 196.135C401.335 196.135 401.466 196.079 401.561 195.98L401.199 195.635ZM402.545 194.603L402.795 195.036L402.796 195.036L402.545 194.603ZM417.462 185.94L417.235 185.494C417.227 185.498 417.219 185.503 417.211 185.507L417.462 185.94ZM428.599 185.94L428.849 185.507C428.841 185.502 428.833 185.498 428.825 185.494L428.599 185.94ZM443.61 194.603L443.36 195.036L443.36 195.036L443.61 194.603ZM443.36 190.653C444.557 191.343 445.188 192.165 445.372 192.943C445.552 193.703 445.329 194.524 444.596 195.292L445.32 195.983C446.242 195.016 446.617 193.861 446.345 192.713C446.078 191.583 445.208 190.564 443.86 189.787L443.36 190.653ZM428.349 181.989L443.36 190.653L443.86 189.787L428.849 181.123L428.349 181.989ZM423.03 180.721C424.887 180.721 426.717 181.16 428.372 182.002L428.825 181.111C427.03 180.197 425.045 179.721 423.03 179.721V180.721ZM417.689 182.002C419.344 181.16 421.174 180.721 423.03 180.721V179.721C421.016 179.721 419.03 180.197 417.235 181.111L417.689 182.002ZM402.796 190.652L417.713 181.989L417.211 181.124L402.294 189.787L402.796 190.652ZM401.561 195.291C400.832 194.524 400.607 193.704 400.784 192.944C400.966 192.168 401.594 191.345 402.795 190.653L402.295 189.786C400.942 190.566 400.075 191.586 399.811 192.717C399.543 193.864 399.921 195.017 400.836 195.979L401.561 195.291ZM401.561 195.98C401.875 195.65 402.284 195.33 402.795 195.036L402.295 194.17C401.715 194.504 401.227 194.881 400.837 195.29L401.561 195.98ZM402.796 195.036L417.713 186.372L417.211 185.507L402.294 194.171L402.796 195.036ZM417.689 186.385C419.343 185.543 421.174 185.104 423.03 185.104V184.104C421.016 184.104 419.03 184.581 417.235 185.494L417.689 186.385ZM423.03 185.104C424.887 185.104 426.717 185.543 428.372 186.385L428.825 185.494C427.03 184.581 425.044 184.104 423.03 184.104V185.104ZM428.349 186.373L443.36 195.036L443.86 194.17L428.849 185.507L428.349 186.373ZM443.36 195.036C443.871 195.331 444.281 195.651 444.596 195.982L445.32 195.293C444.929 194.882 444.44 194.505 443.86 194.17L443.36 195.036Z" fill="#0056B3"></path><path d="M430.793 209.644V227.135C428.444 228.336 425.844 228.962 423.206 228.962C420.568 228.962 417.968 228.336 415.619 227.135V209.644C417.97 210.838 420.569 211.46 423.206 211.46C425.842 211.46 428.442 210.838 430.793 209.644Z" fill="#A3E2FF" stroke="#151E29" stroke-linejoin="round"></path><path fill-rule="evenodd" clip-rule="evenodd" d="M391.936 171.434V188.926C391.936 190.511 392.97 192.107 395.101 193.327L395.101 193.347L415.565 205.161L415.608 187.67L395.155 175.855L395.155 175.86V175.855C393.009 174.653 391.936 173.033 391.936 171.434Z" fill="#A3E2FF"></path><path d="M392.436 171.434C392.436 171.157 392.212 170.934 391.936 170.934C391.659 170.934 391.436 171.157 391.436 171.434H392.436ZM395.101 193.327L395.601 193.328C395.602 193.149 395.506 192.982 395.35 192.893L395.101 193.327ZM395.101 193.347L394.601 193.345C394.601 193.524 394.696 193.69 394.851 193.78L395.101 193.347ZM415.565 205.161L415.315 205.594C415.47 205.684 415.66 205.684 415.815 205.595C415.969 205.506 416.065 205.341 416.065 205.163L415.565 205.161ZM415.608 187.67L416.108 187.671C416.109 187.492 416.013 187.326 415.858 187.237L415.608 187.67ZM395.155 175.855L395.405 175.422C395.25 175.333 395.06 175.333 394.906 175.421C394.751 175.51 394.655 175.675 394.655 175.853L395.155 175.855ZM395.155 175.86H394.655C394.655 176.136 394.878 176.36 395.154 176.36C395.43 176.361 395.654 176.138 395.655 175.862L395.155 175.86ZM395.155 175.855H395.655C395.655 175.674 395.557 175.507 395.399 175.419L395.155 175.855ZM392.436 188.926V171.434H391.436V188.926H392.436ZM395.35 192.893C393.313 191.727 392.436 190.271 392.436 188.926H391.436C391.436 190.751 392.627 192.487 394.853 193.761L395.35 192.893ZM395.601 193.348L395.601 193.328L394.601 193.325L394.601 193.345L395.601 193.348ZM415.815 204.728L395.351 192.913L394.851 193.78L415.315 205.594L415.815 204.728ZM415.108 187.669L415.065 205.16L416.065 205.163L416.108 187.671L415.108 187.669ZM394.905 176.288L415.358 188.103L415.858 187.237L395.405 175.422L394.905 176.288ZM395.655 175.862L395.655 175.856L394.655 175.853L394.655 175.859L395.655 175.862ZM394.655 175.855V175.86H395.655V175.855H394.655ZM391.436 171.434C391.436 173.276 392.67 175.036 394.911 176.291L395.399 175.419C393.347 174.27 392.436 172.789 392.436 171.434H391.436Z" fill="#151E29"></path><path fill-rule="evenodd" clip-rule="evenodd" d="M454.216 171.563V189.055C454.216 190.64 453.182 192.237 451.05 193.456L451.05 193.476L430.586 205.291L430.543 187.799L450.997 175.984L450.997 175.987V175.984C453.143 174.782 454.216 173.162 454.216 171.563Z" fill="#A3E2FF"></path><path d="M453.716 171.563C453.716 171.287 453.94 171.063 454.216 171.063C454.492 171.063 454.716 171.287 454.716 171.563H453.716ZM451.05 193.456L450.55 193.458C450.55 193.278 450.646 193.111 450.802 193.022L451.05 193.456ZM451.05 193.476L451.55 193.474C451.551 193.653 451.455 193.819 451.3 193.909L451.05 193.476ZM430.586 205.291L430.836 205.724C430.682 205.813 430.491 205.813 430.337 205.724C430.182 205.635 430.087 205.47 430.086 205.292L430.586 205.291ZM430.543 187.799L430.043 187.8C430.043 187.621 430.138 187.456 430.293 187.366L430.543 187.799ZM450.997 175.984L450.746 175.551C450.901 175.462 451.091 175.462 451.246 175.551C451.4 175.64 451.496 175.804 451.497 175.983L450.997 175.984ZM450.997 175.987H451.497C451.497 176.263 451.273 176.487 450.997 176.487C450.721 176.488 450.497 176.264 450.497 175.989L450.997 175.987ZM450.997 175.984H450.497C450.497 175.803 450.594 175.636 450.752 175.548L450.997 175.984ZM453.716 189.055V171.563H454.716V189.055H453.716ZM450.802 193.022C452.839 191.857 453.716 190.4 453.716 189.055H454.716C454.716 190.881 453.524 192.616 451.298 193.89L450.802 193.022ZM450.55 193.477L450.55 193.458L451.55 193.454L451.55 193.474L450.55 193.477ZM430.336 204.858L450.8 193.043L451.3 193.909L430.836 205.724L430.336 204.858ZM431.043 187.798L431.086 205.289L430.086 205.292L430.043 187.8L431.043 187.798ZM451.247 176.417L430.793 188.232L430.293 187.366L450.746 175.551L451.247 176.417ZM450.497 175.989L450.497 175.986L451.497 175.983L451.497 175.986L450.497 175.989ZM451.497 175.984V175.987H450.497V175.984H451.497ZM454.716 171.563C454.716 173.405 453.482 175.166 451.241 176.42L450.752 175.548C452.804 174.399 453.716 172.918 453.716 171.563H454.716Z" fill="#151E29"></path><path d="M451.053 167.077C455.26 169.502 455.281 173.43 451.053 175.866L430.739 187.67C428.387 188.866 425.786 189.489 423.147 189.489C420.508 189.489 417.907 188.866 415.555 187.67L395.101 175.866C390.906 173.441 390.873 169.513 395.101 167.077L415.426 155.273C417.776 154.077 420.376 153.453 423.013 153.453C425.65 153.453 428.249 154.077 430.6 155.273L451.053 167.077Z" fill="white" stroke="#151E29" stroke-linejoin="round"></path><path d="M430.793 187.67V205.161C428.444 206.362 425.844 206.989 423.206 206.989C420.568 206.989 417.968 206.362 415.619 205.161V187.67C417.97 188.864 420.569 189.486 423.206 189.486C425.842 189.486 428.442 188.864 430.793 187.67Z" fill="#A3E2FF" stroke="#151E29" stroke-linejoin="round"></path><path d="M420.152 157.31C421.839 156.336 424.573 156.336 426.26 157.31L447.243 169.423C448.929 170.396 448.929 171.975 447.243 172.949L426.26 185.062C424.573 186.036 421.839 186.036 420.152 185.062L399.17 172.949C397.483 171.975 397.483 170.396 399.17 169.423L420.152 157.31Z" fill="#A3E2FF" stroke="#151E29"></path><path fill-rule="evenodd" clip-rule="evenodd" d="M426.67 157.546C424.757 156.442 421.655 156.442 419.742 157.546L399.58 169.186C397.727 170.256 397.668 171.969 399.404 173.079C399.461 173.043 399.519 173.007 399.58 172.972L419.742 161.332C421.655 160.228 424.757 160.228 426.67 161.332L446.833 172.972C446.893 173.007 446.952 173.043 447.008 173.079C448.744 171.969 448.685 170.256 446.833 169.186L426.67 157.546Z" fill="#0056B3"></path><path d="M419.742 157.546L419.492 157.113V157.113L419.742 157.546ZM426.67 157.546L426.92 157.113V157.113L426.67 157.546ZM399.58 169.186L399.83 169.619H399.83L399.58 169.186ZM399.404 173.079L399.134 173.5L399.404 173.672L399.673 173.5L399.404 173.079ZM399.58 172.972L399.33 172.539L399.33 172.539L399.58 172.972ZM419.742 161.332L419.492 160.899L419.742 161.332ZM426.67 161.332L426.92 160.899L426.67 161.332ZM446.833 172.972L446.583 173.405L446.583 173.405L446.833 172.972ZM447.008 173.079L446.739 173.5L447.008 173.672L447.278 173.5L447.008 173.079ZM446.833 169.186L446.583 169.619L446.833 169.186ZM419.992 157.979C420.855 157.481 422.017 157.218 423.206 157.218C424.395 157.218 425.558 157.481 426.42 157.979L426.92 157.113C425.87 156.507 424.524 156.218 423.206 156.218C421.888 156.218 420.542 156.507 419.492 157.113L419.992 157.979ZM399.83 169.619L419.992 157.979L419.492 157.113L399.33 168.753L399.83 169.619ZM399.673 172.658C398.899 172.162 398.626 171.603 398.646 171.138C398.665 170.668 398.992 170.103 399.83 169.619L399.33 168.753C398.315 169.339 397.686 170.165 397.647 171.096C397.607 172.033 398.173 172.885 399.134 173.5L399.673 172.658ZM399.673 173.5C399.723 173.468 399.776 173.436 399.83 173.405L399.33 172.539C399.263 172.578 399.198 172.617 399.134 172.658L399.673 173.5ZM399.83 173.405L419.992 161.765L419.492 160.899L399.33 172.539L399.83 173.405ZM419.992 161.765C420.855 161.267 422.017 161.004 423.206 161.004C424.395 161.004 425.558 161.267 426.42 161.765L426.92 160.899C425.87 160.293 424.524 160.004 423.206 160.004C421.888 160.004 420.542 160.293 419.492 160.899L419.992 161.765ZM426.42 161.765L446.583 173.405L447.083 172.539L426.92 160.899L426.42 161.765ZM446.583 173.405C446.637 173.436 446.689 173.468 446.739 173.5L447.278 172.658C447.215 172.617 447.149 172.578 447.083 172.539L446.583 173.405ZM446.583 169.619C447.421 170.103 447.747 170.668 447.766 171.138C447.786 171.603 447.513 172.162 446.739 172.658L447.278 173.5C448.239 172.885 448.805 172.033 448.766 171.096C448.727 170.165 448.097 169.339 447.083 168.753L446.583 169.619ZM426.42 157.979L446.583 169.619L447.083 168.753L426.92 157.113L426.42 157.979Z" fill="#151E29"></path><path d="M252.786 133.674C255.727 131.919 255.738 129.072 252.82 127.317C249.903 125.561 245.155 125.561 242.214 127.317C239.273 129.072 239.262 131.919 242.18 133.674C245.097 135.442 249.845 135.442 252.786 133.674Z" stroke="#151E29" stroke-linejoin="round"></path></g><defs><radialGradient id="paint0_radial_1391_1235" cx="0" cy="0" r="1" gradientUnits="userSpaceOnUse" gradientTransform="translate(252.386 212.253) rotate(147.071) scale(210.2 364.109)"><stop stop-color="#7AD1FF"></stop><stop offset="1" stop-color="#7AD1FF" stop-opacity="0"></stop></radialGradient><clipPath id="clip0_1391_1235"><rect width="552" height="403" fill="white"></rect></clipPath></defs></svg> 